G04 start of page 9 for group 11 layer_idx 11 *
G04 Title: (unknown), bottom_mask *
G04 Creator: pcb-rnd 2.0.0 *
G04 CreationDate: 2018-06-06 15:15:13 UTC *
G04 For:  *
G04 Format: Gerber/RS-274X *
G04 PCB-Dimensions: 500000 500000 *
G04 PCB-Coordinate-Origin: lower left *
%MOIN*%
%FSLAX25Y25*%
%LNBOTTOMMASK*%
%ADD92C,0.1690*%
%ADD91C,0.0960*%
%ADD90C,0.1210*%
%ADD89C,0.2060*%
%ADD88C,0.0660*%
%ADD87C,0.0860*%
G54D87*X266000Y301660D03*
X240000Y326660D03*
X259000Y247660D03*
X269000D03*
X249000Y276660D03*
G54D88*X229001Y220273D03*
G54D87*X239000Y247660D03*
X249000D03*
X279000D03*
X280000Y326660D03*
X289000Y247660D03*
G54D88*X259001Y220273D03*
X249001D03*
X239001D03*
G54D87*X299000Y340660D03*
X306000Y276660D03*
Y301660D03*
X209000Y333660D03*
G54D89*X209500Y380160D03*
X249500D03*
G54D87*X219500Y360160D03*
X229500D03*
G54D90*X329500Y336000D03*
Y351000D03*
G54D91*X282880Y388000D03*
G54D87*X299000Y330660D03*
G54D90*X329500Y321000D03*
G54D87*X373000Y399160D03*
G54D92*X339500Y401000D03*
X319500D03*
G54D91*X272880Y398000D03*
X292880D03*
G54D87*X373000Y299160D03*
X209000Y293660D03*
X346000Y276660D03*
X209000D03*
G54D88*X219001Y220273D03*
X209001D03*
G54D87*X320000Y225660D03*
G54D88*X289001Y220273D03*
X279001D03*
X269001D03*
G54D87*X310000Y225660D03*
X209000Y247660D03*
X219000D03*
X229000D03*
M02*
