G04 start of page 12 for group -1 layer_idx 16777221 *
G04 Title: (unknown), <virtual group> *
G04 Creator: pcb-rnd 2.0.0 *
G04 CreationDate: 2018-06-06 15:15:13 UTC *
G04 For:  *
G04 Format: Gerber/RS-274X *
G04 PCB-Dimensions: 500000 500000 *
G04 PCB-Coordinate-Origin: lower left *
%MOIN*%
%FSLAX25Y25*%
%LNFAB*%
%ADD103C,0.0100*%
%ADD102C,0.0075*%
%ADD101C,0.0060*%
%ADD100C,0.0080*%
G54D100*X207100Y382560D02*X211900Y377760D01*
X207100D02*X211900Y382560D01*
X207900Y381760D02*X211100D01*
X207900D02*Y378560D01*
X211100D01*
Y381760D02*Y378560D01*
X247100Y382560D02*X251900Y377760D01*
X247100D02*X251900Y382560D01*
X247900Y381760D02*X251100D01*
X247900D02*Y378560D01*
X251100D01*
Y381760D02*Y378560D01*
X12600Y513650D02*X17400Y508850D01*
X12600D02*X17400Y513650D01*
X13400Y512850D02*X16600D01*
X13400D02*Y509650D01*
X16600D01*
Y512850D02*Y509650D01*
G54D101*X135000Y513500D02*X136500Y510500D01*
X138000Y513500D01*
X136500Y510500D02*Y507500D01*
X139800Y510800D02*X142050D01*
X139800Y507500D02*X142800D01*
X139800Y513500D02*Y507500D01*
Y513500D02*X142800D01*
X147600D02*X148350Y512750D01*
X145350Y513500D02*X147600D01*
X144600Y512750D02*X145350Y513500D01*
X144600Y512750D02*Y511250D01*
X145350Y510500D01*
X147600D01*
X148350Y509750D01*
Y508250D01*
X147600Y507500D02*X148350Y508250D01*
X145350Y507500D02*X147600D01*
X144600Y508250D02*X145350Y507500D01*
X98000Y512750D02*X98750Y513500D01*
X101000D01*
X101750Y512750D01*
Y511250D01*
X98000Y507500D02*X101750Y511250D01*
X98000Y507500D02*X101750D01*
X45000Y508250D02*X45750Y507500D01*
X45000Y512750D02*Y508250D01*
Y512750D02*X45750Y513500D01*
X47250D01*
X48000Y512750D01*
Y508250D01*
X47250Y507500D02*X48000Y508250D01*
X45750Y507500D02*X47250D01*
X45000Y509000D02*X48000Y512000D01*
X49800Y507500D02*X50550D01*
X52350Y508250D02*X53100Y507500D01*
X52350Y512750D02*Y508250D01*
Y512750D02*X53100Y513500D01*
X54600D01*
X55350Y512750D01*
Y508250D01*
X54600Y507500D02*X55350Y508250D01*
X53100Y507500D02*X54600D01*
X52350Y509000D02*X55350Y512000D01*
X57900Y507500D02*X60900Y513500D01*
X57150D02*X60900D01*
X63450Y507500D02*X65700Y510500D01*
Y512750D02*Y510500D01*
X64950Y513500D02*X65700Y512750D01*
X63450Y513500D02*X64950D01*
X62700Y512750D02*X63450Y513500D01*
X62700Y512750D02*Y511250D01*
X63450Y510500D01*
X65700D01*
X329500Y339200D02*Y332800D01*
X326300Y336000D02*X332700D01*
X327900Y337600D02*X331100D01*
X327900D02*Y334400D01*
X331100D01*
Y337600D02*Y334400D01*
X329500Y354200D02*Y347800D01*
X326300Y351000D02*X332700D01*
X327900Y352600D02*X331100D01*
X327900D02*Y349400D01*
X331100D01*
Y352600D02*Y349400D01*
X329500Y324200D02*Y317800D01*
X326300Y321000D02*X332700D01*
X327900Y322600D02*X331100D01*
X327900D02*Y319400D01*
X331100D01*
Y322600D02*Y319400D01*
X339500Y404200D02*Y397800D01*
X336300Y401000D02*X342700D01*
X337900Y402600D02*X341100D01*
X337900D02*Y399400D01*
X341100D01*
Y402600D02*Y399400D01*
X319500Y404200D02*Y397800D01*
X316300Y401000D02*X322700D01*
X317900Y402600D02*X321100D01*
X317900D02*Y399400D01*
X321100D01*
Y402600D02*Y399400D01*
X15000Y529450D02*Y523050D01*
X11800Y526250D02*X18200D01*
X13400Y527850D02*X16600D01*
X13400D02*Y524650D01*
X16600D01*
Y527850D02*Y524650D01*
X135000Y528500D02*X136500Y525500D01*
X138000Y528500D01*
X136500Y525500D02*Y522500D01*
X139800Y525800D02*X142050D01*
X139800Y522500D02*X142800D01*
X139800Y528500D02*Y522500D01*
Y528500D02*X142800D01*
X147600D02*X148350Y527750D01*
X145350Y528500D02*X147600D01*
X144600Y527750D02*X145350Y528500D01*
X144600Y527750D02*Y526250D01*
X145350Y525500D01*
X147600D01*
X148350Y524750D01*
Y523250D01*
X147600Y522500D02*X148350Y523250D01*
X145350Y522500D02*X147600D01*
X144600Y523250D02*X145350Y522500D01*
X98000Y528500D02*X101000D01*
X98000D02*Y525500D01*
X98750Y526250D01*
X100250D01*
X101000Y525500D01*
Y523250D01*
X100250Y522500D02*X101000Y523250D01*
X98750Y522500D02*X100250D01*
X98000Y523250D02*X98750Y522500D01*
X45000Y523250D02*X45750Y522500D01*
X45000Y527750D02*Y523250D01*
Y527750D02*X45750Y528500D01*
X47250D01*
X48000Y527750D01*
Y523250D01*
X47250Y522500D02*X48000Y523250D01*
X45750Y522500D02*X47250D01*
X45000Y524000D02*X48000Y527000D01*
X49800Y522500D02*X50550D01*
X52350Y523250D02*X53100Y522500D01*
X52350Y527750D02*Y523250D01*
Y527750D02*X53100Y528500D01*
X54600D01*
X55350Y527750D01*
Y523250D01*
X54600Y522500D02*X55350Y523250D01*
X53100Y522500D02*X54600D01*
X52350Y524000D02*X55350Y527000D01*
X57900Y522500D02*X60900Y528500D01*
X57150D02*X60900D01*
X62700Y527750D02*X63450Y528500D01*
X64950D01*
X65700Y527750D01*
X64950Y522500D02*X65700Y523250D01*
X63450Y522500D02*X64950D01*
X62700Y523250D02*X63450Y522500D01*
Y525800D02*X64950D01*
X65700Y527750D02*Y526550D01*
Y525050D02*Y523250D01*
Y525050D02*X64950Y525800D01*
X65700Y526550D02*X64950Y525800D01*
X282880Y388000D02*Y384800D01*
Y388000D02*X285653Y389600D01*
X282880Y388000D02*X280107Y389600D01*
X281280Y388000D02*G75*G03X284480Y388000I1600J0D01*G01*
G75*G03X281280Y388000I-1600J0D01*G01*
X272880Y398000D02*Y394800D01*
Y398000D02*X275653Y399600D01*
X272880Y398000D02*X270107Y399600D01*
X271280Y398000D02*G75*G03X274480Y398000I1600J0D01*G01*
G75*G03X271280Y398000I-1600J0D01*G01*
X292880D02*Y394800D01*
Y398000D02*X295653Y399600D01*
X292880Y398000D02*X290107Y399600D01*
X291280Y398000D02*G75*G03X294480Y398000I1600J0D01*G01*
G75*G03X291280Y398000I-1600J0D01*G01*
X15000Y541250D02*Y538050D01*
Y541250D02*X17773Y542850D01*
X15000Y541250D02*X12227Y542850D01*
X13400Y541250D02*G75*G03X16600Y541250I1600J0D01*G01*
G75*G03X13400Y541250I-1600J0D01*G01*
X135000Y543500D02*X136500Y540500D01*
X138000Y543500D01*
X136500Y540500D02*Y537500D01*
X139800Y540800D02*X142050D01*
X139800Y537500D02*X142800D01*
X139800Y543500D02*Y537500D01*
Y543500D02*X142800D01*
X147600D02*X148350Y542750D01*
X145350Y543500D02*X147600D01*
X144600Y542750D02*X145350Y543500D01*
X144600Y542750D02*Y541250D01*
X145350Y540500D01*
X147600D01*
X148350Y539750D01*
Y538250D01*
X147600Y537500D02*X148350Y538250D01*
X145350Y537500D02*X147600D01*
X144600Y538250D02*X145350Y537500D01*
X98000Y542750D02*X98750Y543500D01*
X100250D01*
X101000Y542750D01*
X100250Y537500D02*X101000Y538250D01*
X98750Y537500D02*X100250D01*
X98000Y538250D02*X98750Y537500D01*
Y540800D02*X100250D01*
X101000Y542750D02*Y541550D01*
Y540050D02*Y538250D01*
Y540050D02*X100250Y540800D01*
X101000Y541550D02*X100250Y540800D01*
X45000Y538250D02*X45750Y537500D01*
X45000Y542750D02*Y538250D01*
Y542750D02*X45750Y543500D01*
X47250D01*
X48000Y542750D01*
Y538250D01*
X47250Y537500D02*X48000Y538250D01*
X45750Y537500D02*X47250D01*
X45000Y539000D02*X48000Y542000D01*
X49800Y537500D02*X50550D01*
X52350Y538250D02*X53100Y537500D01*
X52350Y542750D02*Y538250D01*
Y542750D02*X53100Y543500D01*
X54600D01*
X55350Y542750D01*
Y538250D01*
X54600Y537500D02*X55350Y538250D01*
X53100Y537500D02*X54600D01*
X52350Y539000D02*X55350Y542000D01*
X59400Y543500D02*X60150Y542750D01*
X57900Y543500D02*X59400D01*
X57150Y542750D02*X57900Y543500D01*
X57150Y542750D02*Y538250D01*
X57900Y537500D01*
X59400Y540800D02*X60150Y540050D01*
X57150Y540800D02*X59400D01*
X57900Y537500D02*X59400D01*
X60150Y538250D01*
Y540050D02*Y538250D01*
X61950D02*X62700Y537500D01*
X61950Y542750D02*Y538250D01*
Y542750D02*X62700Y543500D01*
X64200D01*
X64950Y542750D01*
Y538250D01*
X64200Y537500D02*X64950Y538250D01*
X62700Y537500D02*X64200D01*
X61950Y539000D02*X64950Y542000D01*
X229400Y292260D02*X232600D01*
X229400D02*Y289060D01*
X232600D01*
Y292260D02*Y289060D01*
X263400Y362260D02*X266600D01*
X263400D02*Y359060D01*
X266600D01*
Y362260D02*Y359060D01*
X229400Y314260D02*X232600D01*
X229400D02*Y311060D01*
X232600D01*
Y314260D02*Y311060D01*
X13400Y557850D02*X16600D01*
X13400D02*Y554650D01*
X16600D01*
Y557850D02*Y554650D01*
X135000Y558500D02*X136500Y555500D01*
X138000Y558500D01*
X136500Y555500D02*Y552500D01*
X139800Y555800D02*X142050D01*
X139800Y552500D02*X142800D01*
X139800Y558500D02*Y552500D01*
Y558500D02*X142800D01*
X147600D02*X148350Y557750D01*
X145350Y558500D02*X147600D01*
X144600Y557750D02*X145350Y558500D01*
X144600Y557750D02*Y556250D01*
X145350Y555500D01*
X147600D01*
X148350Y554750D01*
Y553250D01*
X147600Y552500D02*X148350Y553250D01*
X145350Y552500D02*X147600D01*
X144600Y553250D02*X145350Y552500D01*
X98000Y557750D02*X98750Y558500D01*
X100250D01*
X101000Y557750D01*
X100250Y552500D02*X101000Y553250D01*
X98750Y552500D02*X100250D01*
X98000Y553250D02*X98750Y552500D01*
Y555800D02*X100250D01*
X101000Y557750D02*Y556550D01*
Y555050D02*Y553250D01*
Y555050D02*X100250Y555800D01*
X101000Y556550D02*X100250Y555800D01*
X45000Y553250D02*X45750Y552500D01*
X45000Y557750D02*Y553250D01*
Y557750D02*X45750Y558500D01*
X47250D01*
X48000Y557750D01*
Y553250D01*
X47250Y552500D02*X48000Y553250D01*
X45750Y552500D02*X47250D01*
X45000Y554000D02*X48000Y557000D01*
X49800Y552500D02*X50550D01*
X52350Y553250D02*X53100Y552500D01*
X52350Y557750D02*Y553250D01*
Y557750D02*X53100Y558500D01*
X54600D01*
X55350Y557750D01*
Y553250D01*
X54600Y552500D02*X55350Y553250D01*
X53100Y552500D02*X54600D01*
X52350Y554000D02*X55350Y557000D01*
X57150Y554750D02*X60150Y558500D01*
X57150Y554750D02*X60900D01*
X60150Y558500D02*Y552500D01*
X63450D02*X66450Y558500D01*
X62700D02*X66450D01*
X228201Y220273D02*G75*G03X229801Y220273I800J0D01*G01*
G75*G03X228201Y220273I-800J0D01*G01*
X258201D02*G75*G03X259801Y220273I800J0D01*G01*
G75*G03X258201Y220273I-800J0D01*G01*
X248201D02*G75*G03X249801Y220273I800J0D01*G01*
G75*G03X248201Y220273I-800J0D01*G01*
X238201D02*G75*G03X239801Y220273I800J0D01*G01*
G75*G03X238201Y220273I-800J0D01*G01*
X218201D02*G75*G03X219801Y220273I800J0D01*G01*
G75*G03X218201Y220273I-800J0D01*G01*
X208201D02*G75*G03X209801Y220273I800J0D01*G01*
G75*G03X208201Y220273I-800J0D01*G01*
X288201D02*G75*G03X289801Y220273I800J0D01*G01*
G75*G03X288201Y220273I-800J0D01*G01*
X278201D02*G75*G03X279801Y220273I800J0D01*G01*
G75*G03X278201Y220273I-800J0D01*G01*
X268201D02*G75*G03X269801Y220273I800J0D01*G01*
G75*G03X268201Y220273I-800J0D01*G01*
X14200Y571250D02*G75*G03X15800Y571250I800J0D01*G01*
G75*G03X14200Y571250I-800J0D01*G01*
X135000Y573500D02*X136500Y570500D01*
X138000Y573500D01*
X136500Y570500D02*Y567500D01*
X139800Y570800D02*X142050D01*
X139800Y567500D02*X142800D01*
X139800Y573500D02*Y567500D01*
Y573500D02*X142800D01*
X147600D02*X148350Y572750D01*
X145350Y573500D02*X147600D01*
X144600Y572750D02*X145350Y573500D01*
X144600Y572750D02*Y571250D01*
X145350Y570500D01*
X147600D01*
X148350Y569750D01*
Y568250D01*
X147600Y567500D02*X148350Y568250D01*
X145350Y567500D02*X147600D01*
X144600Y568250D02*X145350Y567500D01*
X98750D02*X101000Y570500D01*
Y572750D02*Y570500D01*
X100250Y573500D02*X101000Y572750D01*
X98750Y573500D02*X100250D01*
X98000Y572750D02*X98750Y573500D01*
X98000Y572750D02*Y571250D01*
X98750Y570500D01*
X101000D01*
X45000Y568250D02*X45750Y567500D01*
X45000Y572750D02*Y568250D01*
Y572750D02*X45750Y573500D01*
X47250D01*
X48000Y572750D01*
Y568250D01*
X47250Y567500D02*X48000Y568250D01*
X45750Y567500D02*X47250D01*
X45000Y569000D02*X48000Y572000D01*
X49800Y567500D02*X50550D01*
X52350Y568250D02*X53100Y567500D01*
X52350Y572750D02*Y568250D01*
Y572750D02*X53100Y573500D01*
X54600D01*
X55350Y572750D01*
Y568250D01*
X54600Y567500D02*X55350Y568250D01*
X53100Y567500D02*X54600D01*
X52350Y569000D02*X55350Y572000D01*
X57150Y569750D02*X60150Y573500D01*
X57150Y569750D02*X60900D01*
X60150Y573500D02*Y567500D01*
X62700Y572750D02*X63450Y573500D01*
X65700D01*
X66450Y572750D01*
Y571250D01*
X62700Y567500D02*X66450Y571250D01*
X62700Y567500D02*X66450D01*
X257800Y248860D02*X260200Y246460D01*
X257800D02*X260200Y248860D01*
X267800D02*X270200Y246460D01*
X267800D02*X270200Y248860D01*
X237800D02*X240200Y246460D01*
X237800D02*X240200Y248860D01*
X247800D02*X250200Y246460D01*
X247800D02*X250200Y248860D01*
X277800D02*X280200Y246460D01*
X277800D02*X280200Y248860D01*
X287800D02*X290200Y246460D01*
X287800D02*X290200Y248860D01*
X207800D02*X210200Y246460D01*
X207800D02*X210200Y248860D01*
X217800D02*X220200Y246460D01*
X217800D02*X220200Y248860D01*
X227800D02*X230200Y246460D01*
X227800D02*X230200Y248860D01*
X13800Y587450D02*X16200Y585050D01*
X13800D02*X16200Y587450D01*
X135000Y588500D02*X136500Y585500D01*
X138000Y588500D01*
X136500Y585500D02*Y582500D01*
X139800Y585800D02*X142050D01*
X139800Y582500D02*X142800D01*
X139800Y588500D02*Y582500D01*
Y588500D02*X142800D01*
X147600D02*X148350Y587750D01*
X145350Y588500D02*X147600D01*
X144600Y587750D02*X145350Y588500D01*
X144600Y587750D02*Y586250D01*
X145350Y585500D01*
X147600D01*
X148350Y584750D01*
Y583250D01*
X147600Y582500D02*X148350Y583250D01*
X145350Y582500D02*X147600D01*
X144600Y583250D02*X145350Y582500D01*
X98750D02*X101000Y585500D01*
Y587750D02*Y585500D01*
X100250Y588500D02*X101000Y587750D01*
X98750Y588500D02*X100250D01*
X98000Y587750D02*X98750Y588500D01*
X98000Y587750D02*Y586250D01*
X98750Y585500D01*
X101000D01*
X45000Y583250D02*X45750Y582500D01*
X45000Y587750D02*Y583250D01*
Y587750D02*X45750Y588500D01*
X47250D01*
X48000Y587750D01*
Y583250D01*
X47250Y582500D02*X48000Y583250D01*
X45750Y582500D02*X47250D01*
X45000Y584000D02*X48000Y587000D01*
X49800Y582500D02*X50550D01*
X52350Y583250D02*X53100Y582500D01*
X52350Y587750D02*Y583250D01*
Y587750D02*X53100Y588500D01*
X54600D01*
X55350Y587750D01*
Y583250D01*
X54600Y582500D02*X55350Y583250D01*
X53100Y582500D02*X54600D01*
X52350Y584000D02*X55350Y587000D01*
X57150Y584750D02*X60150Y588500D01*
X57150Y584750D02*X60900D01*
X60150Y588500D02*Y582500D01*
X62700Y583250D02*X63450Y582500D01*
X62700Y587750D02*Y583250D01*
Y587750D02*X63450Y588500D01*
X64950D01*
X65700Y587750D01*
Y583250D01*
X64950Y582500D02*X65700Y583250D01*
X63450Y582500D02*X64950D01*
X62700Y584000D02*X65700Y587000D01*
X266000Y303260D02*Y300060D01*
X264400Y301660D02*X267600D01*
X240000Y328260D02*Y325060D01*
X238400Y326660D02*X241600D01*
X249000Y278260D02*Y275060D01*
X247400Y276660D02*X250600D01*
X280000Y328260D02*Y325060D01*
X278400Y326660D02*X281600D01*
X299000Y342260D02*Y339060D01*
X297400Y340660D02*X300600D01*
X306000Y278260D02*Y275060D01*
X304400Y276660D02*X307600D01*
X306000Y303260D02*Y300060D01*
X304400Y301660D02*X307600D01*
X209000Y335260D02*Y332060D01*
X207400Y333660D02*X210600D01*
X299000Y332260D02*Y329060D01*
X297400Y330660D02*X300600D01*
X373000Y400760D02*Y397560D01*
X371400Y399160D02*X374600D01*
X373000Y300760D02*Y297560D01*
X371400Y299160D02*X374600D01*
X209000Y295260D02*Y292060D01*
X207400Y293660D02*X210600D01*
X346000Y278260D02*Y275060D01*
X344400Y276660D02*X347600D01*
X209000Y278260D02*Y275060D01*
X207400Y276660D02*X210600D01*
X320000Y227260D02*Y224060D01*
X318400Y225660D02*X321600D01*
X310000Y227260D02*Y224060D01*
X308400Y225660D02*X311600D01*
X15000Y602850D02*Y599650D01*
X13400Y601250D02*X16600D01*
X135000Y603500D02*X136500Y600500D01*
X138000Y603500D01*
X136500Y600500D02*Y597500D01*
X139800Y600800D02*X142050D01*
X139800Y597500D02*X142800D01*
X139800Y603500D02*Y597500D01*
Y603500D02*X142800D01*
X147600D02*X148350Y602750D01*
X145350Y603500D02*X147600D01*
X144600Y602750D02*X145350Y603500D01*
X144600Y602750D02*Y601250D01*
X145350Y600500D01*
X147600D01*
X148350Y599750D01*
Y598250D01*
X147600Y597500D02*X148350Y598250D01*
X145350Y597500D02*X147600D01*
X144600Y598250D02*X145350Y597500D01*
X98000Y602300D02*X99200Y603500D01*
Y597500D01*
X98000D02*X100250D01*
X104300Y603500D02*X105050Y602750D01*
X102800Y603500D02*X104300D01*
X102050Y602750D02*X102800Y603500D01*
X102050Y602750D02*Y598250D01*
X102800Y597500D01*
X104300Y600800D02*X105050Y600050D01*
X102050Y600800D02*X104300D01*
X102800Y597500D02*X104300D01*
X105050Y598250D01*
Y600050D02*Y598250D01*
X45000D02*X45750Y597500D01*
X45000Y602750D02*Y598250D01*
Y602750D02*X45750Y603500D01*
X47250D01*
X48000Y602750D01*
Y598250D01*
X47250Y597500D02*X48000Y598250D01*
X45750Y597500D02*X47250D01*
X45000Y599000D02*X48000Y602000D01*
X49800Y597500D02*X50550D01*
X52350Y598250D02*X53100Y597500D01*
X52350Y602750D02*Y598250D01*
Y602750D02*X53100Y603500D01*
X54600D01*
X55350Y602750D01*
Y598250D01*
X54600Y597500D02*X55350Y598250D01*
X53100Y597500D02*X54600D01*
X52350Y599000D02*X55350Y602000D01*
X57150Y602750D02*X57900Y603500D01*
X59400D01*
X60150Y602750D01*
X59400Y597500D02*X60150Y598250D01*
X57900Y597500D02*X59400D01*
X57150Y598250D02*X57900Y597500D01*
Y600800D02*X59400D01*
X60150Y602750D02*Y601550D01*
Y600050D02*Y598250D01*
Y600050D02*X59400Y600800D01*
X60150Y601550D02*X59400Y600800D01*
X62700Y597500D02*X64950Y600500D01*
Y602750D02*Y600500D01*
X64200Y603500D02*X64950Y602750D01*
X62700Y603500D02*X64200D01*
X61950Y602750D02*X62700Y603500D01*
X61950Y602750D02*Y601250D01*
X62700Y600500D01*
X64950D01*
X219500Y360160D02*Y358560D01*
Y360160D02*X220887Y360960D01*
X219500Y360160D02*X218113Y360960D01*
X229500Y360160D02*Y358560D01*
Y360160D02*X230887Y360960D01*
X229500Y360160D02*X228113Y360960D01*
X15000Y616250D02*Y614650D01*
Y616250D02*X16387Y617050D01*
X15000Y616250D02*X13613Y617050D01*
X135000Y618500D02*X136500Y615500D01*
X138000Y618500D01*
X136500Y615500D02*Y612500D01*
X139800Y615800D02*X142050D01*
X139800Y612500D02*X142800D01*
X139800Y618500D02*Y612500D01*
Y618500D02*X142800D01*
X147600D02*X148350Y617750D01*
X145350Y618500D02*X147600D01*
X144600Y617750D02*X145350Y618500D01*
X144600Y617750D02*Y616250D01*
X145350Y615500D01*
X147600D01*
X148350Y614750D01*
Y613250D01*
X147600Y612500D02*X148350Y613250D01*
X145350Y612500D02*X147600D01*
X144600Y613250D02*X145350Y612500D01*
X98000Y617750D02*X98750Y618500D01*
X101000D01*
X101750Y617750D01*
Y616250D01*
X98000Y612500D02*X101750Y616250D01*
X98000Y612500D02*X101750D01*
X45000Y613250D02*X45750Y612500D01*
X45000Y617750D02*Y613250D01*
Y617750D02*X45750Y618500D01*
X47250D01*
X48000Y617750D01*
Y613250D01*
X47250Y612500D02*X48000Y613250D01*
X45750Y612500D02*X47250D01*
X45000Y614000D02*X48000Y617000D01*
X49800Y612500D02*X50550D01*
X52350Y613250D02*X53100Y612500D01*
X52350Y617750D02*Y613250D01*
Y617750D02*X53100Y618500D01*
X54600D01*
X55350Y617750D01*
Y613250D01*
X54600Y612500D02*X55350Y613250D01*
X53100Y612500D02*X54600D01*
X52350Y614000D02*X55350Y617000D01*
X57150Y617750D02*X57900Y618500D01*
X59400D01*
X60150Y617750D01*
X59400Y612500D02*X60150Y613250D01*
X57900Y612500D02*X59400D01*
X57150Y613250D02*X57900Y612500D01*
Y615800D02*X59400D01*
X60150Y617750D02*Y616550D01*
Y615050D02*Y613250D01*
Y615050D02*X59400Y615800D01*
X60150Y616550D02*X59400Y615800D01*
X61950Y617750D02*X62700Y618500D01*
X64950D01*
X65700Y617750D01*
Y616250D01*
X61950Y612500D02*X65700Y616250D01*
X61950Y612500D02*X65700D01*
X3000Y633500D02*X3750Y632750D01*
X750Y633500D02*X3000D01*
X0Y632750D02*X750Y633500D01*
X0Y632750D02*Y631250D01*
X750Y630500D01*
X3000D01*
X3750Y629750D01*
Y628250D01*
X3000Y627500D02*X3750Y628250D01*
X750Y627500D02*X3000D01*
X0Y628250D02*X750Y627500D01*
X5550Y630500D02*Y628250D01*
X6300Y627500D01*
X8550Y630500D02*Y626000D01*
X7800Y625250D02*X8550Y626000D01*
X6300Y625250D02*X7800D01*
X5550Y626000D02*X6300Y625250D01*
Y627500D02*X7800D01*
X8550Y628250D01*
X11100Y629750D02*Y627500D01*
Y629750D02*X11850Y630500D01*
X12600D01*
X13350Y629750D01*
Y627500D01*
Y629750D02*X14100Y630500D01*
X14850D01*
X15600Y629750D01*
Y627500D01*
X10350Y630500D02*X11100Y629750D01*
X17400Y633500D02*Y627500D01*
Y628250D02*X18150Y627500D01*
X19650D01*
X20400Y628250D01*
Y629750D02*Y628250D01*
X19650Y630500D02*X20400Y629750D01*
X18150Y630500D02*X19650D01*
X17400Y629750D02*X18150Y630500D01*
X22200Y629750D02*Y628250D01*
Y629750D02*X22950Y630500D01*
X24450D01*
X25200Y629750D01*
Y628250D01*
X24450Y627500D02*X25200Y628250D01*
X22950Y627500D02*X24450D01*
X22200Y628250D02*X22950Y627500D01*
X27000Y633500D02*Y628250D01*
X27750Y627500D01*
X0Y625750D02*X29250D01*
X41750Y633500D02*Y627500D01*
X43700Y633500D02*X44750Y632450D01*
Y628550D01*
X43700Y627500D02*X44750Y628550D01*
X41000Y627500D02*X43700D01*
X41000Y633500D02*X43700D01*
G54D102*X46550Y632000D02*Y631850D01*
G54D101*Y629750D02*Y627500D01*
X50300Y630500D02*X51050Y629750D01*
X48800Y630500D02*X50300D01*
X48050Y629750D02*X48800Y630500D01*
X48050Y629750D02*Y628250D01*
X48800Y627500D01*
X51050Y630500D02*Y628250D01*
X51800Y627500D01*
X48800D02*X50300D01*
X51050Y628250D01*
X54350Y629750D02*Y627500D01*
Y629750D02*X55100Y630500D01*
X55850D01*
X56600Y629750D01*
Y627500D01*
Y629750D02*X57350Y630500D01*
X58100D01*
X58850Y629750D01*
Y627500D01*
X53600Y630500D02*X54350Y629750D01*
X60650Y627500D02*X61400D01*
X65900Y628250D02*X66650Y627500D01*
X65900Y632750D02*X66650Y633500D01*
X65900Y632750D02*Y628250D01*
X68450Y633500D02*X69950D01*
X69200D02*Y627500D01*
X68450D02*X69950D01*
X72500Y629750D02*Y627500D01*
Y629750D02*X73250Y630500D01*
X74000D01*
X74750Y629750D01*
Y627500D01*
X71750Y630500D02*X72500Y629750D01*
X77300Y630500D02*X79550D01*
X76550Y629750D02*X77300Y630500D01*
X76550Y629750D02*Y628250D01*
X77300Y627500D01*
X79550D01*
X81350Y633500D02*Y627500D01*
Y629750D02*X82100Y630500D01*
X83600D01*
X84350Y629750D01*
Y627500D01*
X86150Y633500D02*X86900Y632750D01*
Y628250D01*
X86150Y627500D02*X86900Y628250D01*
X41000Y625750D02*X88700D01*
X96050Y627500D02*X98000D01*
X95000Y628550D02*X96050Y627500D01*
X95000Y632450D02*Y628550D01*
Y632450D02*X96050Y633500D01*
X98000D01*
X99800Y629750D02*Y628250D01*
Y629750D02*X100550Y630500D01*
X102050D01*
X102800Y629750D01*
Y628250D01*
X102050Y627500D02*X102800Y628250D01*
X100550Y627500D02*X102050D01*
X99800Y628250D02*X100550Y627500D01*
X104600Y630500D02*Y628250D01*
X105350Y627500D01*
X106850D01*
X107600Y628250D01*
Y630500D02*Y628250D01*
X110150Y629750D02*Y627500D01*
Y629750D02*X110900Y630500D01*
X111650D01*
X112400Y629750D01*
Y627500D01*
X109400Y630500D02*X110150Y629750D01*
X114950Y633500D02*Y628250D01*
X115700Y627500D01*
X114200Y631250D02*X115700D01*
X95000Y625750D02*X117200D01*
X130750Y633500D02*Y627500D01*
X130000Y633500D02*X133000D01*
X133750Y632750D01*
Y631250D01*
X133000Y630500D02*X133750Y631250D01*
X130750Y630500D02*X133000D01*
X135550Y633500D02*Y628250D01*
X136300Y627500D01*
X140050Y630500D02*X140800Y629750D01*
X138550Y630500D02*X140050D01*
X137800Y629750D02*X138550Y630500D01*
X137800Y629750D02*Y628250D01*
X138550Y627500D01*
X140800Y630500D02*Y628250D01*
X141550Y627500D01*
X138550D02*X140050D01*
X140800Y628250D01*
X144100Y633500D02*Y628250D01*
X144850Y627500D01*
X143350Y631250D02*X144850D01*
X147100Y627500D02*X149350D01*
X146350Y628250D02*X147100Y627500D01*
X146350Y629750D02*Y628250D01*
Y629750D02*X147100Y630500D01*
X148600D01*
X149350Y629750D01*
X146350Y629000D02*X149350D01*
Y629750D02*Y629000D01*
X154150Y633500D02*Y627500D01*
X153400D02*X154150Y628250D01*
X151900Y627500D02*X153400D01*
X151150Y628250D02*X151900Y627500D01*
X151150Y629750D02*Y628250D01*
Y629750D02*X151900Y630500D01*
X153400D01*
X154150Y629750D01*
X157450Y630500D02*Y629750D01*
Y628250D02*Y627500D01*
X155950Y632750D02*Y632000D01*
Y632750D02*X156700Y633500D01*
X158200D01*
X158950Y632750D01*
Y632000D01*
X157450Y630500D02*X158950Y632000D01*
X130000Y625750D02*X160750D01*
X0Y648500D02*X3000D01*
X1500D02*Y642500D01*
X4800Y648500D02*Y642500D01*
Y644750D02*X5550Y645500D01*
X7050D01*
X7800Y644750D01*
Y642500D01*
X10350D02*X12600D01*
X9600Y643250D02*X10350Y642500D01*
X9600Y644750D02*Y643250D01*
Y644750D02*X10350Y645500D01*
X11850D01*
X12600Y644750D01*
X9600Y644000D02*X12600D01*
Y644750D02*Y644000D01*
X15150Y644750D02*Y642500D01*
Y644750D02*X15900Y645500D01*
X17400D01*
X14400D02*X15150Y644750D01*
X19950Y642500D02*X22200D01*
X19200Y643250D02*X19950Y642500D01*
X19200Y644750D02*Y643250D01*
Y644750D02*X19950Y645500D01*
X21450D01*
X22200Y644750D01*
X19200Y644000D02*X22200D01*
Y644750D02*Y644000D01*
X28950Y645500D02*X29700Y644750D01*
X27450Y645500D02*X28950D01*
X26700Y644750D02*X27450Y645500D01*
X26700Y644750D02*Y643250D01*
X27450Y642500D01*
X29700Y645500D02*Y643250D01*
X30450Y642500D01*
X27450D02*X28950D01*
X29700Y643250D01*
X33000Y644750D02*Y642500D01*
Y644750D02*X33750Y645500D01*
X35250D01*
X32250D02*X33000Y644750D01*
X37800Y642500D02*X40050D01*
X37050Y643250D02*X37800Y642500D01*
X37050Y644750D02*Y643250D01*
Y644750D02*X37800Y645500D01*
X39300D01*
X40050Y644750D01*
X37050Y644000D02*X40050D01*
Y644750D02*Y644000D01*
X44550Y643250D02*X45300Y642500D01*
X44550Y644450D02*Y643250D01*
Y644450D02*X45600Y645500D01*
X46500D01*
X47550Y644450D01*
Y643250D01*
X46800Y642500D02*X47550Y643250D01*
X45300Y642500D02*X46800D01*
X44550Y646550D02*X45600Y645500D01*
X44550Y647750D02*Y646550D01*
Y647750D02*X45300Y648500D01*
X46800D01*
X47550Y647750D01*
Y646550D01*
X46500Y645500D02*X47550Y646550D01*
X55050Y648500D02*Y642500D01*
X54300D02*X55050Y643250D01*
X52800Y642500D02*X54300D01*
X52050Y643250D02*X52800Y642500D01*
X52050Y644750D02*Y643250D01*
Y644750D02*X52800Y645500D01*
X54300D01*
X55050Y644750D01*
G54D102*X56850Y647000D02*Y646850D01*
G54D101*Y644750D02*Y642500D01*
X59100Y647750D02*Y642500D01*
Y647750D02*X59850Y648500D01*
X60600D01*
X58350Y645500D02*X59850D01*
X62850Y647750D02*Y642500D01*
Y647750D02*X63600Y648500D01*
X64350D01*
X62100Y645500D02*X63600D01*
X66600Y642500D02*X68850D01*
X65850Y643250D02*X66600Y642500D01*
X65850Y644750D02*Y643250D01*
Y644750D02*X66600Y645500D01*
X68100D01*
X68850Y644750D01*
X65850Y644000D02*X68850D01*
Y644750D02*Y644000D01*
X71400Y644750D02*Y642500D01*
Y644750D02*X72150Y645500D01*
X73650D01*
X70650D02*X71400Y644750D01*
X76200Y642500D02*X78450D01*
X75450Y643250D02*X76200Y642500D01*
X75450Y644750D02*Y643250D01*
Y644750D02*X76200Y645500D01*
X77700D01*
X78450Y644750D01*
X75450Y644000D02*X78450D01*
Y644750D02*Y644000D01*
X81000Y644750D02*Y642500D01*
Y644750D02*X81750Y645500D01*
X82500D01*
X83250Y644750D01*
Y642500D01*
X80250Y645500D02*X81000Y644750D01*
X85800Y648500D02*Y643250D01*
X86550Y642500D01*
X85050Y646250D02*X86550D01*
X93750Y648500D02*Y642500D01*
X93000D02*X93750Y643250D01*
X91500Y642500D02*X93000D01*
X90750Y643250D02*X91500Y642500D01*
X90750Y644750D02*Y643250D01*
Y644750D02*X91500Y645500D01*
X93000D01*
X93750Y644750D01*
X96300D02*Y642500D01*
Y644750D02*X97050Y645500D01*
X98550D01*
X95550D02*X96300Y644750D01*
G54D102*X100350Y647000D02*Y646850D01*
G54D101*Y644750D02*Y642500D01*
X101850Y648500D02*Y643250D01*
X102600Y642500D01*
X104100Y648500D02*Y643250D01*
X104850Y642500D01*
X109800D02*X112050D01*
X112800Y643250D01*
X112050Y644000D02*X112800Y643250D01*
X109800Y644000D02*X112050D01*
X109050Y644750D02*X109800Y644000D01*
X109050Y644750D02*X109800Y645500D01*
X112050D01*
X112800Y644750D01*
X109050Y643250D02*X109800Y642500D01*
G54D102*X114600Y647000D02*Y646850D01*
G54D101*Y644750D02*Y642500D01*
X116100Y645500D02*X119100D01*
X116100Y642500D02*X119100Y645500D01*
X116100Y642500D02*X119100D01*
X121650D02*X123900D01*
X120900Y643250D02*X121650Y642500D01*
X120900Y644750D02*Y643250D01*
Y644750D02*X121650Y645500D01*
X123150D01*
X123900Y644750D01*
X120900Y644000D02*X123900D01*
Y644750D02*Y644000D01*
X126450Y642500D02*X128700D01*
X129450Y643250D01*
X128700Y644000D02*X129450Y643250D01*
X126450Y644000D02*X128700D01*
X125700Y644750D02*X126450Y644000D01*
X125700Y644750D02*X126450Y645500D01*
X128700D01*
X129450Y644750D01*
X125700Y643250D02*X126450Y642500D01*
X133950Y645500D02*Y643250D01*
X134700Y642500D01*
X136200D01*
X136950Y643250D01*
Y645500D02*Y643250D01*
X139500Y642500D02*X141750D01*
X142500Y643250D01*
X141750Y644000D02*X142500Y643250D01*
X139500Y644000D02*X141750D01*
X138750Y644750D02*X139500Y644000D01*
X138750Y644750D02*X139500Y645500D01*
X141750D01*
X142500Y644750D01*
X138750Y643250D02*X139500Y642500D01*
X145050D02*X147300D01*
X144300Y643250D02*X145050Y642500D01*
X144300Y644750D02*Y643250D01*
Y644750D02*X145050Y645500D01*
X146550D01*
X147300Y644750D01*
X144300Y644000D02*X147300D01*
Y644750D02*Y644000D01*
X152100Y648500D02*Y642500D01*
X151350D02*X152100Y643250D01*
X149850Y642500D02*X151350D01*
X149100Y643250D02*X149850Y642500D01*
X149100Y644750D02*Y643250D01*
Y644750D02*X149850Y645500D01*
X151350D01*
X152100Y644750D01*
G54D102*X156600Y647000D02*Y646850D01*
G54D101*Y644750D02*Y642500D01*
X158850Y644750D02*Y642500D01*
Y644750D02*X159600Y645500D01*
X160350D01*
X161100Y644750D01*
Y642500D01*
X158100Y645500D02*X158850Y644750D01*
X166350Y648500D02*Y643250D01*
X167100Y642500D01*
X165600Y646250D02*X167100D01*
X168600Y648500D02*Y642500D01*
Y644750D02*X169350Y645500D01*
X170850D01*
X171600Y644750D01*
Y642500D01*
G54D102*X173400Y647000D02*Y646850D01*
G54D101*Y644750D02*Y642500D01*
X175650D02*X177900D01*
X178650Y643250D01*
X177900Y644000D02*X178650Y643250D01*
X175650Y644000D02*X177900D01*
X174900Y644750D02*X175650Y644000D01*
X174900Y644750D02*X175650Y645500D01*
X177900D01*
X178650Y644750D01*
X174900Y643250D02*X175650Y642500D01*
X183150Y648500D02*Y643250D01*
X183900Y642500D01*
X187650Y645500D02*X188400Y644750D01*
X186150Y645500D02*X187650D01*
X185400Y644750D02*X186150Y645500D01*
X185400Y644750D02*Y643250D01*
X186150Y642500D01*
X188400Y645500D02*Y643250D01*
X189150Y642500D01*
X186150D02*X187650D01*
X188400Y643250D01*
X190950Y645500D02*Y643250D01*
X191700Y642500D01*
X193950Y645500D02*Y641000D01*
X193200Y640250D02*X193950Y641000D01*
X191700Y640250D02*X193200D01*
X190950Y641000D02*X191700Y640250D01*
Y642500D02*X193200D01*
X193950Y643250D01*
X195750Y644750D02*Y643250D01*
Y644750D02*X196500Y645500D01*
X198000D01*
X198750Y644750D01*
Y643250D01*
X198000Y642500D02*X198750Y643250D01*
X196500Y642500D02*X198000D01*
X195750Y643250D02*X196500Y642500D01*
X200550Y645500D02*Y643250D01*
X201300Y642500D01*
X202800D01*
X203550Y643250D01*
Y645500D02*Y643250D01*
X206100Y648500D02*Y643250D01*
X206850Y642500D01*
X205350Y646250D02*X206850D01*
X208350Y641000D02*X209850Y642500D01*
X214350Y644750D02*X217350Y648500D01*
X214350Y644750D02*X218100D01*
X217350Y648500D02*Y642500D01*
X220650D02*X222900Y645500D01*
Y647750D02*Y645500D01*
X222150Y648500D02*X222900Y647750D01*
X220650Y648500D02*X222150D01*
X219900Y647750D02*X220650Y648500D01*
X219900Y647750D02*Y646250D01*
X220650Y645500D01*
X222900D01*
X227400Y648500D02*Y642500D01*
Y644750D02*X228150Y645500D01*
X229650D01*
X230400Y644750D01*
Y642500D01*
X232200Y644750D02*Y643250D01*
Y644750D02*X232950Y645500D01*
X234450D01*
X235200Y644750D01*
Y643250D01*
X234450Y642500D02*X235200Y643250D01*
X232950Y642500D02*X234450D01*
X232200Y643250D02*X232950Y642500D01*
X237000Y648500D02*Y643250D01*
X237750Y642500D01*
X240000D02*X242250D01*
X239250Y643250D02*X240000Y642500D01*
X239250Y644750D02*Y643250D01*
Y644750D02*X240000Y645500D01*
X241500D01*
X242250Y644750D01*
X239250Y644000D02*X242250D01*
Y644750D02*Y644000D01*
X244800Y642500D02*X247050D01*
X247800Y643250D01*
X247050Y644000D02*X247800Y643250D01*
X244800Y644000D02*X247050D01*
X244050Y644750D02*X244800Y644000D01*
X244050Y644750D02*X244800Y645500D01*
X247050D01*
X247800Y644750D01*
X244050Y643250D02*X244800Y642500D01*
X253050Y648500D02*Y643250D01*
X253800Y642500D01*
X252300Y646250D02*X253800D01*
X255300Y644750D02*Y643250D01*
Y644750D02*X256050Y645500D01*
X257550D01*
X258300Y644750D01*
Y643250D01*
X257550Y642500D02*X258300Y643250D01*
X256050Y642500D02*X257550D01*
X255300Y643250D02*X256050Y642500D01*
X260850Y648500D02*Y643250D01*
X261600Y642500D01*
X260100Y646250D02*X261600D01*
X265350Y645500D02*X266100Y644750D01*
X263850Y645500D02*X265350D01*
X263100Y644750D02*X263850Y645500D01*
X263100Y644750D02*Y643250D01*
X263850Y642500D01*
X266100Y645500D02*Y643250D01*
X266850Y642500D01*
X263850D02*X265350D01*
X266100Y643250D01*
X268650Y648500D02*Y643250D01*
X269400Y642500D01*
G54D103*X197000Y171660D02*X326000D01*
X346000Y191660D02*Y225660D01*
X389000Y268660D02*Y397660D01*
X197000Y393660D02*Y171660D01*
X214000Y410660D02*X376000D01*
X389000Y397660D02*G75*G03X376000Y410660I-13000J0D01*G01*
X326000Y171660D02*G75*G03X346000Y191660I0J20000D01*G01*
X371000Y250660D02*G75*G03X389000Y268660I0J18000D01*G01*
X346000Y225660D02*G75*G02X371000Y250660I25000J0D01*G01*
X214000Y410660D02*G75*G03X197000Y393660I0J-17000D01*G01*
G54D101*X163675Y-9500D02*X166675D01*
X167425Y-8750D01*
Y-6950D02*Y-8750D01*
X166675Y-6200D02*X167425Y-6950D01*
X164425Y-6200D02*X166675D01*
X164425Y-3500D02*Y-9500D01*
X163675Y-3500D02*X166675D01*
X167425Y-4250D01*
Y-5450D01*
X166675Y-6200D02*X167425Y-5450D01*
X169225Y-7250D02*Y-8750D01*
Y-7250D02*X169975Y-6500D01*
X171475D01*
X172225Y-7250D01*
Y-8750D01*
X171475Y-9500D02*X172225Y-8750D01*
X169975Y-9500D02*X171475D01*
X169225Y-8750D02*X169975Y-9500D01*
X176275Y-6500D02*X177025Y-7250D01*
X174775Y-6500D02*X176275D01*
X174025Y-7250D02*X174775Y-6500D01*
X174025Y-7250D02*Y-8750D01*
X174775Y-9500D01*
X177025Y-6500D02*Y-8750D01*
X177775Y-9500D01*
X174775D02*X176275D01*
X177025Y-8750D01*
X180325Y-7250D02*Y-9500D01*
Y-7250D02*X181075Y-6500D01*
X182575D01*
X179575D02*X180325Y-7250D01*
X187375Y-3500D02*Y-9500D01*
X186625D02*X187375Y-8750D01*
X185125Y-9500D02*X186625D01*
X184375Y-8750D02*X185125Y-9500D01*
X184375Y-7250D02*Y-8750D01*
Y-7250D02*X185125Y-6500D01*
X186625D01*
X187375Y-7250D01*
X191875D02*Y-8750D01*
Y-7250D02*X192625Y-6500D01*
X194125D01*
X194875Y-7250D01*
Y-8750D01*
X194125Y-9500D02*X194875Y-8750D01*
X192625Y-9500D02*X194125D01*
X191875Y-8750D02*X192625Y-9500D01*
X196675Y-6500D02*Y-8750D01*
X197425Y-9500D01*
X198925D01*
X199675Y-8750D01*
Y-6500D02*Y-8750D01*
X202225Y-3500D02*Y-8750D01*
X202975Y-9500D01*
X201475Y-5750D02*X202975D01*
X204475Y-3500D02*Y-8750D01*
X205225Y-9500D01*
G54D102*X206725Y-5000D02*Y-5150D01*
G54D101*Y-7250D02*Y-9500D01*
X208975Y-7250D02*Y-9500D01*
Y-7250D02*X209725Y-6500D01*
X210475D01*
X211225Y-7250D01*
Y-9500D01*
X208225Y-6500D02*X208975Y-7250D01*
X213775Y-9500D02*X216025D01*
X213025Y-8750D02*X213775Y-9500D01*
X213025Y-7250D02*Y-8750D01*
Y-7250D02*X213775Y-6500D01*
X215275D01*
X216025Y-7250D01*
X213025Y-8000D02*X216025D01*
Y-7250D02*Y-8000D01*
G54D102*X220525Y-5000D02*Y-5150D01*
G54D101*Y-7250D02*Y-9500D01*
X222775D02*X225025D01*
X225775Y-8750D01*
X225025Y-8000D02*X225775Y-8750D01*
X222775Y-8000D02*X225025D01*
X222025Y-7250D02*X222775Y-8000D01*
X222025Y-7250D02*X222775Y-6500D01*
X225025D01*
X225775Y-7250D01*
X222025Y-8750D02*X222775Y-9500D01*
X231025Y-3500D02*Y-8750D01*
X231775Y-9500D01*
X230275Y-5750D02*X231775D01*
X233275Y-3500D02*Y-9500D01*
Y-7250D02*X234025Y-6500D01*
X235525D01*
X236275Y-7250D01*
Y-9500D01*
X238825D02*X241075D01*
X238075Y-8750D02*X238825Y-9500D01*
X238075Y-7250D02*Y-8750D01*
Y-7250D02*X238825Y-6500D01*
X240325D01*
X241075Y-7250D01*
X238075Y-8000D02*X241075D01*
Y-7250D02*Y-8000D01*
X246325Y-6500D02*X248575D01*
X245575Y-7250D02*X246325Y-6500D01*
X245575Y-7250D02*Y-8750D01*
X246325Y-9500D01*
X248575D01*
X251125D02*X253375D01*
X250375Y-8750D02*X251125Y-9500D01*
X250375Y-7250D02*Y-8750D01*
Y-7250D02*X251125Y-6500D01*
X252625D01*
X253375Y-7250D01*
X250375Y-8000D02*X253375D01*
Y-7250D02*Y-8000D01*
X255925Y-7250D02*Y-9500D01*
Y-7250D02*X256675Y-6500D01*
X257425D01*
X258175Y-7250D01*
Y-9500D01*
X255175Y-6500D02*X255925Y-7250D01*
X260725Y-3500D02*Y-8750D01*
X261475Y-9500D01*
X259975Y-5750D02*X261475D01*
X263725Y-9500D02*X265975D01*
X262975Y-8750D02*X263725Y-9500D01*
X262975Y-7250D02*Y-8750D01*
Y-7250D02*X263725Y-6500D01*
X265225D01*
X265975Y-7250D01*
X262975Y-8000D02*X265975D01*
Y-7250D02*Y-8000D01*
X268525Y-7250D02*Y-9500D01*
Y-7250D02*X269275Y-6500D01*
X270775D01*
X267775D02*X268525Y-7250D01*
X272575Y-3500D02*Y-8750D01*
X273325Y-9500D01*
G54D102*X274825Y-5000D02*Y-5150D01*
G54D101*Y-7250D02*Y-9500D01*
X277075Y-7250D02*Y-9500D01*
Y-7250D02*X277825Y-6500D01*
X278575D01*
X279325Y-7250D01*
Y-9500D01*
X276325Y-6500D02*X277075Y-7250D01*
X281875Y-9500D02*X284125D01*
X281125Y-8750D02*X281875Y-9500D01*
X281125Y-7250D02*Y-8750D01*
Y-7250D02*X281875Y-6500D01*
X283375D01*
X284125Y-7250D01*
X281125Y-8000D02*X284125D01*
Y-7250D02*Y-8000D01*
X288625Y-7250D02*Y-8750D01*
Y-7250D02*X289375Y-6500D01*
X290875D01*
X291625Y-7250D01*
Y-8750D01*
X290875Y-9500D02*X291625Y-8750D01*
X289375Y-9500D02*X290875D01*
X288625Y-8750D02*X289375Y-9500D01*
X294175Y-4250D02*Y-9500D01*
Y-4250D02*X294925Y-3500D01*
X295675D01*
X293425Y-6500D02*X294925D01*
X300625Y-3500D02*Y-8750D01*
X301375Y-9500D01*
X299875Y-5750D02*X301375D01*
X302875Y-3500D02*Y-9500D01*
Y-7250D02*X303625Y-6500D01*
X305125D01*
X305875Y-7250D01*
Y-9500D01*
G54D102*X307675Y-5000D02*Y-5150D01*
G54D101*Y-7250D02*Y-9500D01*
X309925D02*X312175D01*
X312925Y-8750D01*
X312175Y-8000D02*X312925Y-8750D01*
X309925Y-8000D02*X312175D01*
X309175Y-7250D02*X309925Y-8000D01*
X309175Y-7250D02*X309925Y-6500D01*
X312175D01*
X312925Y-7250D01*
X309175Y-8750D02*X309925Y-9500D01*
X318175Y-7250D02*Y-11750D01*
X317425Y-6500D02*X318175Y-7250D01*
X318925Y-6500D01*
X320425D01*
X321175Y-7250D01*
Y-8750D01*
X320425Y-9500D02*X321175Y-8750D01*
X318925Y-9500D02*X320425D01*
X318175Y-8750D02*X318925Y-9500D01*
X325225Y-6500D02*X325975Y-7250D01*
X323725Y-6500D02*X325225D01*
X322975Y-7250D02*X323725Y-6500D01*
X322975Y-7250D02*Y-8750D01*
X323725Y-9500D01*
X325975Y-6500D02*Y-8750D01*
X326725Y-9500D01*
X323725D02*X325225D01*
X325975Y-8750D01*
X329275Y-3500D02*Y-8750D01*
X330025Y-9500D01*
X328525Y-5750D02*X330025D01*
X331525Y-3500D02*Y-9500D01*
Y-7250D02*X332275Y-6500D01*
X333775D01*
X334525Y-7250D01*
Y-9500D01*
X200750Y528500D02*Y522500D01*
X202700Y528500D02*X203750Y527450D01*
Y523550D01*
X202700Y522500D02*X203750Y523550D01*
X200000Y522500D02*X202700D01*
X200000Y528500D02*X202700D01*
X207800Y525500D02*X208550Y524750D01*
X206300Y525500D02*X207800D01*
X205550Y524750D02*X206300Y525500D01*
X205550Y524750D02*Y523250D01*
X206300Y522500D01*
X208550Y525500D02*Y523250D01*
X209300Y522500D01*
X206300D02*X207800D01*
X208550Y523250D01*
X211850Y528500D02*Y523250D01*
X212600Y522500D01*
X211100Y526250D02*X212600D01*
X214850Y522500D02*X217100D01*
X214100Y523250D02*X214850Y522500D01*
X214100Y524750D02*Y523250D01*
Y524750D02*X214850Y525500D01*
X216350D01*
X217100Y524750D01*
X214100Y524000D02*X217100D01*
Y524750D02*Y524000D01*
X218900Y526250D02*X219650D01*
X218900Y524750D02*X219650D01*
X224150Y527750D02*X224900Y528500D01*
X227150D01*
X227900Y527750D01*
Y526250D01*
X224150Y522500D02*X227900Y526250D01*
X224150Y522500D02*X227900D01*
X229700Y523250D02*X230450Y522500D01*
X229700Y527750D02*Y523250D01*
Y527750D02*X230450Y528500D01*
X231950D01*
X232700Y527750D01*
Y523250D01*
X231950Y522500D02*X232700Y523250D01*
X230450Y522500D02*X231950D01*
X229700Y524000D02*X232700Y527000D01*
X234500Y527300D02*X235700Y528500D01*
Y522500D01*
X234500D02*X236750D01*
X238550Y523250D02*X239300Y522500D01*
X238550Y524450D02*Y523250D01*
Y524450D02*X239600Y525500D01*
X240500D01*
X241550Y524450D01*
Y523250D01*
X240800Y522500D02*X241550Y523250D01*
X239300Y522500D02*X240800D01*
X238550Y526550D02*X239600Y525500D01*
X238550Y527750D02*Y526550D01*
Y527750D02*X239300Y528500D01*
X240800D01*
X241550Y527750D01*
Y526550D01*
X240500Y525500D02*X241550Y526550D01*
X243350Y525500D02*X246350D01*
X248150Y523250D02*X248900Y522500D01*
X248150Y527750D02*Y523250D01*
Y527750D02*X248900Y528500D01*
X250400D01*
X251150Y527750D01*
Y523250D01*
X250400Y522500D02*X251150Y523250D01*
X248900Y522500D02*X250400D01*
X248150Y524000D02*X251150Y527000D01*
X255200Y528500D02*X255950Y527750D01*
X253700Y528500D02*X255200D01*
X252950Y527750D02*X253700Y528500D01*
X252950Y527750D02*Y523250D01*
X253700Y522500D01*
X255200Y525800D02*X255950Y525050D01*
X252950Y525800D02*X255200D01*
X253700Y522500D02*X255200D01*
X255950Y523250D01*
Y525050D02*Y523250D01*
X257750Y525500D02*X260750D01*
X262550Y523250D02*X263300Y522500D01*
X262550Y527750D02*Y523250D01*
Y527750D02*X263300Y528500D01*
X264800D01*
X265550Y527750D01*
Y523250D01*
X264800Y522500D02*X265550Y523250D01*
X263300Y522500D02*X264800D01*
X262550Y524000D02*X265550Y527000D01*
X269600Y528500D02*X270350Y527750D01*
X268100Y528500D02*X269600D01*
X267350Y527750D02*X268100Y528500D01*
X267350Y527750D02*Y523250D01*
X268100Y522500D01*
X269600Y525800D02*X270350Y525050D01*
X267350Y525800D02*X269600D01*
X268100Y522500D02*X269600D01*
X270350Y523250D01*
Y525050D02*Y523250D01*
X274850Y527300D02*X276050Y528500D01*
Y522500D01*
X274850D02*X277100D01*
X278900Y528500D02*X281900D01*
X278900D02*Y525500D01*
X279650Y526250D01*
X281150D01*
X281900Y525500D01*
Y523250D01*
X281150Y522500D02*X281900Y523250D01*
X279650Y522500D02*X281150D01*
X278900Y523250D02*X279650Y522500D01*
X283700Y526250D02*X284450D01*
X283700Y524750D02*X284450D01*
X286250Y527300D02*X287450Y528500D01*
Y522500D01*
X286250D02*X288500D01*
X290300Y528500D02*X293300D01*
X290300D02*Y525500D01*
X291050Y526250D01*
X292550D01*
X293300Y525500D01*
Y523250D01*
X292550Y522500D02*X293300Y523250D01*
X291050Y522500D02*X292550D01*
X290300Y523250D02*X291050Y522500D01*
X295100Y526250D02*X295850D01*
X295100Y524750D02*X295850D01*
X297650Y527300D02*X298850Y528500D01*
Y522500D01*
X297650D02*X299900D01*
X301700Y527750D02*X302450Y528500D01*
X303950D01*
X304700Y527750D01*
X303950Y522500D02*X304700Y523250D01*
X302450Y522500D02*X303950D01*
X301700Y523250D02*X302450Y522500D01*
Y525800D02*X303950D01*
X304700Y527750D02*Y526550D01*
Y525050D02*Y523250D01*
Y525050D02*X303950Y525800D01*
X304700Y526550D02*X303950Y525800D01*
X309200Y528500D02*Y523250D01*
X309950Y522500D01*
X311450D01*
X312200Y523250D01*
Y528500D02*Y523250D01*
X314000Y528500D02*X317000D01*
X315500D02*Y522500D01*
X319850D02*X321800D01*
X318800Y523550D02*X319850Y522500D01*
X318800Y527450D02*Y523550D01*
Y527450D02*X319850Y528500D01*
X321800D01*
X200000Y542000D02*Y537500D01*
Y542000D02*X201050Y543500D01*
X202700D01*
X203750Y542000D01*
Y537500D01*
X200000Y540500D02*X203750D01*
X205550D02*Y538250D01*
X206300Y537500D01*
X207800D01*
X208550Y538250D01*
Y540500D02*Y538250D01*
X211100Y543500D02*Y538250D01*
X211850Y537500D01*
X210350Y541250D02*X211850D01*
X213350Y543500D02*Y537500D01*
Y539750D02*X214100Y540500D01*
X215600D01*
X216350Y539750D01*
Y537500D01*
X218150Y539750D02*Y538250D01*
Y539750D02*X218900Y540500D01*
X220400D01*
X221150Y539750D01*
Y538250D01*
X220400Y537500D02*X221150Y538250D01*
X218900Y537500D02*X220400D01*
X218150Y538250D02*X218900Y537500D01*
X223700Y539750D02*Y537500D01*
Y539750D02*X224450Y540500D01*
X225950D01*
X222950D02*X223700Y539750D01*
X227750Y541250D02*X228500D01*
X227750Y539750D02*X228500D01*
X200000Y558500D02*X203000D01*
X201500D02*Y552500D01*
G54D102*X204800Y557000D02*Y556850D01*
G54D101*Y554750D02*Y552500D01*
X207050Y558500D02*Y553250D01*
X207800Y552500D01*
X206300Y556250D02*X207800D01*
X209300Y558500D02*Y553250D01*
X210050Y552500D01*
X212300D02*X214550D01*
X211550Y553250D02*X212300Y552500D01*
X211550Y554750D02*Y553250D01*
Y554750D02*X212300Y555500D01*
X213800D01*
X214550Y554750D01*
X211550Y554000D02*X214550D01*
Y554750D02*Y554000D01*
X216350Y556250D02*X217100D01*
X216350Y554750D02*X217100D01*
X221600Y553250D02*X222350Y552500D01*
X221600Y557750D02*X222350Y558500D01*
X221600Y557750D02*Y553250D01*
X224150Y555500D02*Y553250D01*
X224900Y552500D01*
X226400D01*
X227150Y553250D01*
Y555500D02*Y553250D01*
X229700Y554750D02*Y552500D01*
Y554750D02*X230450Y555500D01*
X231200D01*
X231950Y554750D01*
Y552500D01*
X228950Y555500D02*X229700Y554750D01*
X233750Y558500D02*Y552500D01*
Y554750D02*X236000Y552500D01*
X233750Y554750D02*X235250Y556250D01*
X238550Y554750D02*Y552500D01*
Y554750D02*X239300Y555500D01*
X240050D01*
X240800Y554750D01*
Y552500D01*
X237800Y555500D02*X238550Y554750D01*
X242600D02*Y553250D01*
Y554750D02*X243350Y555500D01*
X244850D01*
X245600Y554750D01*
Y553250D01*
X244850Y552500D02*X245600Y553250D01*
X243350Y552500D02*X244850D01*
X242600Y553250D02*X243350Y552500D01*
X247400Y555500D02*Y553250D01*
X248150Y552500D01*
X248900D01*
X249650Y553250D01*
Y555500D02*Y553250D01*
X250400Y552500D01*
X251150D01*
X251900Y553250D01*
Y555500D02*Y553250D01*
X254450Y554750D02*Y552500D01*
Y554750D02*X255200Y555500D01*
X255950D01*
X256700Y554750D01*
Y552500D01*
X253700Y555500D02*X254450Y554750D01*
X258500Y558500D02*X259250Y557750D01*
Y553250D01*
X258500Y552500D02*X259250Y553250D01*
X263750Y555500D02*X266750D01*
X271250Y558500D02*Y552500D01*
Y558500D02*X274250D01*
X271250Y555800D02*X273500D01*
X278300Y555500D02*X279050Y554750D01*
X276800Y555500D02*X278300D01*
X276050Y554750D02*X276800Y555500D01*
X276050Y554750D02*Y553250D01*
X276800Y552500D01*
X279050Y555500D02*Y553250D01*
X279800Y552500D01*
X276800D02*X278300D01*
X279050Y553250D01*
X281600Y558500D02*Y552500D01*
Y553250D02*X282350Y552500D01*
X283850D01*
X284600Y553250D01*
Y554750D02*Y553250D01*
X283850Y555500D02*X284600Y554750D01*
X282350Y555500D02*X283850D01*
X281600Y554750D02*X282350Y555500D01*
X287150Y554750D02*Y552500D01*
Y554750D02*X287900Y555500D01*
X289400D01*
X286400D02*X287150Y554750D01*
G54D102*X291200Y557000D02*Y556850D01*
G54D101*Y554750D02*Y552500D01*
X293450Y555500D02*X295700D01*
X292700Y554750D02*X293450Y555500D01*
X292700Y554750D02*Y553250D01*
X293450Y552500D01*
X295700D01*
X299750Y555500D02*X300500Y554750D01*
X298250Y555500D02*X299750D01*
X297500Y554750D02*X298250Y555500D01*
X297500Y554750D02*Y553250D01*
X298250Y552500D01*
X300500Y555500D02*Y553250D01*
X301250Y552500D01*
X298250D02*X299750D01*
X300500Y553250D01*
X303800Y558500D02*Y553250D01*
X304550Y552500D01*
X303050Y556250D02*X304550D01*
G54D102*X306050Y557000D02*Y556850D01*
G54D101*Y554750D02*Y552500D01*
X307550Y554750D02*Y553250D01*
Y554750D02*X308300Y555500D01*
X309800D01*
X310550Y554750D01*
Y553250D01*
X309800Y552500D02*X310550Y553250D01*
X308300Y552500D02*X309800D01*
X307550Y553250D02*X308300Y552500D01*
X313100Y554750D02*Y552500D01*
Y554750D02*X313850Y555500D01*
X314600D01*
X315350Y554750D01*
Y552500D01*
X312350Y555500D02*X313100Y554750D01*
X320600Y558500D02*Y552500D01*
X322550Y558500D02*X323600Y557450D01*
Y553550D01*
X322550Y552500D02*X323600Y553550D01*
X319850Y552500D02*X322550D01*
X319850Y558500D02*X322550D01*
X326150Y554750D02*Y552500D01*
Y554750D02*X326900Y555500D01*
X328400D01*
X325400D02*X326150Y554750D01*
X332450Y555500D02*X333200Y554750D01*
X330950Y555500D02*X332450D01*
X330200Y554750D02*X330950Y555500D01*
X330200Y554750D02*Y553250D01*
X330950Y552500D01*
X333200Y555500D02*Y553250D01*
X333950Y552500D01*
X330950D02*X332450D01*
X333200Y553250D01*
X335750Y555500D02*Y553250D01*
X336500Y552500D01*
X337250D01*
X338000Y553250D01*
Y555500D02*Y553250D01*
X338750Y552500D01*
X339500D01*
X340250Y553250D01*
Y555500D02*Y553250D01*
G54D102*X342050Y557000D02*Y556850D01*
G54D101*Y554750D02*Y552500D01*
X344300Y554750D02*Y552500D01*
Y554750D02*X345050Y555500D01*
X345800D01*
X346550Y554750D01*
Y552500D01*
X343550Y555500D02*X344300Y554750D01*
X350600Y555500D02*X351350Y554750D01*
X349100Y555500D02*X350600D01*
X348350Y554750D02*X349100Y555500D01*
X348350Y554750D02*Y553250D01*
X349100Y552500D01*
X350600D01*
X351350Y553250D01*
X348350Y551000D02*X349100Y550250D01*
X350600D01*
X351350Y551000D01*
Y555500D02*Y551000D01*
M02*
