M48
INCH
T80C0.060
T79C0.073
T78C0.032
T77C0.079
T76C0.042
T75C0.040
T74C0.039
T73C0.047
%
T78
X021950Y036016
X022950Y036016
T74
X026600Y030166
X024000Y032666
X024900Y027666
X028000Y032666
X029900Y034066
X030600Y027666
X030600Y030166
X020900Y033366
X029900Y033066
X037300Y039916
X037300Y029916
X020900Y029366
X034600Y027666
X020900Y027666
X032000Y022566
X031000Y022566
T75
X025900Y024766
X026900Y024766
X023900Y024766
X024900Y024766
X027900Y024766
X028900Y024766
X020900Y024766
X021900Y024766
X022900Y024766
T76
X022900Y022027
X025900Y022027
X024900Y022027
X023900Y022027
X021900Y022027
X020900Y022027
X028900Y022027
X027900Y022027
X026900Y022027
T73
X023100Y029066
X026500Y036066
X023100Y031266
T80
X028288Y038800
X027288Y039800
X029288Y039800
T79
X032950Y033600
X032950Y035100
X032950Y032100
X033950Y040100
X031950Y040100
T77
X020950Y038016
X024950Y038016
M30
