G04 start of page 10 for group 1 layer_idx 8 *
G04 Title: (unknown), top_silk *
G04 Creator: pcb-rnd 2.0.0 *
G04 CreationDate: 2018-06-06 15:15:13 UTC *
G04 For:  *
G04 Format: Gerber/RS-274X *
G04 PCB-Dimensions: 500000 500000 *
G04 PCB-Coordinate-Origin: lower left *
%MOIN*%
%FSLAX25Y25*%
%LNTOPSILK*%
%ADD98C,0.0070*%
%ADD97C,0.0150*%
%ADD96C,0.0300*%
%ADD95C,0.0200*%
%ADD94C,0.0100*%
%ADD93C,0.0400*%
G54D93*X269001Y186073D02*Y183873D01*
X259001Y186073D02*Y183873D01*
G54D94*X245501Y177573D02*X289001D01*
G54D93*X269001Y176073D02*Y172873D01*
X259001Y176073D02*Y172873D01*
X249001Y176073D02*Y172873D01*
X279001Y186073D02*Y183873D01*
Y176073D02*Y172873D01*
X289001Y176073D02*Y172873D01*
X239001Y186073D02*Y183873D01*
X229001Y186073D02*Y183873D01*
X239001Y176073D02*Y172873D01*
X229001Y176073D02*Y172873D01*
X209001Y176073D02*Y172873D01*
G54D94*Y177573D02*X242501D01*
G54D93*X219001Y186073D02*Y183873D01*
Y176073D02*Y172873D01*
G54D95*X262880Y410000D02*X302880D01*
X262880D02*X302880D01*
Y404000D02*X262880D01*
G54D94*X275880Y410000D02*Y404000D01*
X289880Y410000D02*Y404000D01*
G54D95*X262880Y392000D02*Y410000D01*
Y404000D02*Y410000D01*
G54D96*X282880Y388000D02*Y392000D01*
G54D95*X302880Y410000D02*Y392000D01*
X262880D01*
X302880Y410000D02*Y404000D01*
G54D94*X270000Y326660D02*X280000D01*
X265000Y329993D02*X268333Y323327D01*
X270000Y326660D01*
X266000Y301660D02*X276000D01*
X277666Y304993D01*
X281000Y298327D01*
X294001Y209773D02*Y197273D01*
X289001D02*X294001D01*
X282501D02*X285501D01*
G54D93*X289001Y204073D02*Y201873D01*
G54D94*X281000Y298327D02*X282666Y301660D01*
X284333Y304993D01*
X287666Y298327D01*
X289333Y301660D01*
X291000Y304993D01*
X294333Y298327D01*
X289001Y197273D02*Y177573D01*
G54D93*Y186073D02*Y183873D01*
Y195073D02*Y192873D01*
Y220273D02*Y211773D01*
G54D94*X289000Y253860D02*Y259860D01*
X294000D02*Y234860D01*
X332666Y283326D02*X319333Y276660D01*
X332666Y269994D02*X319333Y276660D01*
Y283326D02*Y269994D01*
X306000Y276660D02*X319333D01*
X332666D02*X346000D01*
X332666Y283326D02*Y269994D01*
X296000Y301660D02*X306000D01*
X294333Y298327D02*X296000Y301660D01*
G54D97*X290251Y196973D02*Y175873D01*
G54D94*X317000Y436000D02*X342000D01*
X319500Y481000D02*X339500D01*
X319500D02*X324500Y436000D01*
X339500Y481000D02*X334500Y436000D01*
X317000D02*Y401000D01*
X342000Y423500D02*X317000Y420000D01*
X342000Y421000D02*X317000Y417500D01*
X342000Y411000D02*X327800Y409000D01*
X317000Y435000D02*X324200Y436000D01*
X342000Y418500D02*X317000Y415000D01*
X342000Y416000D02*X317000Y412500D01*
X342000Y413500D02*X317000Y410000D01*
X342000Y436000D02*X317000Y432500D01*
X342000Y433500D02*X317000Y430000D01*
X342000Y431000D02*X317000Y427500D01*
X342000Y428500D02*X317000Y425000D01*
X342000Y426000D02*X317000Y422500D01*
X342000Y436000D02*Y401000D01*
X316000D02*X343000D01*
X317000D02*X342000D01*
X343000D02*Y351000D01*
X316000D02*X343000D01*
X316000Y401000D02*Y351000D01*
X306250Y403000D02*X352750D01*
Y409000D02*Y403000D01*
X306250Y409000D02*X352750D01*
X306250D02*Y403000D01*
X373000Y399160D02*Y374160D01*
X364667D02*X381333D01*
G54D95*X329500Y351000D02*Y321000D01*
G54D94*X373000Y324160D02*Y299160D01*
X381333Y374160D02*Y324160D01*
X364667Y374160D02*Y324160D01*
X381333D01*
G54D93*X239001Y220273D02*Y211773D01*
X219001Y220273D02*Y211773D01*
X229001Y204073D02*Y201873D01*
Y220273D02*Y211773D01*
G54D94*X222501Y197273D02*X225501D01*
X235666Y276660D02*X249000D01*
X235666Y283326D02*Y269994D01*
Y283326D02*X222333Y276660D01*
X235666Y269994D02*X222333Y276660D01*
Y283326D02*Y269994D01*
Y283326D02*X224333D01*
G54D93*X249001Y220273D02*Y211773D01*
X229001Y195073D02*Y192873D01*
G54D94*X242501Y197273D02*X245501D01*
X240000Y326660D02*X250000D01*
X258500Y410010D02*X200500D01*
Y389160D01*
Y350310D02*Y371160D01*
X258500Y409176D03*
X250000Y326660D02*X251666Y329993D01*
X258500Y350310D02*Y371160D01*
X200500Y350310D02*X258500D01*
Y410010D02*Y389160D01*
X251666Y329993D02*X255000Y323327D01*
X256666Y326660D01*
X258333Y329993D01*
X261666Y323327D01*
X263333Y326660D01*
X265000Y329993D01*
X204001Y209773D02*Y197273D01*
X209001D01*
X212501D02*X215501D01*
G54D93*X209001Y195073D02*Y192873D01*
G54D94*X209000Y276660D02*X222333D01*
Y269994D02*X220333D01*
X209000Y333660D02*Y323660D01*
X212333Y321994D01*
X205667Y318660D01*
X209000Y316994D01*
X212333Y315327D01*
X205667Y311994D01*
X209000Y303660D02*Y293660D01*
X205667Y311994D02*X209000Y310327D01*
X212333Y308660D01*
X205667Y305327D01*
X209000Y303660D01*
G54D93*X209001Y204073D02*Y201873D01*
Y220273D02*Y211773D01*
G54D94*Y197273D02*Y177573D01*
G54D93*Y186073D02*Y183873D01*
G54D97*X207751Y196973D02*Y175573D01*
G54D94*X242501Y197273D02*Y177573D01*
G54D93*X249001Y186073D02*Y183873D01*
Y195073D02*Y192873D01*
G54D94*X245501Y197273D02*Y177573D01*
G54D93*X279001Y220273D02*Y211773D01*
X269001Y220273D02*Y211773D01*
X259001Y220273D02*Y211773D01*
G54D94*X272501Y197273D02*X275501D01*
G54D93*X279001Y195073D02*Y192873D01*
Y204073D02*Y201873D01*
G54D94*X262501Y197273D02*X265501D01*
X327000Y225660D02*X331000D01*
X299000D02*X303000D01*
X301000Y227660D02*Y223660D01*
G54D93*X269001Y195073D02*Y192873D01*
X259001Y195073D02*Y192873D01*
G54D94*X232501Y197273D02*X235501D01*
G54D93*X239001Y195073D02*Y192873D01*
G54D94*X252501Y197273D02*X255501D01*
G54D93*X219001Y195073D02*Y192873D01*
X239001Y204073D02*Y201873D01*
X219001Y204073D02*Y201873D01*
G54D94*X204000Y234860D02*X294000D01*
G54D93*X269001Y204073D02*Y201873D01*
X259001Y204073D02*Y201873D01*
X249001Y204073D02*Y201873D01*
G54D94*X204001Y209773D02*X294001D01*
X204000Y259860D02*X294000D01*
X209000Y253860D02*Y259860D01*
Y253860D02*X242500D01*
X204000Y259860D02*Y234860D01*
X242500Y253860D02*Y259860D01*
X245500D02*Y253860D01*
X289000D01*
X299000Y345660D02*G75*G03X299000Y325660I0J-10000D01*G01*
G75*G03X299000Y345660I0J10000D01*G01*
X305000Y225660D02*G75*G03X325000Y225660I10000J0D01*G01*
G75*G03X305000Y225660I-10000J0D01*G01*
G54D98*X205700Y261660D02*X207000D01*
X205000Y262360D02*X205700Y261660D01*
X205000Y264960D02*Y262360D01*
Y264960D02*X205700Y265660D01*
X207000D01*
X208200Y265160D02*Y262160D01*
Y265160D02*X208700Y265660D01*
X209700D01*
X210200Y265160D01*
Y262160D01*
X209700Y261660D02*X210200Y262160D01*
X208700Y261660D02*X209700D01*
X208200Y262160D02*X208700Y261660D01*
X211400Y265660D02*Y261660D01*
Y265660D02*X213900Y261660D01*
Y265660D02*Y261660D01*
X215100Y265660D02*Y261660D01*
Y265660D02*X217600Y261660D01*
Y265660D02*Y261660D01*
X218800Y263160D02*X220800Y265660D01*
X218800Y263160D02*X221300D01*
X220800Y265660D02*Y261660D01*
X205701Y225273D02*X207001D01*
X205001Y225973D02*X205701Y225273D01*
X205001Y228573D02*Y225973D01*
Y228573D02*X205701Y229273D01*
X207001D01*
X208201Y228773D02*Y225773D01*
Y228773D02*X208701Y229273D01*
X209701D01*
X210201Y228773D01*
Y225773D01*
X209701Y225273D02*X210201Y225773D01*
X208701Y225273D02*X209701D01*
X208201Y225773D02*X208701Y225273D01*
X211401Y229273D02*Y225273D01*
Y229273D02*X213901Y225273D01*
Y229273D02*Y225273D01*
X215101Y229273D02*Y225273D01*
Y229273D02*X217601Y225273D01*
Y229273D02*Y225273D01*
X218801Y228773D02*X219301Y229273D01*
X220301D01*
X220801Y228773D01*
X220301Y225273D02*X220801Y225773D01*
X219301Y225273D02*X220301D01*
X218801Y225773D02*X219301Y225273D01*
Y227473D02*X220301D01*
X220801Y228773D02*Y227973D01*
Y226973D02*Y225773D01*
Y226973D02*X220301Y227473D01*
X220801Y227973D02*X220301Y227473D01*
X258000Y285160D02*X258500Y285660D01*
X260000D01*
X260500Y285160D01*
Y284160D01*
X258000Y281660D02*X260500Y284160D01*
X258000Y281660D02*X260500D01*
X261700Y282160D02*X262200Y281660D01*
X261700Y285160D02*Y282160D01*
Y285160D02*X262200Y285660D01*
X263200D01*
X263700Y285160D01*
Y282160D01*
X263200Y281660D02*X263700Y282160D01*
X262200Y281660D02*X263200D01*
X261700Y282660D02*X263700Y284660D01*
X264900Y284860D02*X265700Y285660D01*
Y281660D01*
X264900D02*X266400D01*
X267600Y282160D02*X268100Y281660D01*
X267600Y282960D02*Y282160D01*
Y282960D02*X268300Y283660D01*
X268900D01*
X269600Y282960D01*
Y282160D01*
X269100Y281660D02*X269600Y282160D01*
X268100Y281660D02*X269100D01*
X267600Y284360D02*X268300Y283660D01*
X267600Y285160D02*Y284360D01*
Y285160D02*X268100Y285660D01*
X269100D01*
X269600Y285160D01*
Y284360D01*
X268900Y283660D02*X269600Y284360D01*
X270800Y281660D02*X271300D01*
X272500Y282160D02*X273000Y281660D01*
X272500Y285160D02*Y282160D01*
Y285160D02*X273000Y285660D01*
X274000D01*
X274500Y285160D01*
Y282160D01*
X274000Y281660D02*X274500Y282160D01*
X273000Y281660D02*X274000D01*
X272500Y282660D02*X274500Y284660D01*
X275700Y285660D02*X277700D01*
X275700D02*Y283660D01*
X276200Y284160D01*
X277200D01*
X277700Y283660D01*
Y282160D01*
X277200Y281660D02*X277700Y282160D01*
X276200Y281660D02*X277200D01*
X275700Y282160D02*X276200Y281660D01*
X278900D02*X279400D01*
X280600Y282160D02*X281100Y281660D01*
X280600Y285160D02*Y282160D01*
Y285160D02*X281100Y285660D01*
X282100D01*
X282600Y285160D01*
Y282160D01*
X282100Y281660D02*X282600Y282160D01*
X281100Y281660D02*X282100D01*
X280600Y282660D02*X282600Y284660D01*
X283800Y282160D02*X284300Y281660D01*
X283800Y282960D02*Y282160D01*
Y282960D02*X284500Y283660D01*
X285100D01*
X285800Y282960D01*
Y282160D01*
X285300Y281660D02*X285800Y282160D01*
X284300Y281660D02*X285300D01*
X283800Y284360D02*X284500Y283660D01*
X283800Y285160D02*Y284360D01*
Y285160D02*X284300Y285660D01*
X285300D01*
X285800Y285160D01*
Y284360D01*
X285100Y283660D02*X285800Y284360D01*
X258000Y290860D02*X259500D01*
X258000Y288660D02*X260000D01*
X258000Y292660D02*Y288660D01*
Y292660D02*X260000D01*
X261700D02*Y288660D01*
X261200Y292660D02*X263200D01*
X263700Y292160D01*
Y291160D01*
X263200Y290660D02*X263700Y291160D01*
X261700Y290660D02*X263200D01*
X264900Y292660D02*Y288660D01*
X266900D01*
X269900Y292660D02*X270900Y288660D01*
X271900Y292660D01*
X274600Y290660D02*X275100Y290160D01*
X273600Y290660D02*X274600D01*
X273100Y290160D02*X273600Y290660D01*
X273100Y290160D02*Y289160D01*
X273600Y288660D01*
X275100Y290660D02*Y289160D01*
X275600Y288660D01*
X273600D02*X274600D01*
X275100Y289160D01*
X276800Y292660D02*Y289160D01*
X277300Y288660D01*
X278300Y290660D02*X279300Y288660D01*
X280300Y290660D02*X279300Y288660D01*
X282000D02*X283500D01*
X281500Y289160D02*X282000Y288660D01*
X281500Y290160D02*Y289160D01*
Y290160D02*X282000Y290660D01*
X283000D01*
X283500Y290160D01*
X281500Y289660D02*X283500D01*
Y290160D02*Y289660D01*
X287000Y292660D02*Y288660D01*
X288300Y292660D02*X289000Y291960D01*
Y289360D01*
X288300Y288660D02*X289000Y289360D01*
X286500Y288660D02*X288300D01*
X286500Y292660D02*X288300D01*
X290700Y290160D02*Y288660D01*
Y290160D02*X291200Y290660D01*
X292200D01*
X290200D02*X290700Y290160D01*
X293400Y291660D02*Y291560D01*
Y290160D02*Y288660D01*
X294400Y290660D02*X295400Y288660D01*
X296400Y290660D02*X295400Y288660D01*
X298100D02*X299600D01*
X297600Y289160D02*X298100Y288660D01*
X297600Y290160D02*Y289160D01*
Y290160D02*X298100Y290660D01*
X299100D01*
X299600Y290160D01*
X297600Y289660D02*X299600D01*
Y290160D02*Y289660D01*
X301300Y290160D02*Y288660D01*
Y290160D02*X301800Y290660D01*
X302800D01*
X300800D02*X301300Y290160D01*
X258000Y274660D02*X260000D01*
X260500Y275160D01*
Y276360D02*Y275160D01*
X260000Y276860D02*X260500Y276360D01*
X258500Y276860D02*X260000D01*
X258500Y278660D02*Y274660D01*
X258000Y278660D02*X260000D01*
X260500Y278160D01*
Y277360D01*
X260000Y276860D02*X260500Y277360D01*
X261700Y276660D02*Y275160D01*
X262200Y274660D01*
X263700Y276660D02*Y273660D01*
X263200Y273160D02*X263700Y273660D01*
X262200Y273160D02*X263200D01*
X261700Y273660D02*X262200Y273160D01*
Y274660D02*X263200D01*
X263700Y275160D01*
X266700Y276860D02*X268200D01*
X266700Y274660D02*X268700D01*
X266700Y278660D02*Y274660D01*
Y278660D02*X268700D01*
X269900Y276660D02*X270900Y274660D01*
X271900Y276660D02*X270900Y274660D01*
X274600Y276660D02*X275100Y276160D01*
X273600Y276660D02*X274600D01*
X273100Y276160D02*X273600Y276660D01*
X273100Y276160D02*Y275160D01*
X273600Y274660D01*
X275100Y276660D02*Y275160D01*
X275600Y274660D01*
X273600D02*X274600D01*
X275100Y275160D01*
X277300Y276160D02*Y274660D01*
Y276160D02*X277800Y276660D01*
X278300D01*
X278800Y276160D01*
Y274660D01*
X276800Y276660D02*X277300Y276160D01*
X281800Y278660D02*Y274660D01*
Y278660D02*X283800D01*
X281800Y276860D02*X283300D01*
X285000Y276160D02*Y275160D01*
Y276160D02*X285500Y276660D01*
X286500D01*
X287000Y276160D01*
Y275160D01*
X286500Y274660D02*X287000Y275160D01*
X285500Y274660D02*X286500D01*
X285000Y275160D02*X285500Y274660D01*
X288700D02*X290200D01*
X290700Y275160D01*
X290200Y275660D02*X290700Y275160D01*
X288700Y275660D02*X290200D01*
X288200Y276160D02*X288700Y275660D01*
X288200Y276160D02*X288700Y276660D01*
X290200D01*
X290700Y276160D01*
X288200Y275160D02*X288700Y274660D01*
X292400D02*X293900D01*
X294400Y275160D01*
X293900Y275660D02*X294400Y275160D01*
X292400Y275660D02*X293900D01*
X291900Y276160D02*X292400Y275660D01*
X291900Y276160D02*X292400Y276660D01*
X293900D01*
X294400Y276160D01*
X291900Y275160D02*X292400Y274660D01*
X283000Y310160D02*X285000D01*
X285500Y309660D01*
Y308660D01*
X285000Y308160D02*X285500Y308660D01*
X283500Y308160D02*X285000D01*
X283500Y310160D02*Y306160D01*
X284300Y308160D02*X285500Y306160D01*
X286700Y309360D02*X287500Y310160D01*
Y306160D01*
X286700D02*X288200D01*
X323333Y288160D02*Y284160D01*
X324633Y288160D02*X325333Y287460D01*
Y284860D01*
X324633Y284160D02*X325333Y284860D01*
X322833Y284160D02*X324633D01*
X322833Y288160D02*X324633D01*
X326533Y287360D02*X327333Y288160D01*
Y284160D01*
X326533D02*X328033D01*
X310535Y337973D02*Y336673D01*
X311235Y338673D02*X310535Y337973D01*
X311235Y338673D02*X313835D01*
X314535Y337973D01*
Y336673D01*
X314035Y335473D02*X314535Y334973D01*
Y333473D01*
X314035Y332973D01*
X313035D02*X314035D01*
X310535Y335473D02*X313035Y332973D01*
X310535Y335473D02*Y332973D01*
X313200Y237160D02*X314500D01*
X312500Y237860D02*X313200Y237160D01*
X312500Y240460D02*Y237860D01*
Y240460D02*X313200Y241160D01*
X314500D01*
X315700Y240360D02*X316500Y241160D01*
Y237160D01*
X315700D02*X317200D01*
X262880Y389500D02*Y386500D01*
Y389500D02*X263380Y390000D01*
X264380D01*
X264880Y389500D01*
Y387000D01*
X263880Y386000D02*X264880Y387000D01*
X263380Y386000D02*X263880D01*
X262880Y386500D02*X263380Y386000D01*
X263880Y387500D02*X264880Y386000D01*
X266080Y389200D02*X266880Y390000D01*
Y386000D01*
X266080D02*X267580D01*
X257000Y335160D02*X259000D01*
X259500Y334660D01*
Y333660D01*
X259000Y333160D02*X259500Y333660D01*
X257500Y333160D02*X259000D01*
X257500Y335160D02*Y331160D01*
X258300Y333160D02*X259500Y331160D01*
X260700Y334660D02*X261200Y335160D01*
X262700D01*
X263200Y334660D01*
Y333660D01*
X260700Y331160D02*X263200Y333660D01*
X260700Y331160D02*X263200D01*
X318000Y349000D02*X318500Y348500D01*
X316500Y349000D02*X318000D01*
X316000Y348500D02*X316500Y349000D01*
X316000Y348500D02*Y347500D01*
X316500Y347000D01*
X318000D01*
X318500Y346500D01*
Y345500D01*
X318000Y345000D02*X318500Y345500D01*
X316500Y345000D02*X318000D01*
X316000Y345500D02*X316500Y345000D01*
X319700Y348200D02*X320500Y349000D01*
Y345000D01*
X319700D02*X321200D01*
X383000Y354160D02*X387000D01*
X385000Y352660D01*
X387000Y351160D01*
X383000D02*X387000D01*
X383500Y349960D02*X386500D01*
X387000Y349460D01*
Y348460D01*
X386500Y347960D01*
X383500D02*X386500D01*
X383000Y348460D02*X383500Y347960D01*
X383000Y349460D02*Y348460D01*
X383500Y349960D02*X383000Y349460D01*
Y346260D02*X387000D01*
Y344960D02*X386300Y344260D01*
X383700D02*X386300D01*
X383000Y344960D02*X383700Y344260D01*
X383000Y346760D02*Y344960D01*
X387000Y346760D02*Y344960D01*
X386200Y343060D02*X387000Y342260D01*
X383000D02*X387000D01*
X383000Y343060D02*Y341560D01*
X225833Y288160D02*X228333D01*
X225833Y284160D02*X228333Y288160D01*
X225833Y284160D02*X228333D01*
X229533Y287360D02*X230333Y288160D01*
Y284160D01*
X229533D02*X231033D01*
X217500Y316660D02*Y314660D01*
X217000Y314160D01*
X216000D02*X217000D01*
X215500Y314660D02*X216000Y314160D01*
X215500Y316160D02*Y314660D01*
X213500Y316160D02*X217500D01*
X215500Y315360D02*X213500Y314160D01*
X217000Y312960D02*X217500Y312460D01*
Y311460D01*
X217000Y310960D01*
X213500Y311460D02*X214000Y310960D01*
X213500Y312460D02*Y311460D01*
X214000Y312960D02*X213500Y312460D01*
X215700D02*Y311460D01*
X216200Y310960D02*X217000D01*
X214000D02*X215200D01*
X215700Y311460D01*
X216200Y310960D02*X215700Y311460D01*
X202237Y344350D02*X203537D01*
X201537Y345050D02*X202237Y344350D01*
X201537Y347650D02*Y345050D01*
Y347650D02*X202237Y348350D01*
X203537D01*
X204737Y347850D02*Y344850D01*
Y347850D02*X205237Y348350D01*
X206237D01*
X206737Y347850D01*
Y344850D01*
X206237Y344350D02*X206737Y344850D01*
X205237Y344350D02*X206237D01*
X204737Y344850D02*X205237Y344350D01*
X207937Y348350D02*Y344350D01*
Y348350D02*X210437Y344350D01*
Y348350D02*Y344350D01*
X211637Y348350D02*Y344350D01*
Y348350D02*X214137Y344350D01*
Y348350D02*Y344350D01*
X215337Y347550D02*X216137Y348350D01*
Y344350D01*
X215337D02*X216837D01*
X258000Y266660D02*Y262660D01*
Y266660D02*X259500Y264660D01*
X261000Y266660D01*
Y262660D01*
X263700Y264660D02*X264200Y264160D01*
X262700Y264660D02*X263700D01*
X262200Y264160D02*X262700Y264660D01*
X262200Y264160D02*Y263160D01*
X262700Y262660D01*
X264200Y264660D02*Y263160D01*
X264700Y262660D01*
X262700D02*X263700D01*
X264200Y263160D01*
X267900Y266660D02*Y262660D01*
X267400D02*X267900Y263160D01*
X266400Y262660D02*X267400D01*
X265900Y263160D02*X266400Y262660D01*
X265900Y264160D02*Y263160D01*
Y264160D02*X266400Y264660D01*
X267400D01*
X267900Y264160D01*
X269600Y262660D02*X271100D01*
X269100Y263160D02*X269600Y262660D01*
X269100Y264160D02*Y263160D01*
Y264160D02*X269600Y264660D01*
X270600D01*
X271100Y264160D01*
X269100Y263660D02*X271100D01*
Y264160D02*Y263660D01*
X274100Y264660D02*Y263160D01*
X274600Y262660D01*
X275100D01*
X275600Y263160D01*
Y264660D02*Y263160D01*
X276100Y262660D01*
X276600D01*
X277100Y263160D01*
Y264660D02*Y263160D01*
X278300Y265660D02*Y265560D01*
Y264160D02*Y262660D01*
X279800Y266660D02*Y263160D01*
X280300Y262660D01*
X279300Y265160D02*X280300D01*
X281300Y266660D02*Y262660D01*
Y264160D02*X281800Y264660D01*
X282800D01*
X283300Y264160D01*
Y262660D01*
X287800Y264660D02*X288300Y264160D01*
X286800Y264660D02*X287800D01*
X286300Y264160D02*X286800Y264660D01*
X286300Y264160D02*Y263160D01*
X286800Y262660D01*
X287800D01*
X288300Y263160D01*
X286300Y261660D02*X286800Y261160D01*
X287800D01*
X288300Y261660D01*
Y264660D02*Y261660D01*
X289500Y264860D02*X291000D01*
X289500Y262660D02*X291500D01*
X289500Y266660D02*Y262660D01*
Y266660D02*X291500D01*
X293200D02*Y262660D01*
X294500Y266660D02*X295200Y265960D01*
Y263360D01*
X294500Y262660D02*X295200Y263360D01*
X292700Y262660D02*X294500D01*
X292700Y266660D02*X294500D01*
X296400Y265660D02*Y262660D01*
Y265660D02*X297100Y266660D01*
X298200D01*
X298900Y265660D01*
Y262660D01*
X296400Y264660D02*X298900D01*
X303400D02*X303900Y264160D01*
X302400Y264660D02*X303400D01*
X301900Y264160D02*X302400Y264660D01*
X301900Y264160D02*Y263160D01*
X302400Y262660D01*
X303900Y264660D02*Y263160D01*
X304400Y262660D01*
X302400D02*X303400D01*
X303900Y263160D01*
X306100Y264160D02*Y262660D01*
Y264160D02*X306600Y264660D01*
X307100D01*
X307600Y264160D01*
Y262660D01*
X305600Y264660D02*X306100Y264160D01*
X310800Y266660D02*Y262660D01*
X310300D02*X310800Y263160D01*
X309300Y262660D02*X310300D01*
X308800Y263160D02*X309300Y262660D01*
X308800Y264160D02*Y263160D01*
Y264160D02*X309300Y264660D01*
X310300D01*
X310800Y264160D01*
X314300Y266660D02*Y262660D01*
X313800Y266660D02*X315800D01*
X316300Y266160D01*
Y265160D01*
X315800Y264660D02*X316300Y265160D01*
X314300Y264660D02*X315800D01*
X318200Y262660D02*X319500D01*
X317500Y263360D02*X318200Y262660D01*
X317500Y265960D02*Y263360D01*
Y265960D02*X318200Y266660D01*
X319500D01*
X320700Y262660D02*X322700D01*
X323200Y263160D01*
Y264360D02*Y263160D01*
X322700Y264860D02*X323200Y264360D01*
X321200Y264860D02*X322700D01*
X321200Y266660D02*Y262660D01*
X320700Y266660D02*X322700D01*
X323200Y266160D01*
Y265360D01*
X322700Y264860D02*X323200Y265360D01*
X324400Y264660D02*X326400D01*
X327600Y266660D02*X329600D01*
X330100Y266160D01*
Y265160D01*
X329600Y264660D02*X330100Y265160D01*
X328100Y264660D02*X329600D01*
X328100Y266660D02*Y262660D01*
X328900Y264660D02*X330100Y262660D01*
X331300Y266660D02*Y262660D01*
Y266660D02*X333800Y262660D01*
Y266660D02*Y262660D01*
X335500Y266660D02*Y262660D01*
X336800Y266660D02*X337500Y265960D01*
Y263360D01*
X336800Y262660D02*X337500Y263360D01*
X335000Y262660D02*X336800D01*
X335000Y266660D02*X336800D01*
X340500Y263160D02*X341000Y262660D01*
X340500Y266160D02*X341000Y266660D01*
X340500Y266160D02*Y263160D01*
X342700Y264160D02*Y262660D01*
Y264160D02*X343200Y264660D01*
X344200D01*
X342200D02*X342700Y264160D01*
X345400Y265860D02*X346200Y266660D01*
Y262660D01*
X345400D02*X346900D01*
X349600Y266660D02*X350100Y266160D01*
X348600Y266660D02*X349600D01*
X348100Y266160D02*X348600Y266660D01*
X348100Y266160D02*Y263160D01*
X348600Y262660D01*
X349600Y264860D02*X350100Y264360D01*
X348100Y264860D02*X349600D01*
X348600Y262660D02*X349600D01*
X350100Y263160D01*
Y264360D02*Y263160D01*
X351300Y266160D02*X351800Y266660D01*
X352800D01*
X353300Y266160D01*
X352800Y262660D02*X353300Y263160D01*
X351800Y262660D02*X352800D01*
X351300Y263160D02*X351800Y262660D01*
Y264860D02*X352800D01*
X353300Y266160D02*Y265360D01*
Y264360D02*Y263160D01*
Y264360D02*X352800Y264860D01*
X353300Y265360D02*X352800Y264860D01*
X355000Y262660D02*X357000Y266660D01*
X354500D02*X357000D01*
X358200Y263160D02*X358700Y262660D01*
X358200Y263960D02*Y263160D01*
Y263960D02*X358900Y264660D01*
X359500D01*
X360200Y263960D01*
Y263160D01*
X359700Y262660D02*X360200Y263160D01*
X358700Y262660D02*X359700D01*
X358200Y265360D02*X358900Y264660D01*
X358200Y266160D02*Y265360D01*
Y266160D02*X358700Y266660D01*
X359700D01*
X360200Y266160D01*
Y265360D01*
X359500Y264660D02*X360200Y265360D01*
X361400Y266660D02*X361900Y266160D01*
Y263160D01*
X361400Y262660D02*X361900Y263160D01*
M02*
