G04 start of page 4 for group 7 layer_idx 4 *
G04 Title: (unknown), Intern *
G04 Creator: pcb-rnd 2.0.0 *
G04 CreationDate: 2018-06-06 15:15:13 UTC *
G04 For:  *
G04 Format: Gerber/RS-274X *
G04 PCB-Dimensions: 500000 500000 *
G04 PCB-Coordinate-Origin: lower left *
%MOIN*%
%FSLAX25Y25*%
%LNGROUP7*%
%ADD56C,0.0730*%
%ADD55C,0.0320*%
%ADD54C,0.0790*%
%ADD53C,0.0420*%
%ADD52C,0.0400*%
%ADD51C,0.0394*%
%ADD50C,0.0472*%
%ADD49C,0.1630*%
%ADD48C,0.0900*%
%ADD47C,0.1150*%
%ADD46C,0.2000*%
%ADD45C,0.0600*%
%ADD44C,0.0800*%
%ADD43C,0.1378*%
%ADD42C,0.0828*%
G54D42*X231000Y290660D03*
G54D43*X265000Y360660D03*
G54D42*X231000Y312660D03*
G54D44*X266000Y301660D03*
X240000Y326660D03*
X259000Y247660D03*
X269000D03*
X249000Y276660D03*
G54D45*X229001Y220273D03*
G54D44*X239000Y247660D03*
X249000D03*
X279000D03*
X280000Y326660D03*
X289000Y247660D03*
G54D45*X259001Y220273D03*
X249001D03*
X239001D03*
G54D44*X299000Y340660D03*
X306000Y276660D03*
Y301660D03*
X209000Y333660D03*
G54D46*X209500Y380160D03*
X249500D03*
G54D44*X219500Y360160D03*
X229500D03*
G54D47*X329500Y336000D03*
Y351000D03*
G54D48*X282880Y388000D03*
G54D44*X299000Y330660D03*
G54D47*X329500Y321000D03*
G54D44*X373000Y399160D03*
G54D49*X339500Y401000D03*
X319500D03*
G54D48*X272880Y398000D03*
X292880D03*
G54D44*X373000Y299160D03*
X209000Y293660D03*
X346000Y276660D03*
X209000D03*
G54D45*X219001Y220273D03*
X209001D03*
G54D44*X320000Y225660D03*
G54D45*X289001Y220273D03*
X279001D03*
X269001D03*
G54D44*X310000Y225660D03*
X209000Y247660D03*
X219000D03*
X229000D03*
G54D50*G54D51*G54D52*G54D51*G54D53*G54D52*G54D51*G54D52*G54D53*G54D51*G54D54*G54D55*G54D56*G54D45*G54D51*G54D56*G54D51*G54D56*G54D45*G54D51*G54D53*G54D51*G54D53*G54D51*G54D52*M02*
