G04 start of page 2 for group 3 layer_idx 0 *
G04 Title: (unknown), top_copper *
G04 Creator: pcb-rnd 2.0.0 *
G04 CreationDate: 2018-06-06 15:15:13 UTC *
G04 For:  *
G04 Format: Gerber/RS-274X *
G04 PCB-Dimensions: 500000 500000 *
G04 PCB-Coordinate-Origin: lower left *
%MOIN*%
%FSLAX25Y25*%
%LNTOP*%
%ADD26C,0.0730*%
%ADD25C,0.0320*%
%ADD24C,0.0790*%
%ADD23C,0.0420*%
%ADD22C,0.0400*%
%ADD21C,0.0394*%
%ADD20C,0.0472*%
%ADD19C,0.1630*%
%ADD18C,0.0900*%
%ADD17C,0.1150*%
%ADD16C,0.2000*%
%ADD15C,0.0600*%
%ADD14C,0.1378*%
%ADD13C,0.0828*%
%ADD12C,0.0800*%
%ADD11C,0.0001*%
G54D11*G36*
X372990Y406660D02*X377000D01*
X382000Y404660D01*
X385000Y400660D01*
Y269660D01*
X384000Y263660D01*
X378000Y256660D01*
X373000Y254660D01*
X372990D01*
Y292641D01*
X373000Y292640D01*
X374020Y292720D01*
X374020Y292720D01*
X375015Y292959D01*
X375960Y293351D01*
X376832Y293885D01*
X377610Y294550D01*
X378275Y295328D01*
X378809Y296200D01*
X379201Y297145D01*
X379440Y298140D01*
X379520Y299160D01*
X379440Y300180D01*
X379201Y301175D01*
X378809Y302120D01*
X378275Y302992D01*
X377610Y303770D01*
X376832Y304435D01*
X375960Y304969D01*
X375015Y305361D01*
X374020Y305600D01*
X374020Y305600D01*
X373000Y305680D01*
X372990Y305679D01*
Y392641D01*
X373000Y392640D01*
X374020Y392720D01*
X375015Y392959D01*
X375960Y393351D01*
X376832Y393885D01*
X377610Y394550D01*
X378275Y395328D01*
X378809Y396200D01*
X379201Y397145D01*
X379440Y398140D01*
X379500Y399160D01*
X379440Y400180D01*
X379201Y401175D01*
X378809Y402120D01*
X378275Y402992D01*
X377610Y403770D01*
X376832Y404435D01*
X375960Y404969D01*
X375015Y405361D01*
X374020Y405600D01*
X373000Y405680D01*
X372990Y405679D01*
Y406660D01*
G37*
G36*
Y254660D02*X368000D01*
X361000Y252660D01*
X353000Y247660D01*
X347000Y241660D01*
X345990Y239640D01*
Y270141D01*
X346000Y270140D01*
X347020Y270220D01*
X348015Y270459D01*
X348960Y270851D01*
X349832Y271385D01*
X350610Y272050D01*
X351275Y272828D01*
X351809Y273700D01*
X352201Y274645D01*
X352440Y275640D01*
X352500Y276660D01*
X352440Y277680D01*
X352201Y278675D01*
X351809Y279620D01*
X351275Y280492D01*
X350610Y281270D01*
X349832Y281935D01*
X348960Y282469D01*
X348015Y282861D01*
X347020Y283100D01*
X346000Y283180D01*
X345990Y283179D01*
Y295318D01*
X346564Y294744D01*
X346730Y294550D01*
X347508Y293885D01*
X348380Y293351D01*
X349325Y292959D01*
X350081Y292778D01*
X350320Y292720D01*
X350320D01*
X351340Y292640D01*
X351595Y292660D01*
X372745D01*
X372990Y292641D01*
Y254660D01*
G37*
G36*
X345990Y239640D02*X343000Y233660D01*
Y211660D01*
X340000Y204660D01*
X336000Y200660D01*
Y305308D01*
X345990Y295318D01*
Y283179D01*
X344980Y283100D01*
X343985Y282861D01*
X343040Y282469D01*
X342168Y281935D01*
X341390Y281270D01*
X340725Y280492D01*
X340191Y279620D01*
X339799Y278675D01*
X339560Y277680D01*
X339480Y276660D01*
X339560Y275640D01*
X339799Y274645D01*
X340191Y273700D01*
X340725Y272828D01*
X341390Y272050D01*
X342168Y271385D01*
X343040Y270851D01*
X343985Y270459D01*
X344980Y270220D01*
X345990Y270141D01*
Y239640D01*
G37*
G36*
X336000Y391464D02*X336354Y391317D01*
X337907Y390944D01*
X339500Y390819D01*
X341093Y390944D01*
X342646Y391317D01*
X344122Y391928D01*
X345484Y392763D01*
X346699Y393801D01*
X347737Y395016D01*
X348572Y396378D01*
X349183Y397854D01*
X349556Y399407D01*
X349650Y401000D01*
X349556Y402593D01*
X349183Y404146D01*
X348572Y405622D01*
X347936Y406660D01*
X372990D01*
Y405679D01*
X371980Y405600D01*
X370985Y405361D01*
X370040Y404969D01*
X369168Y404435D01*
X368390Y403770D01*
X367725Y402992D01*
X367191Y402120D01*
X366799Y401175D01*
X366560Y400180D01*
X366480Y399160D01*
X366560Y398140D01*
X366799Y397145D01*
X367191Y396200D01*
X367725Y395328D01*
X368390Y394550D01*
X369168Y393885D01*
X370040Y393351D01*
X370985Y392959D01*
X371980Y392720D01*
X372990Y392641D01*
Y305679D01*
X372745Y305660D01*
X354032D01*
X337084Y322608D01*
X336893Y323402D01*
X336427Y324529D01*
X336000Y325225D01*
Y331775D01*
X336427Y332471D01*
X336893Y333598D01*
X337178Y334784D01*
X337250Y336000D01*
X337178Y337216D01*
X336893Y338402D01*
X336427Y339529D01*
X336000Y340225D01*
Y346775D01*
X336427Y347471D01*
X336893Y348598D01*
X337178Y349784D01*
X337250Y351000D01*
X337178Y352216D01*
X336893Y353402D01*
X336427Y354529D01*
X336000Y355225D01*
Y391464D01*
G37*
G36*
Y340225D02*X335789Y340569D01*
X334997Y341497D01*
X334069Y342289D01*
X333029Y342927D01*
X331902Y343393D01*
X331458Y343500D01*
X331902Y343607D01*
X333029Y344073D01*
X334069Y344711D01*
X334997Y345503D01*
X335789Y346431D01*
X336000Y346775D01*
Y340225D01*
G37*
G36*
Y325225D02*X335789Y325569D01*
X334997Y326497D01*
X334069Y327289D01*
X333029Y327927D01*
X331902Y328393D01*
X331458Y328500D01*
X331902Y328607D01*
X333029Y329073D01*
X334069Y329711D01*
X334997Y330503D01*
X335789Y331431D01*
X336000Y331775D01*
Y325225D01*
G37*
G36*
X325122Y314500D02*X325275D01*
X325971Y314073D01*
X327098Y313607D01*
X327892Y313416D01*
X336000Y305308D01*
Y200660D01*
X334000Y198660D01*
X328000Y195660D01*
X325122D01*
Y222818D01*
X325203Y222825D01*
X325394Y222872D01*
X325576Y222948D01*
X325743Y223052D01*
X325892Y223180D01*
X326019Y223330D01*
X326121Y223499D01*
X326192Y223682D01*
X326348Y224235D01*
X326449Y224800D01*
X326500Y225373D01*
Y225947D01*
X326449Y226520D01*
X326348Y227085D01*
X326198Y227640D01*
X326125Y227823D01*
X326022Y227992D01*
X325895Y228143D01*
X325745Y228271D01*
X325578Y228375D01*
X325396Y228452D01*
X325204Y228499D01*
X325122Y228506D01*
Y314500D01*
G37*
G36*
X320002D02*X325122D01*
Y228506D01*
X325007Y228515D01*
X324810Y228501D01*
X324618Y228456D01*
X324436Y228381D01*
X324267Y228279D01*
X324116Y228151D01*
X323987Y228002D01*
X323883Y227834D01*
X323807Y227652D01*
X323760Y227461D01*
X323743Y227264D01*
X323758Y227067D01*
X323807Y226876D01*
X323903Y226536D01*
X323965Y226189D01*
X323996Y225837D01*
Y225483D01*
X323965Y225131D01*
X323903Y224784D01*
X323810Y224443D01*
X323762Y224252D01*
X323747Y224056D01*
X323764Y223860D01*
X323810Y223669D01*
X323887Y223488D01*
X323990Y223320D01*
X324119Y223171D01*
X324269Y223044D01*
X324437Y222942D01*
X324619Y222868D01*
X324811Y222823D01*
X325007Y222809D01*
X325122Y222818D01*
Y195660D01*
X320002D01*
Y219160D01*
X320287D01*
X320860Y219211D01*
X321425Y219312D01*
X321980Y219462D01*
X322163Y219535D01*
X322332Y219638D01*
X322483Y219765D01*
X322611Y219915D01*
X322715Y220082D01*
X322792Y220264D01*
X322839Y220456D01*
X322855Y220653D01*
X322841Y220850D01*
X322796Y221042D01*
X322721Y221224D01*
X322619Y221393D01*
X322491Y221544D01*
X322342Y221673D01*
X322174Y221777D01*
X321992Y221853D01*
X321801Y221900D01*
X321604Y221917D01*
X321407Y221902D01*
X321216Y221853D01*
X320876Y221757D01*
X320529Y221695D01*
X320177Y221664D01*
X320002D01*
Y229656D01*
X320177D01*
X320529Y229625D01*
X320876Y229563D01*
X321217Y229470D01*
X321408Y229422D01*
X321604Y229407D01*
X321800Y229424D01*
X321991Y229470D01*
X322172Y229547D01*
X322340Y229650D01*
X322489Y229779D01*
X322616Y229929D01*
X322718Y230097D01*
X322792Y230279D01*
X322837Y230471D01*
X322851Y230667D01*
X322835Y230863D01*
X322788Y231054D01*
X322712Y231236D01*
X322608Y231403D01*
X322480Y231552D01*
X322330Y231679D01*
X322161Y231781D01*
X321978Y231852D01*
X321425Y232008D01*
X320860Y232109D01*
X320287Y232160D01*
X320002D01*
Y314500D01*
G37*
G36*
X305990Y315070D02*X306645Y314799D01*
X307401Y314618D01*
X307640Y314560D01*
X307640D01*
X308660Y314480D01*
X308915Y314500D01*
X320002D01*
Y232160D01*
X319713D01*
X319140Y232109D01*
X318575Y232008D01*
X318020Y231858D01*
X317837Y231785D01*
X317668Y231682D01*
X317517Y231555D01*
X317389Y231405D01*
X317285Y231238D01*
X317208Y231056D01*
X317161Y230864D01*
X317145Y230667D01*
X317159Y230470D01*
X317204Y230278D01*
X317279Y230096D01*
X317381Y229927D01*
X317509Y229776D01*
X317658Y229647D01*
X317826Y229543D01*
X318008Y229467D01*
X318199Y229420D01*
X318396Y229403D01*
X318593Y229418D01*
X318784Y229467D01*
X319124Y229563D01*
X319471Y229625D01*
X319823Y229656D01*
X320002D01*
Y221664D01*
X319823D01*
X319471Y221695D01*
X319124Y221757D01*
X318783Y221850D01*
X318592Y221898D01*
X318396Y221913D01*
X318200Y221896D01*
X318009Y221850D01*
X317828Y221773D01*
X317660Y221670D01*
X317511Y221541D01*
X317384Y221391D01*
X317282Y221223D01*
X317208Y221041D01*
X317163Y220849D01*
X317149Y220653D01*
X317165Y220457D01*
X317212Y220266D01*
X317288Y220084D01*
X317392Y219917D01*
X317520Y219768D01*
X317670Y219641D01*
X317839Y219539D01*
X318022Y219468D01*
X318575Y219312D01*
X319140Y219211D01*
X319713Y219160D01*
X320002D01*
Y195660D01*
X305990D01*
Y220537D01*
X306168Y220385D01*
X307040Y219851D01*
X307985Y219459D01*
X308980Y219220D01*
X310000Y219140D01*
X311020Y219220D01*
X312015Y219459D01*
X312960Y219851D01*
X313832Y220385D01*
X314610Y221050D01*
X315275Y221828D01*
X315809Y222700D01*
X316201Y223645D01*
X316440Y224640D01*
X316500Y225660D01*
X316440Y226680D01*
X316201Y227675D01*
X315809Y228620D01*
X315275Y229492D01*
X314610Y230270D01*
X313832Y230935D01*
X312960Y231469D01*
X312015Y231861D01*
X311020Y232100D01*
X310000Y232180D01*
X308980Y232100D01*
X307985Y231861D01*
X307040Y231469D01*
X306168Y230935D01*
X305990Y230783D01*
Y270141D01*
X306000Y270140D01*
X307020Y270220D01*
X308015Y270459D01*
X308960Y270851D01*
X309832Y271385D01*
X310610Y272050D01*
X311275Y272828D01*
X311809Y273700D01*
X312201Y274645D01*
X312440Y275640D01*
X312500Y276660D01*
X312440Y277680D01*
X312201Y278675D01*
X311809Y279620D01*
X311275Y280492D01*
X310610Y281270D01*
X309832Y281935D01*
X308960Y282469D01*
X308015Y282861D01*
X307020Y283100D01*
X306000Y283180D01*
X305990Y283179D01*
Y295141D01*
X306000Y295140D01*
X307020Y295220D01*
X308015Y295459D01*
X308960Y295851D01*
X309832Y296385D01*
X310610Y297050D01*
X311275Y297828D01*
X311809Y298700D01*
X312201Y299645D01*
X312440Y300640D01*
X312500Y301660D01*
X312440Y302680D01*
X312201Y303675D01*
X311809Y304620D01*
X311275Y305492D01*
X310610Y306270D01*
X309832Y306935D01*
X308960Y307469D01*
X308015Y307861D01*
X307020Y308100D01*
X306000Y308180D01*
X305990Y308179D01*
Y315070D01*
G37*
G36*
Y358298D02*X323916Y376224D01*
X324110Y376390D01*
X324775Y377168D01*
X325309Y378040D01*
X325701Y378985D01*
X325940Y379980D01*
X326020Y381000D01*
X326000Y381255D01*
Y393203D01*
X326699Y393801D01*
X327297Y394500D01*
X331703D01*
X332301Y393801D01*
X333516Y392763D01*
X334878Y391928D01*
X336000Y391464D01*
Y355225D01*
X335789Y355569D01*
X334997Y356497D01*
X334069Y357289D01*
X333029Y357927D01*
X331902Y358393D01*
X330716Y358678D01*
X329500Y358774D01*
X328284Y358678D01*
X327098Y358393D01*
X325971Y357927D01*
X324931Y357289D01*
X324003Y356497D01*
X323211Y355569D01*
X322573Y354529D01*
X322107Y353402D01*
X321822Y352216D01*
X321726Y351000D01*
X321822Y349784D01*
X322107Y348598D01*
X322573Y347471D01*
X323211Y346431D01*
X324003Y345503D01*
X324931Y344711D01*
X325971Y344073D01*
X327098Y343607D01*
X327542Y343500D01*
X327098Y343393D01*
X325971Y342927D01*
X324931Y342289D01*
X324003Y341497D01*
X323211Y340569D01*
X322573Y339529D01*
X322107Y338402D01*
X321822Y337216D01*
X321726Y336000D01*
X321822Y334784D01*
X322107Y333598D01*
X322573Y332471D01*
X323211Y331431D01*
X324003Y330503D01*
X324931Y329711D01*
X325971Y329073D01*
X327098Y328607D01*
X327542Y328500D01*
X327098Y328393D01*
X325971Y327927D01*
X325275Y327500D01*
X311352D01*
X305990Y332862D01*
Y358298D01*
G37*
G36*
X288150Y354160D02*X298905D01*
X299160Y354140D01*
X300180Y354220D01*
X300180Y354220D01*
X301175Y354459D01*
X302120Y354851D01*
X302992Y355385D01*
X303770Y356050D01*
X303936Y356244D01*
X305990Y358298D01*
Y332862D01*
X303776Y335076D01*
X303610Y335270D01*
X303154Y335660D01*
X303610Y336050D01*
X304275Y336828D01*
X304809Y337700D01*
X305201Y338645D01*
X305440Y339640D01*
X305500Y340660D01*
X305440Y341680D01*
X305201Y342675D01*
X304809Y343620D01*
X304275Y344492D01*
X303610Y345270D01*
X302832Y345935D01*
X301960Y346469D01*
X301015Y346861D01*
X300020Y347100D01*
X299000Y347180D01*
X297980Y347100D01*
X296985Y346861D01*
X296040Y346469D01*
X295168Y345935D01*
X294390Y345270D01*
X293725Y344492D01*
X293191Y343620D01*
X292799Y342675D01*
X292560Y341680D01*
X292480Y340660D01*
X292560Y339640D01*
X292799Y338645D01*
X293191Y337700D01*
X293725Y336828D01*
X294390Y336050D01*
X294846Y335660D01*
X294390Y335270D01*
X294084Y334912D01*
X293725Y334492D01*
X293394Y333952D01*
X293191Y333620D01*
X292799Y332675D01*
X292560Y331680D01*
X292480Y330660D01*
Y330660D01*
X292560Y329640D01*
X292618Y329401D01*
X292799Y328645D01*
X293191Y327700D01*
X293725Y326828D01*
X294390Y326050D01*
X294584Y325884D01*
X303884Y316584D01*
X304050Y316390D01*
X304828Y315725D01*
X305700Y315191D01*
X305990Y315070D01*
Y308179D01*
X304980Y308100D01*
X303985Y307861D01*
X303040Y307469D01*
X302168Y306935D01*
X301390Y306270D01*
X300725Y305492D01*
X300191Y304620D01*
X299799Y303675D01*
X299560Y302680D01*
X299480Y301660D01*
X299560Y300640D01*
X299799Y299645D01*
X300191Y298700D01*
X300725Y297828D01*
X301390Y297050D01*
X302168Y296385D01*
X303040Y295851D01*
X303985Y295459D01*
X304980Y295220D01*
X305990Y295141D01*
Y283179D01*
X304980Y283100D01*
X303985Y282861D01*
X303040Y282469D01*
X302168Y281935D01*
X301390Y281270D01*
X300725Y280492D01*
X300191Y279620D01*
X299799Y278675D01*
X299560Y277680D01*
X299480Y276660D01*
X299560Y275640D01*
X299799Y274645D01*
X300191Y273700D01*
X300725Y272828D01*
X301390Y272050D01*
X302168Y271385D01*
X303040Y270851D01*
X303985Y270459D01*
X304980Y270220D01*
X305990Y270141D01*
Y230783D01*
X305390Y230270D01*
X304725Y229492D01*
X304191Y228620D01*
X303799Y227675D01*
X303560Y226680D01*
X303480Y225660D01*
X303560Y224640D01*
X303799Y223645D01*
X304191Y222700D01*
X304725Y221828D01*
X305390Y221050D01*
X305990Y220537D01*
Y195660D01*
X288150D01*
Y216364D01*
X288373Y216310D01*
X289001Y216261D01*
X289629Y216310D01*
X290241Y216457D01*
X290823Y216698D01*
X291360Y217027D01*
X291838Y217436D01*
X292247Y217915D01*
X292576Y218452D01*
X292817Y219033D01*
X292964Y219645D01*
X293001Y220273D01*
X292964Y220901D01*
X292817Y221513D01*
X292576Y222095D01*
X292247Y222632D01*
X291838Y223110D01*
X291360Y223519D01*
X290823Y223848D01*
X290241Y224089D01*
X289629Y224236D01*
X289001Y224285D01*
X288373Y224236D01*
X288150Y224182D01*
Y242722D01*
X288215Y242706D01*
X289000Y242645D01*
X289785Y242706D01*
X290550Y242890D01*
X291277Y243191D01*
X291948Y243602D01*
X292546Y244114D01*
X293058Y244712D01*
X293469Y245383D01*
X293770Y246110D01*
X293954Y246875D01*
X294000Y247660D01*
X293954Y248445D01*
X293770Y249210D01*
X293469Y249937D01*
X293058Y250608D01*
X292546Y251206D01*
X291948Y251718D01*
X291277Y252129D01*
X290550Y252430D01*
X289785Y252614D01*
X289000Y252675D01*
X288215Y252614D01*
X288150Y252598D01*
Y354160D01*
G37*
G36*
X282285D02*X288150D01*
Y252598D01*
X287450Y252430D01*
X286723Y252129D01*
X286052Y251718D01*
X285454Y251206D01*
X284942Y250608D01*
X284531Y249937D01*
X284230Y249210D01*
X284046Y248445D01*
X283998Y247827D01*
X283983Y248129D01*
X283918Y248594D01*
X283808Y249051D01*
X283657Y249495D01*
X283464Y249924D01*
X283232Y250332D01*
X283185Y250396D01*
X283128Y250452D01*
X283064Y250497D01*
X282992Y250532D01*
X282917Y250556D01*
X282838Y250567D01*
X282759Y250566D01*
X282680Y250553D01*
X282605Y250527D01*
X282535Y250490D01*
X282471Y250443D01*
X282416Y250386D01*
X282370Y250321D01*
X282335Y250250D01*
X282312Y250174D01*
X282300Y250095D01*
X282301Y250016D01*
X282315Y249938D01*
X282340Y249863D01*
X282379Y249793D01*
X282568Y249469D01*
X282721Y249127D01*
X282842Y248772D01*
X282930Y248406D01*
X282982Y248035D01*
X283000Y247660D01*
X282982Y247285D01*
X282930Y246914D01*
X282842Y246548D01*
X282721Y246193D01*
X282568Y245851D01*
X282382Y245525D01*
X282344Y245456D01*
X282319Y245381D01*
X282306Y245304D01*
X282305Y245225D01*
X282316Y245147D01*
X282339Y245072D01*
X282374Y245001D01*
X282419Y244937D01*
X282474Y244881D01*
X282537Y244833D01*
X282607Y244797D01*
X282681Y244772D01*
X282759Y244758D01*
X282838Y244757D01*
X282916Y244768D01*
X282991Y244792D01*
X283061Y244826D01*
X283126Y244872D01*
X283182Y244927D01*
X283228Y244991D01*
X283464Y245396D01*
X283657Y245825D01*
X283808Y246269D01*
X283918Y246726D01*
X283983Y247191D01*
X283998Y247493D01*
X284046Y246875D01*
X284230Y246110D01*
X284531Y245383D01*
X284942Y244712D01*
X285454Y244114D01*
X286052Y243602D01*
X286723Y243191D01*
X287450Y242890D01*
X288150Y242722D01*
Y224182D01*
X287761Y224089D01*
X287180Y223848D01*
X286643Y223519D01*
X286164Y223110D01*
X285755Y222632D01*
X285426Y222095D01*
X285185Y221513D01*
X285038Y220901D01*
X284989Y220273D01*
X285038Y219645D01*
X285185Y219033D01*
X285426Y218452D01*
X285755Y217915D01*
X286164Y217436D01*
X286643Y217027D01*
X287180Y216698D01*
X287761Y216457D01*
X288150Y216364D01*
Y195660D01*
X282285D01*
Y218142D01*
X282288Y218143D01*
X282356Y218182D01*
X282418Y218232D01*
X282470Y218290D01*
X282512Y218357D01*
X282675Y218681D01*
X282805Y219021D01*
X282902Y219371D01*
X282968Y219729D01*
X283001Y220091D01*
Y220455D01*
X282968Y220817D01*
X282902Y221175D01*
X282805Y221525D01*
X282675Y221865D01*
X282516Y222192D01*
X282473Y222258D01*
X282420Y222317D01*
X282358Y222367D01*
X282289Y222406D01*
X282285Y222408D01*
Y320571D01*
X282960Y320851D01*
X283832Y321385D01*
X284610Y322050D01*
X285275Y322828D01*
X285809Y323700D01*
X286201Y324645D01*
X286440Y325640D01*
X286500Y326660D01*
X286440Y327680D01*
X286201Y328675D01*
X285809Y329620D01*
X285275Y330492D01*
X284610Y331270D01*
X283832Y331935D01*
X282960Y332469D01*
X282285Y332749D01*
Y354160D01*
G37*
G36*
Y195660D02*X279002D01*
Y216273D01*
X279183D01*
X279545Y216306D01*
X279903Y216372D01*
X280253Y216470D01*
X280593Y216599D01*
X280920Y216759D01*
X280986Y216801D01*
X281045Y216855D01*
X281095Y216916D01*
X281134Y216985D01*
X281162Y217059D01*
X281179Y217136D01*
X281183Y217215D01*
X281174Y217294D01*
X281153Y217371D01*
X281121Y217443D01*
X281078Y217509D01*
X281025Y217568D01*
X280963Y217618D01*
X280894Y217657D01*
X280820Y217685D01*
X280743Y217702D01*
X280664Y217706D01*
X280585Y217697D01*
X280509Y217676D01*
X280437Y217643D01*
X280194Y217520D01*
X279939Y217424D01*
X279677Y217350D01*
X279409Y217301D01*
X279137Y217276D01*
X279002D01*
Y223270D01*
X279137D01*
X279409Y223245D01*
X279677Y223196D01*
X279939Y223123D01*
X280194Y223026D01*
X280439Y222906D01*
X280510Y222873D01*
X280586Y222852D01*
X280664Y222844D01*
X280742Y222848D01*
X280819Y222864D01*
X280893Y222892D01*
X280961Y222931D01*
X281023Y222981D01*
X281075Y223039D01*
X281118Y223105D01*
X281151Y223177D01*
X281171Y223253D01*
X281179Y223331D01*
X281176Y223410D01*
X281159Y223487D01*
X281131Y223560D01*
X281092Y223628D01*
X281043Y223690D01*
X280984Y223742D01*
X280918Y223784D01*
X280593Y223947D01*
X280253Y224077D01*
X279903Y224174D01*
X279545Y224240D01*
X279183Y224273D01*
X279002D01*
Y242655D01*
X279469Y242677D01*
X279934Y242742D01*
X280391Y242852D01*
X280835Y243003D01*
X281264Y243196D01*
X281672Y243428D01*
X281736Y243475D01*
X281792Y243532D01*
X281837Y243596D01*
X281872Y243668D01*
X281896Y243743D01*
X281907Y243822D01*
X281906Y243901D01*
X281893Y243980D01*
X281867Y244055D01*
X281830Y244125D01*
X281783Y244189D01*
X281726Y244244D01*
X281661Y244290D01*
X281590Y244325D01*
X281514Y244348D01*
X281435Y244360D01*
X281356Y244359D01*
X281278Y244345D01*
X281203Y244320D01*
X281133Y244281D01*
X280809Y244092D01*
X280467Y243939D01*
X280112Y243818D01*
X279746Y243730D01*
X279375Y243678D01*
X279002Y243660D01*
Y251660D01*
X279375Y251642D01*
X279746Y251590D01*
X280112Y251502D01*
X280467Y251381D01*
X280809Y251228D01*
X281135Y251042D01*
X281204Y251004D01*
X281279Y250979D01*
X281356Y250966D01*
X281435Y250965D01*
X281513Y250976D01*
X281588Y250999D01*
X281659Y251034D01*
X281723Y251079D01*
X281779Y251134D01*
X281827Y251197D01*
X281863Y251267D01*
X281888Y251341D01*
X281902Y251419D01*
X281903Y251498D01*
X281892Y251576D01*
X281868Y251651D01*
X281834Y251721D01*
X281788Y251786D01*
X281733Y251842D01*
X281669Y251888D01*
X281264Y252124D01*
X280835Y252317D01*
X280391Y252468D01*
X279934Y252578D01*
X279469Y252643D01*
X279002Y252665D01*
Y320218D01*
X280000Y320140D01*
X281020Y320220D01*
X282015Y320459D01*
X282285Y320571D01*
Y222408D01*
X282215Y222434D01*
X282138Y222451D01*
X282059Y222455D01*
X281980Y222446D01*
X281904Y222425D01*
X281831Y222393D01*
X281765Y222350D01*
X281706Y222297D01*
X281657Y222235D01*
X281617Y222166D01*
X281589Y222092D01*
X281573Y222015D01*
X281569Y221936D01*
X281577Y221857D01*
X281598Y221781D01*
X281632Y221709D01*
X281754Y221466D01*
X281851Y221211D01*
X281924Y220949D01*
X281973Y220681D01*
X281998Y220409D01*
Y220137D01*
X281973Y219866D01*
X281924Y219598D01*
X281851Y219335D01*
X281754Y219081D01*
X281634Y218836D01*
X281601Y218765D01*
X281580Y218689D01*
X281572Y218610D01*
X281576Y218532D01*
X281592Y218455D01*
X281620Y218381D01*
X281659Y218313D01*
X281709Y218252D01*
X281767Y218199D01*
X281833Y218156D01*
X281905Y218124D01*
X281981Y218103D01*
X282059Y218095D01*
X282138Y218099D01*
X282215Y218115D01*
X282285Y218142D01*
Y195660D01*
G37*
G36*
X279002Y354160D02*X282285D01*
Y332749D01*
X282015Y332861D01*
X281020Y333100D01*
X280000Y333180D01*
X279002Y333102D01*
Y354160D01*
G37*
G36*
X275717Y321770D02*X276168Y321385D01*
X277040Y320851D01*
X277985Y320459D01*
X278980Y320220D01*
X279002Y320218D01*
Y252665D01*
X279000Y252666D01*
X278531Y252643D01*
X278066Y252578D01*
X277609Y252468D01*
X277165Y252317D01*
X276736Y252124D01*
X276328Y251892D01*
X276264Y251845D01*
X276208Y251788D01*
X276163Y251724D01*
X276128Y251652D01*
X276104Y251577D01*
X276093Y251498D01*
X276094Y251419D01*
X276107Y251340D01*
X276133Y251265D01*
X276170Y251195D01*
X276217Y251131D01*
X276274Y251076D01*
X276339Y251030D01*
X276410Y250995D01*
X276486Y250972D01*
X276565Y250960D01*
X276644Y250961D01*
X276722Y250975D01*
X276797Y251000D01*
X276867Y251039D01*
X277191Y251228D01*
X277533Y251381D01*
X277888Y251502D01*
X278254Y251590D01*
X278625Y251642D01*
X279000Y251660D01*
X279002Y251660D01*
Y243660D01*
X279000Y243660D01*
X278625Y243678D01*
X278254Y243730D01*
X277888Y243818D01*
X277533Y243939D01*
X277191Y244092D01*
X276864Y244278D01*
X276796Y244316D01*
X276721Y244341D01*
X276644Y244354D01*
X276565Y244355D01*
X276487Y244344D01*
X276412Y244321D01*
X276341Y244286D01*
X276277Y244241D01*
X276221Y244186D01*
X276173Y244123D01*
X276137Y244053D01*
X276112Y243979D01*
X276098Y243901D01*
X276097Y243822D01*
X276108Y243744D01*
X276132Y243669D01*
X276166Y243599D01*
X276212Y243534D01*
X276267Y243478D01*
X276331Y243432D01*
X276736Y243196D01*
X277165Y243003D01*
X277609Y242852D01*
X278066Y242742D01*
X278531Y242677D01*
X279000Y242654D01*
X279002Y242655D01*
Y224273D01*
X278819D01*
X278457Y224240D01*
X278099Y224174D01*
X277749Y224077D01*
X277409Y223947D01*
X277083Y223788D01*
X277016Y223745D01*
X276957Y223692D01*
X276908Y223630D01*
X276868Y223561D01*
X276840Y223487D01*
X276824Y223410D01*
X276820Y223331D01*
X276828Y223252D01*
X276849Y223176D01*
X276881Y223103D01*
X276924Y223037D01*
X276978Y222978D01*
X277039Y222929D01*
X277108Y222889D01*
X277182Y222861D01*
X277259Y222845D01*
X277338Y222841D01*
X277417Y222849D01*
X277494Y222870D01*
X277565Y222904D01*
X277808Y223026D01*
X278063Y223123D01*
X278326Y223196D01*
X278594Y223245D01*
X278865Y223270D01*
X279002D01*
Y217276D01*
X278865D01*
X278594Y217301D01*
X278326Y217350D01*
X278063Y217424D01*
X277808Y217520D01*
X277564Y217640D01*
X277493Y217673D01*
X277417Y217694D01*
X277338Y217702D01*
X277260Y217698D01*
X277183Y217682D01*
X277109Y217654D01*
X277041Y217615D01*
X276980Y217566D01*
X276927Y217507D01*
X276884Y217441D01*
X276852Y217370D01*
X276831Y217294D01*
X276823Y217215D01*
X276827Y217137D01*
X276843Y217060D01*
X276871Y216986D01*
X276910Y216918D01*
X276960Y216857D01*
X277018Y216804D01*
X277085Y216762D01*
X277409Y216599D01*
X277749Y216470D01*
X278099Y216372D01*
X278457Y216306D01*
X278819Y216273D01*
X279002D01*
Y195660D01*
X275717D01*
Y218138D01*
X275787Y218112D01*
X275864Y218096D01*
X275943Y218092D01*
X276022Y218100D01*
X276099Y218121D01*
X276171Y218153D01*
X276237Y218196D01*
X276296Y218250D01*
X276346Y218311D01*
X276385Y218380D01*
X276413Y218454D01*
X276430Y218531D01*
X276433Y218610D01*
X276425Y218689D01*
X276404Y218766D01*
X276371Y218837D01*
X276248Y219081D01*
X276152Y219335D01*
X276078Y219598D01*
X276029Y219866D01*
X276004Y220137D01*
Y220409D01*
X276029Y220681D01*
X276078Y220949D01*
X276152Y221211D01*
X276248Y221466D01*
X276368Y221711D01*
X276401Y221782D01*
X276422Y221858D01*
X276430Y221936D01*
X276426Y222014D01*
X276410Y222092D01*
X276382Y222165D01*
X276343Y222233D01*
X276294Y222295D01*
X276235Y222347D01*
X276169Y222390D01*
X276098Y222423D01*
X276022Y222443D01*
X275943Y222451D01*
X275865Y222448D01*
X275788Y222431D01*
X275717Y222405D01*
Y321770D01*
G37*
G36*
Y354160D02*X279002D01*
Y333102D01*
X278980Y333100D01*
X277985Y332861D01*
X277040Y332469D01*
X276168Y331935D01*
X275717Y331550D01*
Y354160D01*
G37*
G36*
X265990Y351319D02*X266473Y351357D01*
X267911Y351702D01*
X269276Y352268D01*
X270536Y353040D01*
X271660Y354000D01*
X271797Y354160D01*
X275717D01*
Y331550D01*
X275390Y331270D01*
X274725Y330492D01*
X274191Y329620D01*
X273799Y328675D01*
X273560Y327680D01*
X273480Y326660D01*
X273560Y325640D01*
X273799Y324645D01*
X274191Y323700D01*
X274725Y322828D01*
X275390Y322050D01*
X275717Y321770D01*
Y222405D01*
X275714Y222403D01*
X275646Y222364D01*
X275585Y222315D01*
X275532Y222256D01*
X275490Y222190D01*
X275327Y221865D01*
X275198Y221525D01*
X275100Y221175D01*
X275034Y220817D01*
X275001Y220455D01*
Y220091D01*
X275034Y219729D01*
X275100Y219371D01*
X275198Y219021D01*
X275327Y218681D01*
X275487Y218355D01*
X275529Y218288D01*
X275582Y218229D01*
X275644Y218180D01*
X275713Y218140D01*
X275717Y218138D01*
Y195660D01*
X265990D01*
Y217640D01*
X266164Y217436D01*
X266643Y217027D01*
X267180Y216698D01*
X267761Y216457D01*
X268373Y216310D01*
X269001Y216261D01*
X269629Y216310D01*
X270241Y216457D01*
X270823Y216698D01*
X271360Y217027D01*
X271838Y217436D01*
X272247Y217915D01*
X272576Y218452D01*
X272817Y219033D01*
X272964Y219645D01*
X273001Y220273D01*
X272964Y220901D01*
X272817Y221513D01*
X272576Y222095D01*
X272247Y222632D01*
X271838Y223110D01*
X271360Y223519D01*
X270823Y223848D01*
X270241Y224089D01*
X269629Y224236D01*
X269001Y224285D01*
X268373Y224236D01*
X267761Y224089D01*
X267180Y223848D01*
X266643Y223519D01*
X266164Y223110D01*
X265990Y222907D01*
Y243655D01*
X266052Y243602D01*
X266723Y243191D01*
X267450Y242890D01*
X268215Y242706D01*
X269000Y242645D01*
X269785Y242706D01*
X270550Y242890D01*
X271277Y243191D01*
X271948Y243602D01*
X272546Y244114D01*
X273058Y244712D01*
X273469Y245383D01*
X273770Y246110D01*
X273954Y246875D01*
X273997Y247608D01*
X274017Y247191D01*
X274082Y246726D01*
X274192Y246269D01*
X274343Y245825D01*
X274536Y245396D01*
X274768Y244988D01*
X274815Y244924D01*
X274872Y244868D01*
X274936Y244823D01*
X275008Y244788D01*
X275083Y244764D01*
X275162Y244753D01*
X275241Y244754D01*
X275320Y244767D01*
X275395Y244793D01*
X275465Y244830D01*
X275529Y244877D01*
X275584Y244934D01*
X275630Y244999D01*
X275665Y245070D01*
X275688Y245146D01*
X275700Y245225D01*
X275699Y245304D01*
X275685Y245382D01*
X275660Y245457D01*
X275621Y245527D01*
X275432Y245851D01*
X275279Y246193D01*
X275158Y246548D01*
X275070Y246914D01*
X275018Y247285D01*
X275000Y247660D01*
X275018Y248035D01*
X275070Y248406D01*
X275158Y248772D01*
X275279Y249127D01*
X275432Y249469D01*
X275618Y249796D01*
X275656Y249864D01*
X275681Y249939D01*
X275694Y250016D01*
X275695Y250095D01*
X275684Y250173D01*
X275661Y250248D01*
X275626Y250319D01*
X275581Y250383D01*
X275526Y250439D01*
X275463Y250487D01*
X275393Y250523D01*
X275319Y250549D01*
X275241Y250562D01*
X275162Y250563D01*
X275084Y250552D01*
X275009Y250528D01*
X274939Y250494D01*
X274874Y250448D01*
X274818Y250393D01*
X274772Y250329D01*
X274536Y249924D01*
X274343Y249495D01*
X274192Y249051D01*
X274082Y248594D01*
X274017Y248129D01*
X273997Y247712D01*
X273954Y248445D01*
X273770Y249210D01*
X273469Y249937D01*
X273058Y250608D01*
X272546Y251206D01*
X271948Y251718D01*
X271277Y252129D01*
X270550Y252430D01*
X269785Y252614D01*
X269000Y252675D01*
X268215Y252614D01*
X267450Y252430D01*
X266723Y252129D01*
X266052Y251718D01*
X265990Y251665D01*
Y295141D01*
X266000Y295140D01*
X267020Y295220D01*
X268015Y295459D01*
X268960Y295851D01*
X269832Y296385D01*
X270610Y297050D01*
X271275Y297828D01*
X271809Y298700D01*
X272201Y299645D01*
X272440Y300640D01*
X272500Y301660D01*
X272440Y302680D01*
X272201Y303675D01*
X271809Y304620D01*
X271275Y305492D01*
X270610Y306270D01*
X269832Y306935D01*
X268960Y307469D01*
X268015Y307861D01*
X267020Y308100D01*
X266000Y308180D01*
X265990Y308179D01*
Y351319D01*
G37*
G36*
X297806Y406660D02*X311064D01*
X310428Y405622D01*
X309817Y404146D01*
X309444Y402593D01*
X309319Y401000D01*
X309444Y399407D01*
X309817Y397854D01*
X310428Y396378D01*
X311263Y395016D01*
X312301Y393801D01*
X313000Y393204D01*
Y383692D01*
X297806Y368498D01*
Y394803D01*
X297810Y394805D01*
X297913Y394864D01*
X298005Y394938D01*
X298084Y395025D01*
X298146Y395125D01*
X298391Y395612D01*
X298585Y396122D01*
X298732Y396648D01*
X298831Y397184D01*
X298880Y397727D01*
Y398273D01*
X298831Y398816D01*
X298732Y399352D01*
X298585Y399878D01*
X298391Y400388D01*
X298152Y400878D01*
X298088Y400978D01*
X298008Y401066D01*
X297915Y401140D01*
X297812Y401199D01*
X297806Y401202D01*
Y406660D01*
G37*
G36*
X292882D02*X297806D01*
Y401202D01*
X297701Y401242D01*
X297585Y401266D01*
X297467Y401272D01*
X297348Y401260D01*
X297234Y401229D01*
X297125Y401180D01*
X297026Y401115D01*
X296938Y401035D01*
X296863Y400943D01*
X296804Y400840D01*
X296762Y400729D01*
X296737Y400613D01*
X296731Y400494D01*
X296744Y400376D01*
X296775Y400261D01*
X296826Y400154D01*
X297009Y399789D01*
X297154Y399407D01*
X297264Y399013D01*
X297338Y398611D01*
X297375Y398204D01*
Y397796D01*
X297338Y397389D01*
X297264Y396987D01*
X297154Y396593D01*
X297009Y396211D01*
X296830Y395844D01*
X296780Y395737D01*
X296749Y395623D01*
X296736Y395506D01*
X296742Y395388D01*
X296766Y395272D01*
X296808Y395162D01*
X296867Y395060D01*
X296941Y394968D01*
X297029Y394889D01*
X297128Y394824D01*
X297235Y394776D01*
X297349Y394745D01*
X297467Y394732D01*
X297585Y394738D01*
X297700Y394763D01*
X297806Y394803D01*
Y368498D01*
X296468Y367160D01*
X292882D01*
Y392000D01*
X293153D01*
X293696Y392049D01*
X294232Y392148D01*
X294758Y392295D01*
X295268Y392489D01*
X295758Y392728D01*
X295858Y392792D01*
X295946Y392872D01*
X296020Y392965D01*
X296079Y393068D01*
X296122Y393179D01*
X296146Y393295D01*
X296152Y393413D01*
X296140Y393532D01*
X296109Y393646D01*
X296060Y393755D01*
X295995Y393854D01*
X295915Y393942D01*
X295823Y394017D01*
X295720Y394076D01*
X295609Y394118D01*
X295493Y394143D01*
X295374Y394149D01*
X295256Y394136D01*
X295141Y394105D01*
X295034Y394054D01*
X294669Y393871D01*
X294287Y393726D01*
X293893Y393616D01*
X293491Y393542D01*
X293084Y393505D01*
X292882D01*
Y402495D01*
X293084D01*
X293491Y402458D01*
X293893Y402384D01*
X294287Y402274D01*
X294669Y402129D01*
X295036Y401950D01*
X295143Y401900D01*
X295257Y401869D01*
X295374Y401856D01*
X295492Y401862D01*
X295608Y401886D01*
X295718Y401928D01*
X295820Y401987D01*
X295912Y402061D01*
X295991Y402149D01*
X296056Y402248D01*
X296104Y402355D01*
X296135Y402469D01*
X296148Y402587D01*
X296142Y402705D01*
X296117Y402820D01*
X296075Y402930D01*
X296016Y403033D01*
X295942Y403125D01*
X295855Y403204D01*
X295755Y403266D01*
X295268Y403511D01*
X294758Y403705D01*
X294232Y403852D01*
X293696Y403951D01*
X293153Y404000D01*
X292882D01*
Y406660D01*
G37*
G36*
X287954D02*X292882D01*
Y404000D01*
X292607D01*
X292064Y403951D01*
X291528Y403852D01*
X291002Y403705D01*
X290492Y403511D01*
X290002Y403272D01*
X289902Y403208D01*
X289814Y403128D01*
X289740Y403035D01*
X289681Y402932D01*
X289638Y402821D01*
X289614Y402705D01*
X289608Y402587D01*
X289620Y402468D01*
X289651Y402354D01*
X289700Y402245D01*
X289765Y402146D01*
X289845Y402058D01*
X289937Y401983D01*
X290040Y401924D01*
X290151Y401882D01*
X290267Y401857D01*
X290386Y401851D01*
X290504Y401864D01*
X290619Y401895D01*
X290726Y401946D01*
X291091Y402129D01*
X291473Y402274D01*
X291867Y402384D01*
X292269Y402458D01*
X292676Y402495D01*
X292882D01*
Y393505D01*
X292676D01*
X292269Y393542D01*
X291867Y393616D01*
X291473Y393726D01*
X291091Y393871D01*
X290724Y394050D01*
X290617Y394100D01*
X290503Y394131D01*
X290386Y394144D01*
X290268Y394138D01*
X290152Y394114D01*
X290042Y394072D01*
X289940Y394013D01*
X289848Y393939D01*
X289769Y393851D01*
X289704Y393752D01*
X289656Y393645D01*
X289625Y393531D01*
X289612Y393413D01*
X289618Y393295D01*
X289643Y393180D01*
X289685Y393070D01*
X289744Y392967D01*
X289818Y392875D01*
X289905Y392796D01*
X290005Y392734D01*
X290492Y392489D01*
X291002Y392295D01*
X291528Y392148D01*
X292064Y392049D01*
X292607Y392000D01*
X292882D01*
Y367160D01*
X287954D01*
Y384797D01*
X288243Y385268D01*
X288604Y386140D01*
X288824Y387058D01*
X288880Y388000D01*
X288824Y388942D01*
X288604Y389860D01*
X288243Y390732D01*
X287954Y391203D01*
Y394798D01*
X288059Y394758D01*
X288175Y394734D01*
X288293Y394728D01*
X288412Y394740D01*
X288526Y394771D01*
X288635Y394820D01*
X288734Y394885D01*
X288822Y394965D01*
X288897Y395057D01*
X288956Y395160D01*
X288998Y395271D01*
X289023Y395387D01*
X289029Y395506D01*
X289016Y395624D01*
X288985Y395739D01*
X288934Y395846D01*
X288751Y396211D01*
X288606Y396593D01*
X288496Y396987D01*
X288422Y397389D01*
X288385Y397796D01*
Y398204D01*
X288422Y398611D01*
X288496Y399013D01*
X288606Y399407D01*
X288751Y399789D01*
X288930Y400156D01*
X288980Y400263D01*
X289011Y400377D01*
X289024Y400494D01*
X289018Y400612D01*
X288994Y400728D01*
X288952Y400838D01*
X288893Y400940D01*
X288819Y401032D01*
X288731Y401111D01*
X288632Y401176D01*
X288525Y401224D01*
X288411Y401255D01*
X288293Y401268D01*
X288175Y401262D01*
X288060Y401237D01*
X287954Y401197D01*
Y406660D01*
G37*
G36*
Y367160D02*X282871D01*
Y381982D01*
X282880Y381981D01*
X283822Y382056D01*
X284740Y382276D01*
X285612Y382637D01*
X286418Y383131D01*
X287136Y383744D01*
X287749Y384462D01*
X287954Y384797D01*
Y367160D01*
G37*
G36*
X282871Y406660D02*X287954D01*
Y401197D01*
X287950Y401195D01*
X287847Y401136D01*
X287755Y401062D01*
X287676Y400975D01*
X287614Y400875D01*
X287369Y400388D01*
X287175Y399878D01*
X287028Y399352D01*
X286929Y398816D01*
X286880Y398273D01*
Y397727D01*
X286929Y397184D01*
X287028Y396648D01*
X287175Y396122D01*
X287369Y395612D01*
X287608Y395122D01*
X287672Y395022D01*
X287752Y394934D01*
X287845Y394860D01*
X287948Y394801D01*
X287954Y394798D01*
Y391203D01*
X287749Y391538D01*
X287136Y392256D01*
X286418Y392869D01*
X285612Y393363D01*
X284740Y393724D01*
X283822Y393944D01*
X282880Y394019D01*
X282871Y394018D01*
Y406660D01*
G37*
G36*
X272871D02*X282871D01*
Y394018D01*
X281938Y393944D01*
X281020Y393724D01*
X280148Y393363D01*
X279342Y392869D01*
X278624Y392256D01*
X278011Y391538D01*
X277517Y390732D01*
X277156Y389860D01*
X276936Y388942D01*
X276861Y388000D01*
X276936Y387058D01*
X277156Y386140D01*
X277517Y385268D01*
X278011Y384462D01*
X278624Y383744D01*
X279342Y383131D01*
X280148Y382637D01*
X281020Y382276D01*
X281938Y382056D01*
X282871Y381982D01*
Y367160D01*
X272871D01*
Y391982D01*
X272880Y391981D01*
X273822Y392056D01*
X274740Y392276D01*
X275612Y392637D01*
X276418Y393131D01*
X277136Y393744D01*
X277749Y394462D01*
X278243Y395268D01*
X278604Y396140D01*
X278824Y397058D01*
X278880Y398000D01*
X278824Y398942D01*
X278604Y399860D01*
X278243Y400732D01*
X277749Y401538D01*
X277136Y402256D01*
X276418Y402869D01*
X275612Y403363D01*
X274740Y403724D01*
X273822Y403944D01*
X272880Y404019D01*
X272871Y404018D01*
Y406660D01*
G37*
G36*
X265990D02*X272871D01*
Y404018D01*
X271938Y403944D01*
X271020Y403724D01*
X270148Y403363D01*
X269342Y402869D01*
X268624Y402256D01*
X268011Y401538D01*
X267517Y400732D01*
X267156Y399860D01*
X266936Y398942D01*
X266861Y398000D01*
X266936Y397058D01*
X267156Y396140D01*
X267517Y395268D01*
X268011Y394462D01*
X268624Y393744D01*
X269342Y393131D01*
X270148Y392637D01*
X271020Y392276D01*
X271938Y392056D01*
X272871Y391982D01*
Y367160D01*
X271797D01*
X271660Y367320D01*
X270536Y368280D01*
X269276Y369052D01*
X267911Y369618D01*
X266473Y369963D01*
X265990Y370001D01*
Y406660D01*
G37*
G36*
Y195660D02*X258995D01*
Y216261D01*
X259001Y216261D01*
X259629Y216310D01*
X260241Y216457D01*
X260823Y216698D01*
X261360Y217027D01*
X261838Y217436D01*
X262247Y217915D01*
X262576Y218452D01*
X262817Y219033D01*
X262964Y219645D01*
X263001Y220273D01*
X262964Y220901D01*
X262817Y221513D01*
X262576Y222095D01*
X262247Y222632D01*
X261838Y223110D01*
X261360Y223519D01*
X260823Y223848D01*
X260241Y224089D01*
X259629Y224236D01*
X259001Y224285D01*
X258995Y224285D01*
Y242645D01*
X259000Y242645D01*
X259785Y242706D01*
X260550Y242890D01*
X261277Y243191D01*
X261948Y243602D01*
X262546Y244114D01*
X263058Y244712D01*
X263469Y245383D01*
X263770Y246110D01*
X263954Y246875D01*
X263993Y247548D01*
X264046Y246875D01*
X264230Y246110D01*
X264531Y245383D01*
X264942Y244712D01*
X265454Y244114D01*
X265990Y243655D01*
Y222907D01*
X265755Y222632D01*
X265426Y222095D01*
X265185Y221513D01*
X265038Y220901D01*
X264989Y220273D01*
X265038Y219645D01*
X265185Y219033D01*
X265426Y218452D01*
X265755Y217915D01*
X265990Y217640D01*
Y195660D01*
G37*
G36*
X258995D02*X248995D01*
Y216261D01*
X249001Y216261D01*
X249629Y216310D01*
X250241Y216457D01*
X250823Y216698D01*
X251360Y217027D01*
X251838Y217436D01*
X252247Y217915D01*
X252576Y218452D01*
X252817Y219033D01*
X252964Y219645D01*
X253001Y220273D01*
X252964Y220901D01*
X252817Y221513D01*
X252576Y222095D01*
X252247Y222632D01*
X251838Y223110D01*
X251360Y223519D01*
X250823Y223848D01*
X250241Y224089D01*
X249629Y224236D01*
X249001Y224285D01*
X248995Y224285D01*
Y242645D01*
X249000Y242645D01*
X249785Y242706D01*
X250550Y242890D01*
X251277Y243191D01*
X251948Y243602D01*
X252546Y244114D01*
X253058Y244712D01*
X253469Y245383D01*
X253770Y246110D01*
X253954Y246875D01*
X253993Y247548D01*
X254046Y246875D01*
X254230Y246110D01*
X254531Y245383D01*
X254942Y244712D01*
X255454Y244114D01*
X256052Y243602D01*
X256723Y243191D01*
X257450Y242890D01*
X258215Y242706D01*
X258995Y242645D01*
Y224285D01*
X258373Y224236D01*
X257761Y224089D01*
X257180Y223848D01*
X256643Y223519D01*
X256164Y223110D01*
X255755Y222632D01*
X255426Y222095D01*
X255185Y221513D01*
X255038Y220901D01*
X254989Y220273D01*
X255038Y219645D01*
X255185Y219033D01*
X255426Y218452D01*
X255755Y217915D01*
X256164Y217436D01*
X256643Y217027D01*
X257180Y216698D01*
X257761Y216457D01*
X258373Y216310D01*
X258995Y216261D01*
Y195660D01*
G37*
G36*
X248995D02*X238995D01*
Y216261D01*
X239001Y216261D01*
X239629Y216310D01*
X240241Y216457D01*
X240823Y216698D01*
X241360Y217027D01*
X241838Y217436D01*
X242247Y217915D01*
X242576Y218452D01*
X242817Y219033D01*
X242964Y219645D01*
X243001Y220273D01*
X242964Y220901D01*
X242817Y221513D01*
X242576Y222095D01*
X242247Y222632D01*
X241838Y223110D01*
X241360Y223519D01*
X240823Y223848D01*
X240241Y224089D01*
X239629Y224236D01*
X239001Y224285D01*
X238995Y224285D01*
Y242645D01*
X239000Y242645D01*
X239785Y242706D01*
X240550Y242890D01*
X241277Y243191D01*
X241948Y243602D01*
X242546Y244114D01*
X243058Y244712D01*
X243469Y245383D01*
X243770Y246110D01*
X243954Y246875D01*
X243993Y247548D01*
X244046Y246875D01*
X244230Y246110D01*
X244531Y245383D01*
X244942Y244712D01*
X245454Y244114D01*
X246052Y243602D01*
X246723Y243191D01*
X247450Y242890D01*
X248215Y242706D01*
X248995Y242645D01*
Y224285D01*
X248373Y224236D01*
X247761Y224089D01*
X247180Y223848D01*
X246643Y223519D01*
X246164Y223110D01*
X245755Y222632D01*
X245426Y222095D01*
X245185Y221513D01*
X245038Y220901D01*
X244989Y220273D01*
X245038Y219645D01*
X245185Y219033D01*
X245426Y218452D01*
X245755Y217915D01*
X246164Y217436D01*
X246643Y217027D01*
X247180Y216698D01*
X247761Y216457D01*
X248373Y216310D01*
X248995Y216261D01*
Y195660D01*
G37*
G36*
X238995D02*X230990D01*
Y216801D01*
X231360Y217027D01*
X231838Y217436D01*
X232247Y217915D01*
X232576Y218452D01*
X232817Y219033D01*
X232964Y219645D01*
X233001Y220273D01*
X232964Y220901D01*
X232817Y221513D01*
X232576Y222095D01*
X232247Y222632D01*
X231838Y223110D01*
X231360Y223519D01*
X230990Y223746D01*
Y243072D01*
X231277Y243191D01*
X231948Y243602D01*
X232546Y244114D01*
X233058Y244712D01*
X233469Y245383D01*
X233770Y246110D01*
X233954Y246875D01*
X233993Y247548D01*
X234046Y246875D01*
X234230Y246110D01*
X234531Y245383D01*
X234942Y244712D01*
X235454Y244114D01*
X236052Y243602D01*
X236723Y243191D01*
X237450Y242890D01*
X238215Y242706D01*
X238995Y242645D01*
Y224285D01*
X238373Y224236D01*
X237761Y224089D01*
X237180Y223848D01*
X236643Y223519D01*
X236164Y223110D01*
X235755Y222632D01*
X235426Y222095D01*
X235185Y221513D01*
X235038Y220901D01*
X234989Y220273D01*
X235038Y219645D01*
X235185Y219033D01*
X235426Y218452D01*
X235755Y217915D01*
X236164Y217436D01*
X236643Y217027D01*
X237180Y216698D01*
X237761Y216457D01*
X238373Y216310D01*
X238995Y216261D01*
Y195660D01*
G37*
G36*
X254122Y406660D02*X265990D01*
Y370001D01*
X265000Y370079D01*
X263527Y369963D01*
X262089Y369618D01*
X260724Y369052D01*
X259464Y368280D01*
X258340Y367320D01*
X257380Y366196D01*
X256608Y364936D01*
X256042Y363571D01*
X255697Y362133D01*
X255581Y360660D01*
X255697Y359187D01*
X256042Y357749D01*
X256608Y356384D01*
X257380Y355124D01*
X258340Y354000D01*
X259464Y353040D01*
X260724Y352268D01*
X262089Y351702D01*
X263527Y351357D01*
X265000Y351241D01*
X265990Y351319D01*
Y308179D01*
X264980Y308100D01*
X263985Y307861D01*
X263040Y307469D01*
X262168Y306935D01*
X261390Y306270D01*
X260725Y305492D01*
X260191Y304620D01*
X259799Y303675D01*
X259560Y302680D01*
X259480Y301660D01*
X259560Y300640D01*
X259799Y299645D01*
X260191Y298700D01*
X260725Y297828D01*
X261390Y297050D01*
X262168Y296385D01*
X263040Y295851D01*
X263985Y295459D01*
X264980Y295220D01*
X265990Y295141D01*
Y251665D01*
X265454Y251206D01*
X264942Y250608D01*
X264531Y249937D01*
X264230Y249210D01*
X264046Y248445D01*
X263993Y247772D01*
X263954Y248445D01*
X263770Y249210D01*
X263469Y249937D01*
X263058Y250608D01*
X262546Y251206D01*
X261948Y251718D01*
X261277Y252129D01*
X260550Y252430D01*
X259785Y252614D01*
X259000Y252675D01*
X258215Y252614D01*
X257450Y252430D01*
X256723Y252129D01*
X256052Y251718D01*
X255454Y251206D01*
X254942Y250608D01*
X254531Y249937D01*
X254230Y249210D01*
X254122Y248758D01*
Y273818D01*
X254203Y273825D01*
X254394Y273872D01*
X254576Y273948D01*
X254743Y274052D01*
X254892Y274180D01*
X255019Y274330D01*
X255121Y274499D01*
X255192Y274682D01*
X255348Y275235D01*
X255449Y275800D01*
X255500Y276373D01*
Y276947D01*
X255449Y277520D01*
X255348Y278085D01*
X255198Y278640D01*
X255125Y278823D01*
X255022Y278992D01*
X254895Y279143D01*
X254745Y279271D01*
X254578Y279375D01*
X254396Y279452D01*
X254204Y279499D01*
X254122Y279506D01*
Y369898D01*
X254623Y370105D01*
X256133Y371030D01*
X257479Y372181D01*
X258630Y373527D01*
X259555Y375037D01*
X260232Y376673D01*
X260646Y378395D01*
X260750Y380160D01*
X260646Y381925D01*
X260232Y383647D01*
X259555Y385283D01*
X258630Y386793D01*
X257479Y388139D01*
X256133Y389290D01*
X254623Y390215D01*
X254122Y390422D01*
Y406660D01*
G37*
G36*
Y248758D02*X254046Y248445D01*
X253993Y247772D01*
X253954Y248445D01*
X253770Y249210D01*
X253469Y249937D01*
X253058Y250608D01*
X252546Y251206D01*
X251948Y251718D01*
X251277Y252129D01*
X250550Y252430D01*
X249785Y252614D01*
X249002Y252675D01*
Y270160D01*
X249287D01*
X249860Y270211D01*
X250425Y270312D01*
X250980Y270462D01*
X251163Y270535D01*
X251332Y270638D01*
X251483Y270765D01*
X251611Y270915D01*
X251715Y271082D01*
X251792Y271264D01*
X251839Y271456D01*
X251855Y271653D01*
X251841Y271850D01*
X251796Y272042D01*
X251721Y272224D01*
X251619Y272393D01*
X251491Y272544D01*
X251342Y272673D01*
X251174Y272777D01*
X250992Y272853D01*
X250801Y272900D01*
X250604Y272917D01*
X250407Y272902D01*
X250216Y272853D01*
X249876Y272757D01*
X249529Y272695D01*
X249177Y272664D01*
X249002D01*
Y280656D01*
X249177D01*
X249529Y280625D01*
X249876Y280563D01*
X250217Y280470D01*
X250408Y280422D01*
X250604Y280407D01*
X250800Y280424D01*
X250991Y280470D01*
X251172Y280547D01*
X251340Y280650D01*
X251489Y280779D01*
X251616Y280929D01*
X251718Y281097D01*
X251792Y281279D01*
X251837Y281471D01*
X251851Y281667D01*
X251835Y281863D01*
X251788Y282054D01*
X251712Y282236D01*
X251608Y282403D01*
X251480Y282552D01*
X251330Y282679D01*
X251161Y282781D01*
X250978Y282852D01*
X250425Y283008D01*
X249860Y283109D01*
X249287Y283160D01*
X249002D01*
Y368914D01*
X249500Y368875D01*
X251265Y369014D01*
X252987Y369428D01*
X254122Y369898D01*
Y279506D01*
X254007Y279515D01*
X253810Y279501D01*
X253618Y279456D01*
X253436Y279381D01*
X253267Y279279D01*
X253116Y279151D01*
X252987Y279002D01*
X252883Y278834D01*
X252807Y278652D01*
X252760Y278461D01*
X252743Y278264D01*
X252758Y278067D01*
X252807Y277876D01*
X252903Y277536D01*
X252965Y277189D01*
X252996Y276837D01*
Y276483D01*
X252965Y276131D01*
X252903Y275784D01*
X252810Y275443D01*
X252762Y275252D01*
X252747Y275056D01*
X252764Y274860D01*
X252810Y274669D01*
X252887Y274488D01*
X252990Y274320D01*
X253119Y274171D01*
X253269Y274044D01*
X253437Y273942D01*
X253619Y273868D01*
X253811Y273823D01*
X254007Y273809D01*
X254122Y273818D01*
Y248758D01*
G37*
G36*
X249002Y406660D02*X254122D01*
Y390422D01*
X252987Y390892D01*
X251265Y391306D01*
X249500Y391445D01*
X249002Y391406D01*
Y406660D01*
G37*
G36*
Y252675D02*X249000Y252675D01*
X248215Y252614D01*
X247450Y252430D01*
X246723Y252129D01*
X246052Y251718D01*
X245454Y251206D01*
X245122Y250818D01*
Y274497D01*
X245193Y274668D01*
X245240Y274859D01*
X245257Y275056D01*
X245242Y275253D01*
X245193Y275444D01*
X245122Y275697D01*
Y277626D01*
X245190Y277877D01*
X245238Y278068D01*
X245253Y278264D01*
X245236Y278460D01*
X245190Y278651D01*
X245122Y278813D01*
Y323818D01*
X245203Y323825D01*
X245394Y323872D01*
X245576Y323948D01*
X245743Y324052D01*
X245892Y324180D01*
X246019Y324330D01*
X246121Y324499D01*
X246192Y324682D01*
X246348Y325235D01*
X246449Y325800D01*
X246500Y326373D01*
Y326947D01*
X246449Y327520D01*
X246348Y328085D01*
X246198Y328640D01*
X246125Y328823D01*
X246022Y328992D01*
X245895Y329143D01*
X245745Y329271D01*
X245578Y329375D01*
X245396Y329452D01*
X245204Y329499D01*
X245122Y329506D01*
Y369797D01*
X246013Y369428D01*
X247735Y369014D01*
X249002Y368914D01*
Y283160D01*
X248713D01*
X248140Y283109D01*
X247575Y283008D01*
X247020Y282858D01*
X246837Y282785D01*
X246668Y282682D01*
X246517Y282555D01*
X246389Y282405D01*
X246285Y282238D01*
X246208Y282056D01*
X246161Y281864D01*
X246145Y281667D01*
X246159Y281470D01*
X246204Y281278D01*
X246279Y281096D01*
X246381Y280927D01*
X246509Y280776D01*
X246658Y280647D01*
X246826Y280543D01*
X247008Y280467D01*
X247199Y280420D01*
X247396Y280403D01*
X247593Y280418D01*
X247784Y280467D01*
X248124Y280563D01*
X248471Y280625D01*
X248823Y280656D01*
X249002D01*
Y272664D01*
X248823D01*
X248471Y272695D01*
X248124Y272757D01*
X247783Y272850D01*
X247592Y272898D01*
X247396Y272913D01*
X247200Y272896D01*
X247009Y272850D01*
X246828Y272773D01*
X246660Y272670D01*
X246511Y272541D01*
X246384Y272391D01*
X246282Y272223D01*
X246208Y272041D01*
X246163Y271849D01*
X246149Y271653D01*
X246165Y271457D01*
X246212Y271266D01*
X246288Y271084D01*
X246392Y270917D01*
X246520Y270768D01*
X246670Y270641D01*
X246839Y270539D01*
X247022Y270468D01*
X247575Y270312D01*
X248140Y270211D01*
X248713Y270160D01*
X249002D01*
Y252675D01*
G37*
G36*
X245122Y406660D02*X249002D01*
Y391406D01*
X247735Y391306D01*
X246013Y390892D01*
X245122Y390523D01*
Y406660D01*
G37*
G36*
Y275697D02*X245097Y275784D01*
X245035Y276131D01*
X245004Y276483D01*
Y276837D01*
X245035Y277189D01*
X245097Y277536D01*
X245122Y277626D01*
Y275697D01*
G37*
G36*
Y250818D02*X244942Y250608D01*
X244531Y249937D01*
X244230Y249210D01*
X244046Y248445D01*
X243993Y247772D01*
X243954Y248445D01*
X243770Y249210D01*
X243469Y249937D01*
X243058Y250608D01*
X242546Y251206D01*
X241948Y251718D01*
X241277Y252129D01*
X240550Y252430D01*
X240002Y252561D01*
Y320160D01*
X240287D01*
X240860Y320211D01*
X241425Y320312D01*
X241980Y320462D01*
X242163Y320535D01*
X242332Y320638D01*
X242483Y320765D01*
X242611Y320915D01*
X242715Y321082D01*
X242792Y321264D01*
X242839Y321456D01*
X242855Y321653D01*
X242841Y321850D01*
X242796Y322042D01*
X242721Y322224D01*
X242619Y322393D01*
X242491Y322544D01*
X242342Y322673D01*
X242174Y322777D01*
X241992Y322853D01*
X241801Y322900D01*
X241604Y322917D01*
X241407Y322902D01*
X241216Y322853D01*
X240876Y322757D01*
X240529Y322695D01*
X240177Y322664D01*
X240002D01*
Y330656D01*
X240177D01*
X240529Y330625D01*
X240876Y330563D01*
X241217Y330470D01*
X241408Y330422D01*
X241604Y330407D01*
X241800Y330424D01*
X241991Y330470D01*
X242172Y330547D01*
X242340Y330650D01*
X242489Y330779D01*
X242616Y330929D01*
X242718Y331097D01*
X242792Y331279D01*
X242837Y331471D01*
X242851Y331667D01*
X242835Y331863D01*
X242788Y332054D01*
X242712Y332236D01*
X242608Y332403D01*
X242480Y332552D01*
X242330Y332679D01*
X242161Y332781D01*
X241978Y332852D01*
X241425Y333008D01*
X240860Y333109D01*
X240287Y333160D01*
X240002D01*
Y374128D01*
X240370Y373527D01*
X241521Y372181D01*
X242867Y371030D01*
X244377Y370105D01*
X245122Y369797D01*
Y329506D01*
X245007Y329515D01*
X244810Y329501D01*
X244618Y329456D01*
X244436Y329381D01*
X244267Y329279D01*
X244116Y329151D01*
X243987Y329002D01*
X243883Y328834D01*
X243807Y328652D01*
X243760Y328461D01*
X243743Y328264D01*
X243758Y328067D01*
X243807Y327876D01*
X243903Y327536D01*
X243965Y327189D01*
X243996Y326837D01*
Y326483D01*
X243965Y326131D01*
X243903Y325784D01*
X243810Y325443D01*
X243762Y325252D01*
X243747Y325056D01*
X243764Y324860D01*
X243810Y324669D01*
X243887Y324488D01*
X243990Y324320D01*
X244119Y324171D01*
X244269Y324044D01*
X244437Y323942D01*
X244619Y323868D01*
X244811Y323823D01*
X245007Y323809D01*
X245122Y323818D01*
Y278813D01*
X245113Y278832D01*
X245010Y279000D01*
X244881Y279149D01*
X244731Y279276D01*
X244563Y279378D01*
X244381Y279452D01*
X244189Y279497D01*
X243993Y279511D01*
X243797Y279495D01*
X243606Y279448D01*
X243424Y279372D01*
X243257Y279268D01*
X243108Y279140D01*
X242981Y278990D01*
X242879Y278821D01*
X242808Y278638D01*
X242652Y278085D01*
X242551Y277520D01*
X242500Y276947D01*
Y276373D01*
X242551Y275800D01*
X242652Y275235D01*
X242802Y274680D01*
X242875Y274497D01*
X242978Y274328D01*
X243105Y274177D01*
X243255Y274049D01*
X243422Y273945D01*
X243604Y273868D01*
X243796Y273821D01*
X243993Y273805D01*
X244190Y273819D01*
X244382Y273864D01*
X244564Y273939D01*
X244733Y274041D01*
X244884Y274169D01*
X245013Y274318D01*
X245117Y274486D01*
X245122Y274497D01*
Y250818D01*
G37*
G36*
X240002Y406660D02*X245122D01*
Y390523D01*
X244377Y390215D01*
X242867Y389290D01*
X241521Y388139D01*
X240370Y386793D01*
X240002Y386192D01*
Y406660D01*
G37*
G36*
X234878D02*X240002D01*
Y386192D01*
X239445Y385283D01*
X238768Y383647D01*
X238354Y381925D01*
X238215Y380160D01*
X238354Y378395D01*
X238768Y376673D01*
X239445Y375037D01*
X240002Y374128D01*
Y333160D01*
X239713D01*
X239140Y333109D01*
X238575Y333008D01*
X238020Y332858D01*
X237837Y332785D01*
X237668Y332682D01*
X237517Y332555D01*
X237389Y332405D01*
X237285Y332238D01*
X237208Y332056D01*
X237161Y331864D01*
X237145Y331667D01*
X237159Y331470D01*
X237204Y331278D01*
X237279Y331096D01*
X237381Y330927D01*
X237509Y330776D01*
X237658Y330647D01*
X237826Y330543D01*
X238008Y330467D01*
X238199Y330420D01*
X238396Y330403D01*
X238593Y330418D01*
X238784Y330467D01*
X239124Y330563D01*
X239471Y330625D01*
X239823Y330656D01*
X240002D01*
Y322664D01*
X239823D01*
X239471Y322695D01*
X239124Y322757D01*
X238783Y322850D01*
X238592Y322898D01*
X238396Y322913D01*
X238200Y322896D01*
X238009Y322850D01*
X237828Y322773D01*
X237660Y322670D01*
X237511Y322541D01*
X237384Y322391D01*
X237282Y322223D01*
X237208Y322041D01*
X237163Y321849D01*
X237149Y321653D01*
X237165Y321457D01*
X237212Y321266D01*
X237288Y321084D01*
X237392Y320917D01*
X237520Y320768D01*
X237670Y320641D01*
X237839Y320539D01*
X238022Y320468D01*
X238575Y320312D01*
X239140Y320211D01*
X239713Y320160D01*
X240002D01*
Y252561D01*
X239785Y252614D01*
X239000Y252675D01*
X238215Y252614D01*
X237450Y252430D01*
X236723Y252129D01*
X236052Y251718D01*
X235454Y251206D01*
X234942Y250608D01*
X234878Y250503D01*
Y285249D01*
X234915Y285272D01*
X235710Y285950D01*
X236388Y286745D01*
X236935Y287636D01*
X237334Y288602D01*
X237578Y289618D01*
X237640Y290660D01*
X237578Y291702D01*
X237500Y292029D01*
Y311291D01*
X237578Y311618D01*
X237640Y312660D01*
X237578Y313702D01*
X237334Y314718D01*
X236935Y315684D01*
X236388Y316575D01*
X235710Y317370D01*
X234915Y318048D01*
X234878Y318071D01*
Y323814D01*
X234993Y323805D01*
X235190Y323819D01*
X235382Y323864D01*
X235564Y323939D01*
X235733Y324041D01*
X235884Y324169D01*
X236013Y324318D01*
X236117Y324486D01*
X236193Y324668D01*
X236240Y324859D01*
X236257Y325056D01*
X236242Y325253D01*
X236193Y325444D01*
X236097Y325784D01*
X236035Y326131D01*
X236004Y326483D01*
Y326837D01*
X236035Y327189D01*
X236097Y327536D01*
X236190Y327877D01*
X236238Y328068D01*
X236253Y328264D01*
X236236Y328460D01*
X236190Y328651D01*
X236113Y328832D01*
X236010Y329000D01*
X235881Y329149D01*
X235731Y329276D01*
X235563Y329378D01*
X235381Y329452D01*
X235189Y329497D01*
X234993Y329511D01*
X234878Y329502D01*
Y406660D01*
G37*
G36*
Y250503D02*X234531Y249937D01*
X234230Y249210D01*
X234046Y248445D01*
X233993Y247772D01*
X233954Y248445D01*
X233770Y249210D01*
X233469Y249937D01*
X233058Y250608D01*
X232546Y251206D01*
X231948Y251718D01*
X231277Y252129D01*
X230990Y252248D01*
Y284000D01*
X231000Y284000D01*
X232042Y284082D01*
X233058Y284326D01*
X234024Y284725D01*
X234878Y285249D01*
Y250503D01*
G37*
G36*
X230990Y406660D02*X234878D01*
Y329502D01*
X234797Y329495D01*
X234606Y329448D01*
X234424Y329372D01*
X234257Y329268D01*
X234108Y329140D01*
X233981Y328990D01*
X233879Y328821D01*
X233808Y328638D01*
X233652Y328085D01*
X233551Y327520D01*
X233500Y326947D01*
Y326373D01*
X233551Y325800D01*
X233652Y325235D01*
X233802Y324680D01*
X233875Y324497D01*
X233978Y324328D01*
X234105Y324177D01*
X234255Y324049D01*
X234422Y323945D01*
X234604Y323868D01*
X234796Y323821D01*
X234878Y323814D01*
Y318071D01*
X234024Y318595D01*
X233058Y318994D01*
X232042Y319238D01*
X231000Y319320D01*
X230990Y319320D01*
Y355119D01*
X231127Y355152D01*
X231891Y355468D01*
X232595Y355900D01*
X233224Y356436D01*
X233760Y357065D01*
X234192Y357769D01*
X234508Y358533D01*
X234701Y359336D01*
X234750Y360160D01*
X234701Y360984D01*
X234508Y361787D01*
X234192Y362551D01*
X233760Y363255D01*
X233224Y363884D01*
X232595Y364420D01*
X231891Y364852D01*
X231127Y365168D01*
X230990Y365201D01*
Y406660D01*
G37*
G36*
X218995Y242645D02*X219000Y242645D01*
X219785Y242706D01*
X220550Y242890D01*
X221277Y243191D01*
X221948Y243602D01*
X222546Y244114D01*
X223058Y244712D01*
X223469Y245383D01*
X223770Y246110D01*
X223954Y246875D01*
X223993Y247548D01*
X224046Y246875D01*
X224230Y246110D01*
X224531Y245383D01*
X224942Y244712D01*
X225454Y244114D01*
X226052Y243602D01*
X226723Y243191D01*
X227450Y242890D01*
X228215Y242706D01*
X229000Y242645D01*
X229785Y242706D01*
X230550Y242890D01*
X230990Y243072D01*
Y223746D01*
X230823Y223848D01*
X230241Y224089D01*
X229629Y224236D01*
X229001Y224285D01*
X228373Y224236D01*
X227761Y224089D01*
X227180Y223848D01*
X226643Y223519D01*
X226164Y223110D01*
X225755Y222632D01*
X225426Y222095D01*
X225185Y221513D01*
X225038Y220901D01*
X224989Y220273D01*
X225038Y219645D01*
X225185Y219033D01*
X225426Y218452D01*
X225755Y217915D01*
X226164Y217436D01*
X226643Y217027D01*
X227180Y216698D01*
X227761Y216457D01*
X228373Y216310D01*
X229001Y216261D01*
X229629Y216310D01*
X230241Y216457D01*
X230823Y216698D01*
X230990Y216801D01*
Y195660D01*
X218995D01*
Y216261D01*
X219001Y216261D01*
X219629Y216310D01*
X220241Y216457D01*
X220823Y216698D01*
X221360Y217027D01*
X221838Y217436D01*
X222247Y217915D01*
X222576Y218452D01*
X222817Y219033D01*
X222964Y219645D01*
X223001Y220273D01*
X222964Y220901D01*
X222817Y221513D01*
X222576Y222095D01*
X222247Y222632D01*
X221838Y223110D01*
X221360Y223519D01*
X220823Y223848D01*
X220241Y224089D01*
X219629Y224236D01*
X219001Y224285D01*
X218995Y224285D01*
Y242645D01*
G37*
G36*
X208990Y242645D02*X209000Y242645D01*
X209785Y242706D01*
X210550Y242890D01*
X211277Y243191D01*
X211948Y243602D01*
X212546Y244114D01*
X213058Y244712D01*
X213469Y245383D01*
X213770Y246110D01*
X213954Y246875D01*
X213993Y247548D01*
X214046Y246875D01*
X214230Y246110D01*
X214531Y245383D01*
X214942Y244712D01*
X215454Y244114D01*
X216052Y243602D01*
X216723Y243191D01*
X217450Y242890D01*
X218215Y242706D01*
X218995Y242645D01*
Y224285D01*
X218373Y224236D01*
X217761Y224089D01*
X217180Y223848D01*
X216643Y223519D01*
X216164Y223110D01*
X215755Y222632D01*
X215426Y222095D01*
X215185Y221513D01*
X215038Y220901D01*
X214989Y220273D01*
X215038Y219645D01*
X215185Y219033D01*
X215426Y218452D01*
X215755Y217915D01*
X216164Y217436D01*
X216643Y217027D01*
X217180Y216698D01*
X217761Y216457D01*
X218373Y216310D01*
X218995Y216261D01*
Y195660D01*
X208990D01*
Y216262D01*
X209001Y216261D01*
X209629Y216310D01*
X210241Y216457D01*
X210823Y216698D01*
X211360Y217027D01*
X211838Y217436D01*
X212247Y217915D01*
X212576Y218452D01*
X212817Y219033D01*
X212964Y219645D01*
X213001Y220273D01*
X212964Y220901D01*
X212817Y221513D01*
X212576Y222095D01*
X212247Y222632D01*
X211838Y223110D01*
X211360Y223519D01*
X210823Y223848D01*
X210241Y224089D01*
X209629Y224236D01*
X209001Y224285D01*
X208990Y224285D01*
Y242645D01*
G37*
G36*
X219502Y406660D02*X230990D01*
Y365201D01*
X230324Y365361D01*
X229500Y365426D01*
X228676Y365361D01*
X227873Y365168D01*
X227109Y364852D01*
X226405Y364420D01*
X225776Y363884D01*
X225240Y363255D01*
X224808Y362551D01*
X224493Y361792D01*
X224476Y361852D01*
X224296Y362310D01*
X224074Y362749D01*
X224019Y362832D01*
X223951Y362904D01*
X223873Y362965D01*
X223786Y363013D01*
X223693Y363047D01*
X223596Y363066D01*
X223497Y363069D01*
X223399Y363057D01*
X223304Y363030D01*
X223214Y362988D01*
X223132Y362932D01*
X223059Y362865D01*
X222998Y362787D01*
X222950Y362700D01*
X222916Y362607D01*
X222898Y362510D01*
X222894Y362411D01*
X222906Y362312D01*
X222934Y362217D01*
X222977Y362128D01*
X223150Y361796D01*
X223287Y361448D01*
X223391Y361088D01*
X223461Y360720D01*
X223496Y360347D01*
Y359973D01*
X223461Y359600D01*
X223391Y359232D01*
X223287Y358872D01*
X223150Y358524D01*
X222981Y358189D01*
X222938Y358101D01*
X222911Y358007D01*
X222898Y357909D01*
X222902Y357811D01*
X222921Y357714D01*
X222954Y357622D01*
X223002Y357536D01*
X223062Y357458D01*
X223134Y357391D01*
X223216Y357336D01*
X223305Y357294D01*
X223400Y357267D01*
X223497Y357255D01*
X223596Y357259D01*
X223692Y357277D01*
X223785Y357311D01*
X223871Y357359D01*
X223948Y357419D01*
X224015Y357491D01*
X224069Y357574D01*
X224296Y358010D01*
X224476Y358468D01*
X224493Y358528D01*
X224808Y357769D01*
X225240Y357065D01*
X225776Y356436D01*
X226405Y355900D01*
X227109Y355468D01*
X227873Y355152D01*
X228676Y354959D01*
X229500Y354894D01*
X230324Y354959D01*
X230990Y355119D01*
Y319320D01*
X229958Y319238D01*
X228942Y318994D01*
X227976Y318595D01*
X227085Y318048D01*
X226290Y317370D01*
X225612Y316575D01*
X225065Y315684D01*
X224666Y314718D01*
X224422Y313702D01*
X224340Y312660D01*
X224422Y311618D01*
X224500Y311291D01*
Y292029D01*
X224422Y291702D01*
X224340Y290660D01*
X224422Y289618D01*
X224666Y288602D01*
X225065Y287636D01*
X225612Y286745D01*
X226290Y285950D01*
X227085Y285272D01*
X227976Y284725D01*
X228942Y284326D01*
X229958Y284082D01*
X230990Y284000D01*
Y252248D01*
X230550Y252430D01*
X229785Y252614D01*
X229000Y252675D01*
X228215Y252614D01*
X227450Y252430D01*
X226723Y252129D01*
X226052Y251718D01*
X225454Y251206D01*
X224942Y250608D01*
X224531Y249937D01*
X224230Y249210D01*
X224046Y248445D01*
X223993Y247772D01*
X223954Y248445D01*
X223770Y249210D01*
X223469Y249937D01*
X223058Y250608D01*
X222546Y251206D01*
X221948Y251718D01*
X221277Y252129D01*
X220550Y252430D01*
X219785Y252614D01*
X219502Y252636D01*
Y354910D01*
X219746D01*
X220236Y354956D01*
X220719Y355048D01*
X221192Y355184D01*
X221650Y355364D01*
X222089Y355586D01*
X222172Y355641D01*
X222244Y355709D01*
X222305Y355787D01*
X222353Y355874D01*
X222387Y355967D01*
X222406Y356064D01*
X222409Y356163D01*
X222397Y356261D01*
X222370Y356356D01*
X222328Y356446D01*
X222272Y356528D01*
X222205Y356601D01*
X222127Y356662D01*
X222040Y356710D01*
X221947Y356744D01*
X221850Y356762D01*
X221751Y356766D01*
X221652Y356754D01*
X221557Y356726D01*
X221468Y356683D01*
X221136Y356510D01*
X220788Y356373D01*
X220428Y356269D01*
X220060Y356199D01*
X219687Y356164D01*
X219502D01*
Y364156D01*
X219687D01*
X220060Y364121D01*
X220428Y364051D01*
X220788Y363947D01*
X221136Y363810D01*
X221471Y363641D01*
X221559Y363598D01*
X221653Y363571D01*
X221751Y363558D01*
X221849Y363562D01*
X221946Y363581D01*
X222038Y363614D01*
X222124Y363662D01*
X222202Y363722D01*
X222269Y363794D01*
X222324Y363876D01*
X222366Y363965D01*
X222393Y364060D01*
X222405Y364157D01*
X222401Y364256D01*
X222383Y364352D01*
X222349Y364445D01*
X222301Y364531D01*
X222241Y364608D01*
X222169Y364675D01*
X222086Y364729D01*
X221650Y364956D01*
X221192Y365136D01*
X220719Y365272D01*
X220236Y365364D01*
X219746Y365410D01*
X219502D01*
Y374951D01*
X219555Y375037D01*
X220232Y376673D01*
X220646Y378395D01*
X220750Y380160D01*
X220646Y381925D01*
X220232Y383647D01*
X219555Y385283D01*
X219502Y385369D01*
Y406660D01*
G37*
G36*
Y252636D02*X219000Y252675D01*
X218215Y252614D01*
X217450Y252430D01*
X216723Y252129D01*
X216052Y251718D01*
X215454Y251206D01*
X215178Y250884D01*
Y274590D01*
X215201Y274645D01*
X215440Y275640D01*
X215500Y276660D01*
X215440Y277680D01*
X215201Y278675D01*
X215178Y278730D01*
Y291590D01*
X215201Y291645D01*
X215440Y292640D01*
X215500Y293660D01*
X215440Y294680D01*
X215201Y295675D01*
X215178Y295730D01*
Y331590D01*
X215201Y331645D01*
X215440Y332640D01*
X215500Y333660D01*
X215440Y334680D01*
X215201Y335675D01*
X215178Y335730D01*
Y357327D01*
X215214Y357307D01*
X215307Y357273D01*
X215404Y357254D01*
X215503Y357251D01*
X215601Y357263D01*
X215696Y357290D01*
X215786Y357332D01*
X215868Y357388D01*
X215941Y357455D01*
X216002Y357533D01*
X216050Y357620D01*
X216084Y357713D01*
X216102Y357810D01*
X216106Y357909D01*
X216094Y358008D01*
X216066Y358103D01*
X216023Y358192D01*
X215850Y358524D01*
X215713Y358872D01*
X215609Y359232D01*
X215539Y359600D01*
X215504Y359973D01*
Y360347D01*
X215539Y360720D01*
X215609Y361088D01*
X215713Y361448D01*
X215850Y361796D01*
X216019Y362131D01*
X216062Y362219D01*
X216089Y362313D01*
X216102Y362411D01*
X216098Y362509D01*
X216079Y362606D01*
X216046Y362698D01*
X215998Y362784D01*
X215938Y362862D01*
X215866Y362929D01*
X215784Y362984D01*
X215695Y363026D01*
X215600Y363053D01*
X215503Y363065D01*
X215404Y363061D01*
X215308Y363043D01*
X215215Y363009D01*
X215178Y362988D01*
Y370445D01*
X216133Y371030D01*
X217479Y372181D01*
X218630Y373527D01*
X219502Y374951D01*
Y365410D01*
X219254D01*
X218764Y365364D01*
X218281Y365272D01*
X217808Y365136D01*
X217350Y364956D01*
X216911Y364734D01*
X216828Y364679D01*
X216756Y364611D01*
X216695Y364533D01*
X216647Y364446D01*
X216613Y364353D01*
X216594Y364256D01*
X216591Y364157D01*
X216603Y364059D01*
X216630Y363964D01*
X216672Y363874D01*
X216728Y363792D01*
X216795Y363719D01*
X216873Y363658D01*
X216960Y363610D01*
X217053Y363576D01*
X217150Y363558D01*
X217249Y363554D01*
X217348Y363566D01*
X217443Y363594D01*
X217532Y363637D01*
X217864Y363810D01*
X218212Y363947D01*
X218572Y364051D01*
X218940Y364121D01*
X219313Y364156D01*
X219502D01*
Y356164D01*
X219313D01*
X218940Y356199D01*
X218572Y356269D01*
X218212Y356373D01*
X217864Y356510D01*
X217529Y356679D01*
X217441Y356722D01*
X217347Y356749D01*
X217249Y356762D01*
X217151Y356758D01*
X217054Y356739D01*
X216962Y356706D01*
X216876Y356658D01*
X216798Y356598D01*
X216731Y356526D01*
X216676Y356444D01*
X216634Y356355D01*
X216607Y356260D01*
X216595Y356163D01*
X216599Y356064D01*
X216617Y355968D01*
X216651Y355875D01*
X216699Y355789D01*
X216759Y355712D01*
X216831Y355645D01*
X216914Y355591D01*
X217350Y355364D01*
X217808Y355184D01*
X218281Y355048D01*
X218764Y354956D01*
X219254Y354910D01*
X219502D01*
Y252636D01*
G37*
G36*
X215178Y335730D02*X214809Y336620D01*
X214275Y337492D01*
X213610Y338270D01*
X212832Y338935D01*
X211960Y339469D01*
X211015Y339861D01*
X210020Y340100D01*
X209000Y340180D01*
X208990Y340179D01*
Y368915D01*
X209500Y368875D01*
X211265Y369014D01*
X212987Y369428D01*
X214623Y370105D01*
X215178Y370445D01*
Y362988D01*
X215129Y362961D01*
X215052Y362901D01*
X214985Y362829D01*
X214931Y362746D01*
X214704Y362310D01*
X214524Y361852D01*
X214388Y361379D01*
X214296Y360896D01*
X214250Y360406D01*
Y359914D01*
X214296Y359424D01*
X214388Y358941D01*
X214524Y358468D01*
X214704Y358010D01*
X214926Y357571D01*
X214981Y357488D01*
X215049Y357416D01*
X215127Y357355D01*
X215178Y357327D01*
Y335730D01*
G37*
G36*
Y295730D02*X214809Y296620D01*
X214275Y297492D01*
X213610Y298270D01*
X212832Y298935D01*
X211960Y299469D01*
X211015Y299861D01*
X210020Y300100D01*
X209000Y300180D01*
X208990Y300179D01*
Y327141D01*
X209000Y327140D01*
X210020Y327220D01*
X211015Y327459D01*
X211960Y327851D01*
X212832Y328385D01*
X213610Y329050D01*
X214275Y329828D01*
X214809Y330700D01*
X215178Y331590D01*
Y295730D01*
G37*
G36*
Y278730D02*X214809Y279620D01*
X214275Y280492D01*
X213610Y281270D01*
X212832Y281935D01*
X211960Y282469D01*
X211015Y282861D01*
X210020Y283100D01*
X209000Y283180D01*
X208990Y283179D01*
Y287141D01*
X209000Y287140D01*
X210020Y287220D01*
X211015Y287459D01*
X211960Y287851D01*
X212832Y288385D01*
X213610Y289050D01*
X214275Y289828D01*
X214809Y290700D01*
X215178Y291590D01*
Y278730D01*
G37*
G36*
Y250884D02*X214942Y250608D01*
X214531Y249937D01*
X214230Y249210D01*
X214046Y248445D01*
X213993Y247772D01*
X213954Y248445D01*
X213770Y249210D01*
X213469Y249937D01*
X213058Y250608D01*
X212546Y251206D01*
X211948Y251718D01*
X211277Y252129D01*
X210550Y252430D01*
X209785Y252614D01*
X209000Y252675D01*
X208990Y252675D01*
Y270141D01*
X209000Y270140D01*
X210020Y270220D01*
X211015Y270459D01*
X211960Y270851D01*
X212832Y271385D01*
X213610Y272050D01*
X214275Y272828D01*
X214809Y273700D01*
X215178Y274590D01*
Y250884D01*
G37*
G36*
X213000Y406660D02*X219502D01*
Y385369D01*
X218630Y386793D01*
X217479Y388139D01*
X216133Y389290D01*
X214623Y390215D01*
X212987Y390892D01*
X211265Y391306D01*
X209500Y391445D01*
X208990Y391405D01*
Y405155D01*
X212000Y406660D01*
X213000D01*
G37*
G36*
X208990Y391405D02*X207735Y391306D01*
X206013Y390892D01*
X204377Y390215D01*
X202867Y389290D01*
X201521Y388139D01*
X201000Y387530D01*
Y393660D01*
X204000Y400660D01*
X208000Y404660D01*
X208990Y405155D01*
Y391405D01*
G37*
G36*
Y252675D02*X208215Y252614D01*
X207450Y252430D01*
X206723Y252129D01*
X206052Y251718D01*
X205454Y251206D01*
X204942Y250608D01*
X204531Y249937D01*
X204230Y249210D01*
X204046Y248445D01*
X203985Y247660D01*
X204046Y246875D01*
X204230Y246110D01*
X204531Y245383D01*
X204942Y244712D01*
X205454Y244114D01*
X206052Y243602D01*
X206723Y243191D01*
X207450Y242890D01*
X208215Y242706D01*
X208990Y242645D01*
Y224285D01*
X208373Y224236D01*
X207761Y224089D01*
X207180Y223848D01*
X206643Y223519D01*
X206164Y223110D01*
X205755Y222632D01*
X205426Y222095D01*
X205185Y221513D01*
X205038Y220901D01*
X204989Y220273D01*
X205038Y219645D01*
X205185Y219033D01*
X205426Y218452D01*
X205755Y217915D01*
X206164Y217436D01*
X206643Y217027D01*
X207180Y216698D01*
X207761Y216457D01*
X208373Y216310D01*
X208990Y216262D01*
Y195660D01*
X201000D01*
Y372790D01*
X201521Y372181D01*
X202867Y371030D01*
X204377Y370105D01*
X206013Y369428D01*
X207735Y369014D01*
X208990Y368915D01*
Y340179D01*
X207980Y340100D01*
X206985Y339861D01*
X206040Y339469D01*
X205168Y338935D01*
X204390Y338270D01*
X203725Y337492D01*
X203191Y336620D01*
X202799Y335675D01*
X202560Y334680D01*
X202480Y333660D01*
X202560Y332640D01*
X202799Y331645D01*
X203191Y330700D01*
X203725Y329828D01*
X204390Y329050D01*
X205168Y328385D01*
X206040Y327851D01*
X206985Y327459D01*
X207980Y327220D01*
X208990Y327141D01*
Y300179D01*
X207980Y300100D01*
X206985Y299861D01*
X206040Y299469D01*
X205168Y298935D01*
X204390Y298270D01*
X203725Y297492D01*
X203191Y296620D01*
X202799Y295675D01*
X202560Y294680D01*
X202480Y293660D01*
X202560Y292640D01*
X202799Y291645D01*
X203191Y290700D01*
X203725Y289828D01*
X204390Y289050D01*
X205168Y288385D01*
X206040Y287851D01*
X206985Y287459D01*
X207980Y287220D01*
X208990Y287141D01*
Y283179D01*
X207980Y283100D01*
X206985Y282861D01*
X206040Y282469D01*
X205168Y281935D01*
X204390Y281270D01*
X203725Y280492D01*
X203191Y279620D01*
X202799Y278675D01*
X202560Y277680D01*
X202480Y276660D01*
X202560Y275640D01*
X202799Y274645D01*
X203191Y273700D01*
X203725Y272828D01*
X204390Y272050D01*
X205168Y271385D01*
X206040Y270851D01*
X206985Y270459D01*
X207980Y270220D01*
X208990Y270141D01*
Y252675D01*
G37*
G54D12*X265000Y360660D02*X299160D01*
X231000Y290660D02*Y312660D01*
X329500Y321000D02*X308660D01*
X299000Y330660D01*
X299160Y360660D02*X319500Y381000D01*
Y401000D01*
X339500D01*
X351340Y299160D02*X329500Y321000D01*
X373000Y299160D02*X351340D01*
G54D13*X231000Y290660D03*
G54D14*X265000Y360660D03*
G54D13*X231000Y312660D03*
G54D12*X266000Y301660D03*
X240000Y326660D03*
X259000Y247660D03*
X269000D03*
X249000Y276660D03*
G54D15*X229001Y220273D03*
G54D12*X239000Y247660D03*
X249000D03*
X279000D03*
X280000Y326660D03*
X289000Y247660D03*
G54D15*X259001Y220273D03*
X249001D03*
X239001D03*
G54D12*X299000Y340660D03*
X306000Y276660D03*
Y301660D03*
X209000Y333660D03*
G54D16*X209500Y380160D03*
X249500D03*
G54D12*X219500Y360160D03*
X229500D03*
G54D17*X329500Y336000D03*
Y351000D03*
G54D18*X282880Y388000D03*
G54D12*X299000Y330660D03*
G54D17*X329500Y321000D03*
G54D12*X373000Y399160D03*
G54D19*X339500Y401000D03*
X319500D03*
G54D18*X272880Y398000D03*
X292880D03*
G54D12*X373000Y299160D03*
X209000Y293660D03*
X346000Y276660D03*
X209000D03*
G54D15*X219001Y220273D03*
X209001D03*
G54D12*X320000Y225660D03*
G54D15*X289001Y220273D03*
X279001D03*
X269001D03*
G54D12*X310000Y225660D03*
X209000Y247660D03*
X219000D03*
X229000D03*
G54D20*G54D21*G54D22*G54D21*G54D23*G54D22*G54D21*G54D22*G54D23*G54D21*G54D24*G54D25*G54D26*G54D15*G54D21*G54D26*G54D21*G54D26*G54D15*G54D21*G54D23*G54D21*G54D23*G54D21*G54D22*M02*
