G04 start of page 6 for group 2 layer_idx 0 *
G04 Title: (unknown), top_mask *
G04 Creator: pcb-rnd 1.2.4 *
G04 CreationDate: 2017-09-22 19:00:37 UTC *
G04 For:  *
G04 Format: Gerber/RS-274X *
G04 PCB-Dimensions: 600000 500000 *
G04 PCB-Coordinate-Origin: lower left *
%MOIN*%
%FSLAX25Y25*%
%LNTOPMASK*%
%ADD58C,0.2060*%
%ADD57C,0.1690*%
%ADD56C,0.0960*%
%ADD55C,0.0660*%
%ADD54C,0.1210*%
%ADD53C,0.0860*%
%ADD52C,0.0001*%
G54D52*G36*
X327200Y324960D02*Y316360D01*
X335800D01*
Y324960D01*
X327200D01*
G37*
G54D53*X405500Y279160D03*
X338500Y281660D03*
G54D54*X362000Y316000D03*
Y301000D03*
G54D53*X331500Y310660D03*
X312500Y306660D03*
X241500Y273660D03*
G54D52*G36*
X237200Y260960D02*Y252360D01*
X245800D01*
Y260960D01*
X237200D01*
G37*
G36*
X334200D02*Y252360D01*
X342800D01*
Y260960D01*
X334200D01*
G37*
G54D53*X281500Y256660D03*
G54D52*G36*
X294200Y285960D02*Y277360D01*
X302800D01*
Y285960D01*
X294200D01*
G37*
G54D53*X378500Y256660D03*
G54D55*X291501Y200273D03*
X281501D03*
X271501D03*
X261501D03*
X321501D03*
X311501D03*
X301501D03*
G54D52*G36*
X338200Y209960D02*Y201360D01*
X346800D01*
Y209960D01*
X338200D01*
G37*
G54D53*X352500Y205660D03*
G54D55*X251501Y200273D03*
G54D53*X251500Y227660D03*
X261500D03*
G54D52*G36*
X238201Y203573D02*Y196973D01*
X244801D01*
Y203573D01*
X238201D01*
G37*
G36*
X237200Y231960D02*Y223360D01*
X245800D01*
Y231960D01*
X237200D01*
G37*
G54D53*X271500Y227660D03*
X281500D03*
X291500D03*
X301500D03*
X311500D03*
X321500D03*
G54D52*G36*
X237200Y317960D02*Y309360D01*
X245800D01*
Y317960D01*
X237200D01*
G37*
G36*
X268200Y310960D02*Y302360D01*
X276800D01*
Y310960D01*
X268200D01*
G37*
G36*
X401200Y383460D02*Y374860D01*
X409800D01*
Y383460D01*
X401200D01*
G37*
G36*
X307587Y382800D02*Y373200D01*
X317187D01*
Y382800D01*
X307587D01*
G37*
G54D56*X322387Y368000D03*
X332387Y378000D03*
G54D57*X372000Y381000D03*
X352000D03*
G54D58*X242000Y360160D03*
X282000D03*
G54D53*X252000Y340160D03*
X262000D03*
G54D52*G36*
X355950Y337050D02*Y324950D01*
X368050D01*
Y337050D01*
X355950D01*
G37*
M02*
