G04 start of page 6 for group 10 layer_idx 1 *
G04 Title: (unknown), bottom_copper *
G04 Creator: pcb-rnd 2.0.0 *
G04 CreationDate: 2018-06-06 15:15:42 UTC *
G04 For:  *
G04 Format: Gerber/RS-274X *
G04 PCB-Dimensions: 500000 500000 *
G04 PCB-Coordinate-Origin: lower left *
%MOIN*%
%FSLAX25Y25*%
%LNBOTTOM*%
%ADD72C,0.0730*%
%ADD71C,0.0320*%
%ADD70C,0.0790*%
%ADD69C,0.0420*%
%ADD68C,0.0400*%
%ADD67C,0.0394*%
%ADD66C,0.0472*%
%ADD65C,0.1630*%
%ADD64C,0.0900*%
%ADD63C,0.1150*%
%ADD62C,0.2000*%
%ADD61C,0.0600*%
%ADD60C,0.1378*%
%ADD59C,0.0828*%
%ADD58C,0.0800*%
G54D58*X245000Y340660D02*X265000Y360660D01*
X235000Y340660D02*X245000D01*
X224000Y329660D02*X235000Y340660D01*
X229500Y354160D02*X209000Y333660D01*
X267500Y393000D02*Y381000D01*
X229500Y360160D02*Y354160D01*
X272880Y398000D02*X272500D01*
X267500Y393000D01*
X280000Y326660D02*Y368500D01*
X267500Y381000D02*X280000Y368500D01*
X299000Y340660D02*Y371880D01*
X329500Y351000D02*X321000D01*
X312500Y342500D01*
X299000Y371880D02*X282880Y388000D01*
X299000Y371500D02*X345340D01*
X373000Y399160D01*
X299000Y315660D02*Y330660D01*
X294000Y310660D02*X299000Y315660D01*
X294000Y288660D02*Y310660D01*
X280000Y315660D02*X266000Y301660D01*
X279920Y315580D02*Y326580D01*
X279887Y326613D01*
X269001Y220273D02*Y247659D01*
X294000Y288660D02*X306000Y276660D01*
X310000Y225660D02*Y247660D01*
X289000Y220274D02*X289001Y220273D01*
X289000Y247660D02*Y220274D01*
X259000D02*X259001Y220273D01*
X259000Y247660D02*Y220274D01*
X249001Y220273D02*Y247659D01*
X239000Y220274D02*X239001Y220273D01*
X239000Y247660D02*Y220274D01*
X224000Y319660D02*Y329660D01*
X231000Y312660D02*X224000Y319660D01*
X266000Y301660D02*X217000D01*
X231000Y269660D02*Y290660D01*
X217000Y301660D02*X209000Y293660D01*
Y276660D01*
X229001Y220273D02*Y247659D01*
X219000Y220274D02*X219001Y220273D01*
X219000Y247660D02*Y220274D01*
X209001Y220273D02*Y247659D01*
X224000Y262660D02*X231000Y269660D01*
X216000Y262660D02*X224000D01*
X209001Y255661D02*X216000Y262660D01*
X209001Y247660D02*Y255661D01*
X249001Y247659D02*X249000Y247660D01*
X229001Y247659D02*X229000Y247660D01*
X336000D02*X359500Y271160D01*
X289000Y247660D02*X336000D01*
X346000Y276660D02*X331000D01*
X306000Y301660D01*
X312500Y308160D02*X306000Y301660D01*
X209001Y247659D02*X209000Y247660D01*
X359500Y271160D02*Y304160D01*
Y304000D02*Y327000D01*
X350500Y336000D01*
X329500D01*
X312500Y342500D02*Y308160D01*
G54D59*X231000Y290660D03*
G54D60*X265000Y360660D03*
G54D59*X231000Y312660D03*
G54D58*X266000Y301660D03*
X240000Y326660D03*
X259000Y247660D03*
X269000D03*
X249000Y276660D03*
G54D61*X229001Y220273D03*
G54D58*X239000Y247660D03*
X249000D03*
X279000D03*
X280000Y326660D03*
X289000Y247660D03*
G54D61*X259001Y220273D03*
X249001D03*
X239001D03*
G54D58*X299000Y340660D03*
X306000Y276660D03*
Y301660D03*
X209000Y333660D03*
G54D62*X209500Y380160D03*
X249500D03*
G54D58*X219500Y360160D03*
X229500D03*
G54D63*X329500Y336000D03*
Y351000D03*
G54D64*X282880Y388000D03*
G54D58*X299000Y330660D03*
G54D63*X329500Y321000D03*
G54D58*X373000Y399160D03*
G54D65*X339500Y401000D03*
X319500D03*
G54D64*X272880Y398000D03*
X292880D03*
G54D58*X373000Y299160D03*
X209000Y293660D03*
X346000Y276660D03*
X209000D03*
G54D61*X219001Y220273D03*
X209001D03*
G54D58*X320000Y225660D03*
G54D61*X289001Y220273D03*
X279001D03*
X269001D03*
G54D58*X310000Y225660D03*
X209000Y247660D03*
X219000D03*
X229000D03*
G54D66*G54D67*G54D68*G54D67*G54D69*G54D68*G54D67*G54D68*G54D69*G54D67*G54D70*G54D71*G54D72*G54D61*G54D67*G54D72*G54D67*G54D72*G54D61*G54D67*G54D69*G54D67*G54D69*G54D67*G54D68*M02*
