G04 start of page 4 for group 8 layer_idx 1 *
G04 Title: (unknown), bottom_copper *
G04 Creator: pcb-rnd 1.2.4 *
G04 CreationDate: 2017-09-22 19:00:37 UTC *
G04 For:  *
G04 Format: Gerber/RS-274X *
G04 PCB-Dimensions: 600000 500000 *
G04 PCB-Coordinate-Origin: lower left *
%MOIN*%
%FSLAX25Y25*%
%LNBOTTOM*%
%ADD43C,0.0320*%
%ADD42C,0.0790*%
%ADD41C,0.0400*%
%ADD40C,0.0420*%
%ADD39C,0.0730*%
%ADD38C,0.0394*%
%ADD37C,0.0472*%
%ADD36C,0.1378*%
%ADD35C,0.0828*%
%ADD34C,0.2000*%
%ADD33C,0.1630*%
%ADD32C,0.0900*%
%ADD31C,0.0600*%
%ADD30C,0.1150*%
%ADD29C,0.0001*%
%ADD28C,0.0800*%
G54D28*X267500Y320660D02*X277500D01*
X256500Y309660D02*X267500Y320660D01*
X256500Y299660D02*Y309660D01*
X298500Y281660D02*X249500D01*
X241500Y273660D01*
X262000Y334160D02*X241500Y313660D01*
X262000Y340160D02*Y334160D01*
X331500Y295660D02*Y310660D01*
X326500Y290660D02*X331500Y295660D01*
X326500Y268660D02*Y290660D01*
X277500Y320660D02*X297500Y340660D01*
X312500Y295660D02*X298500Y281660D01*
X312500Y306660D02*Y295660D01*
X312387Y306773D02*X312500Y306660D01*
X312387Y378000D02*Y306773D01*
X338500Y281660D02*X368340D01*
X378500Y271500D01*
X362000Y301000D02*Y281660D01*
X405500Y279160D02*Y318500D01*
X392000Y284000D02*Y307000D01*
X383000Y316000D01*
X362000D01*
X331500Y310660D02*X341660D01*
X349000Y318000D01*
Y328000D01*
X352000Y331000D01*
X361000D01*
X263500Y292660D02*X256500Y299660D01*
X263500Y249660D02*Y270660D01*
X256500Y242660D02*X263500Y249660D01*
X241500Y273660D02*Y256660D01*
X342500Y205660D02*Y227660D01*
X368500D02*X392000Y251160D01*
X321500Y227660D02*X368500D01*
X321500Y200274D02*X321501Y200273D01*
X321500Y227660D02*Y200274D01*
X326500Y268660D02*X338500Y256660D01*
X378500Y271660D02*Y256660D01*
X392000Y251160D02*Y284160D01*
X301501Y227659D02*X301500Y227660D01*
X301501Y200273D02*Y227659D01*
X291500Y200274D02*X291501Y200273D01*
X291500Y227660D02*Y200274D01*
X281501Y227659D02*X281500Y227660D01*
X281501Y200273D02*Y227659D01*
X271500Y200274D02*X271501Y200273D01*
X251500Y200274D02*X251501Y200273D01*
X271500Y227660D02*Y200274D01*
X261501Y200273D02*Y227659D01*
X251500Y227660D02*Y200274D01*
X248500Y242660D02*X256500D01*
X241501Y235661D02*X248500Y242660D01*
X241501Y227660D02*Y235661D01*
X261501Y227659D02*X261500Y227660D01*
X241501Y227659D02*X241500Y227660D01*
X241501Y200273D02*Y227659D01*
X331500Y320660D02*Y368000D01*
X343000D02*X345000Y366000D01*
X322387Y368000D02*X343000D01*
X405000Y378660D02*X405500Y379160D01*
X345000Y366000D02*X392340D01*
X405500Y379160D01*
Y318500D02*X393000Y331000D01*
X362000D01*
G54D29*G36*
X327500Y324660D02*Y316660D01*
X335500D01*
Y324660D01*
X327500D01*
G37*
G54D28*X405500Y279160D03*
X338500Y281660D03*
G54D30*X362000Y316000D03*
Y301000D03*
G54D28*X331500Y310660D03*
X312500Y306660D03*
X241500Y273660D03*
G54D29*G36*
X237500Y260660D02*Y252660D01*
X245500D01*
Y260660D01*
X237500D01*
G37*
G36*
X334500D02*Y252660D01*
X342500D01*
Y260660D01*
X334500D01*
G37*
G54D28*X281500Y256660D03*
G54D29*G36*
X294500Y285660D02*Y277660D01*
X302500D01*
Y285660D01*
X294500D01*
G37*
G54D28*X378500Y256660D03*
G54D31*X291501Y200273D03*
X281501D03*
X271501D03*
X261501D03*
X321501D03*
X311501D03*
X301501D03*
G54D29*G36*
X338500Y209660D02*Y201660D01*
X346500D01*
Y209660D01*
X338500D01*
G37*
G54D28*X352500Y205660D03*
G54D31*X251501Y200273D03*
G54D28*X251500Y227660D03*
X261500D03*
G54D29*G36*
X238501Y203273D02*Y197273D01*
X244501D01*
Y203273D01*
X238501D01*
G37*
G36*
X237500Y231660D02*Y223660D01*
X245500D01*
Y231660D01*
X237500D01*
G37*
G54D28*X271500Y227660D03*
X281500D03*
X291500D03*
X301500D03*
X311500D03*
X321500D03*
G54D29*G36*
X237500Y317660D02*Y309660D01*
X245500D01*
Y317660D01*
X237500D01*
G37*
G36*
X268500Y310660D02*Y302660D01*
X276500D01*
Y310660D01*
X268500D01*
G37*
G36*
X401500Y383160D02*Y375160D01*
X409500D01*
Y383160D01*
X401500D01*
G37*
G36*
X307887Y382500D02*Y373500D01*
X316887D01*
Y382500D01*
X307887D01*
G37*
G54D32*X322387Y368000D03*
X332387Y378000D03*
G54D33*X372000Y381000D03*
X352000D03*
G54D34*X242000Y360160D03*
X282000D03*
G54D28*X252000Y340160D03*
X262000D03*
G54D29*G36*
X356250Y336750D02*Y325250D01*
X367750D01*
Y336750D01*
X356250D01*
G37*
G54D35*X263500Y270660D03*
G54D36*X297500Y340660D03*
G54D35*X263500Y292660D03*
G54D37*G54D38*G54D39*G54D38*G54D40*G54D38*G54D40*G54D41*G54D40*G54D41*G54D38*G54D31*G54D39*G54D42*G54D43*G54D39*M02*
