G04 start of page 2 for group 3 layer_idx 0 *
G04 Title: (unknown), top_copper *
G04 Creator: pcb-rnd 1.2.4 *
G04 CreationDate: 2017-09-22 19:00:37 UTC *
G04 For:  *
G04 Format: Gerber/RS-274X *
G04 PCB-Dimensions: 600000 500000 *
G04 PCB-Coordinate-Origin: lower left *
%MOIN*%
%FSLAX25Y25*%
%LNTOP*%
%ADD26C,0.0320*%
%ADD25C,0.0790*%
%ADD24C,0.0400*%
%ADD23C,0.0420*%
%ADD22C,0.0730*%
%ADD21C,0.0394*%
%ADD20C,0.0472*%
%ADD19C,0.1378*%
%ADD18C,0.0828*%
%ADD17C,0.2000*%
%ADD16C,0.1630*%
%ADD15C,0.0900*%
%ADD14C,0.0600*%
%ADD13C,0.1150*%
%ADD12C,0.0800*%
%ADD11C,0.0001*%
G54D11*G36*
X405490Y386660D02*X409500D01*
X414500Y384660D01*
X417500Y380660D01*
Y249660D01*
X416500Y243660D01*
X410500Y236660D01*
X405500Y234660D01*
X405490D01*
Y272641D01*
X405500Y272640D01*
X406520Y272720D01*
X407515Y272959D01*
X408460Y273351D01*
X409332Y273885D01*
X410110Y274550D01*
X410775Y275328D01*
X411309Y276200D01*
X411701Y277145D01*
X411940Y278140D01*
X412000Y279160D01*
X411940Y280180D01*
X411701Y281175D01*
X411309Y282120D01*
X410775Y282992D01*
X410110Y283770D01*
X409332Y284435D01*
X408460Y284969D01*
X407515Y285361D01*
X406520Y285600D01*
X405500Y285680D01*
X405490Y285679D01*
Y372660D01*
X409500D01*
X409892Y372683D01*
X410275Y372775D01*
X410638Y372926D01*
X410974Y373131D01*
X411273Y373387D01*
X411529Y373686D01*
X411734Y374022D01*
X411885Y374385D01*
X411977Y374768D01*
X412000Y375160D01*
Y383160D01*
X411977Y383552D01*
X411885Y383935D01*
X411734Y384298D01*
X411529Y384634D01*
X411273Y384933D01*
X410974Y385189D01*
X410638Y385394D01*
X410275Y385545D01*
X409892Y385637D01*
X409500Y385660D01*
X405490D01*
Y386660D01*
G37*
G36*
X378490Y373195D02*X379199Y373801D01*
X380237Y375016D01*
X381072Y376378D01*
X381683Y377854D01*
X382056Y379407D01*
X382150Y381000D01*
X382056Y382593D01*
X381683Y384146D01*
X381072Y385622D01*
X380436Y386660D01*
X405490D01*
Y385660D01*
X401500D01*
X401108Y385637D01*
X400725Y385545D01*
X400362Y385394D01*
X400026Y385189D01*
X399727Y384933D01*
X399471Y384634D01*
X399266Y384298D01*
X399115Y383935D01*
X399023Y383552D01*
X399000Y383160D01*
Y375160D01*
X399023Y374768D01*
X399115Y374385D01*
X399266Y374022D01*
X399471Y373686D01*
X399727Y373387D01*
X400026Y373131D01*
X400362Y372926D01*
X400725Y372775D01*
X401108Y372683D01*
X401500Y372660D01*
X405490D01*
Y285679D01*
X404480Y285600D01*
X403485Y285361D01*
X402540Y284969D01*
X401668Y284435D01*
X400890Y283770D01*
X400225Y282992D01*
X399691Y282120D01*
X399299Y281175D01*
X399060Y280180D01*
X398980Y279160D01*
X399060Y278140D01*
X399299Y277145D01*
X399691Y276200D01*
X400225Y275328D01*
X400890Y274550D01*
X401668Y273885D01*
X402540Y273351D01*
X403485Y272959D01*
X404480Y272720D01*
X405490Y272641D01*
Y234660D01*
X400500D01*
X393500Y232660D01*
X385500Y227660D01*
X379500Y221660D01*
X378490Y219640D01*
Y250141D01*
X378500Y250140D01*
X379520Y250220D01*
X380515Y250459D01*
X381460Y250851D01*
X382332Y251385D01*
X383110Y252050D01*
X383775Y252828D01*
X384309Y253700D01*
X384701Y254645D01*
X384940Y255640D01*
X385000Y256660D01*
X384940Y257680D01*
X384701Y258675D01*
X384309Y259620D01*
X383775Y260492D01*
X383110Y261270D01*
X382332Y261935D01*
X381460Y262469D01*
X380515Y262861D01*
X379520Y263100D01*
X378500Y263180D01*
X378490Y263179D01*
Y373195D01*
G37*
G36*
X357622Y309594D02*X358471Y309073D01*
X359598Y308607D01*
X360042Y308500D01*
X359598Y308393D01*
X358471Y307927D01*
X357622Y307406D01*
Y309594D01*
G37*
G36*
Y323250D02*X359251D01*
X358471Y322927D01*
X357622Y322406D01*
Y323250D01*
G37*
G36*
Y357734D02*X357809Y358040D01*
X358201Y358985D01*
X358440Y359980D01*
X358520Y361000D01*
X358500Y361255D01*
Y373203D01*
X359199Y373801D01*
X359797Y374500D01*
X364203D01*
X364801Y373801D01*
X366016Y372763D01*
X367378Y371928D01*
X368854Y371317D01*
X370407Y370944D01*
X372000Y370819D01*
X373593Y370944D01*
X375146Y371317D01*
X376622Y371928D01*
X377984Y372763D01*
X378490Y373195D01*
Y263179D01*
X377480Y263100D01*
X376485Y262861D01*
X375540Y262469D01*
X374668Y261935D01*
X373890Y261270D01*
X373225Y260492D01*
X372691Y259620D01*
X372299Y258675D01*
X372060Y257680D01*
X371980Y256660D01*
X372060Y255640D01*
X372299Y254645D01*
X372691Y253700D01*
X373225Y252828D01*
X373890Y252050D01*
X374668Y251385D01*
X375540Y250851D01*
X376485Y250459D01*
X377480Y250220D01*
X378490Y250141D01*
Y219640D01*
X375500Y213660D01*
Y191660D01*
X372500Y184660D01*
X366500Y178660D01*
X360500Y175660D01*
X357622D01*
Y202818D01*
X357703Y202825D01*
X357894Y202872D01*
X358076Y202948D01*
X358243Y203052D01*
X358392Y203180D01*
X358519Y203330D01*
X358621Y203499D01*
X358692Y203682D01*
X358848Y204235D01*
X358949Y204800D01*
X359000Y205373D01*
Y205947D01*
X358949Y206520D01*
X358848Y207085D01*
X358698Y207640D01*
X358625Y207823D01*
X358522Y207992D01*
X358395Y208143D01*
X358245Y208271D01*
X358078Y208375D01*
X357896Y208452D01*
X357704Y208499D01*
X357622Y208506D01*
Y294594D01*
X358471Y294073D01*
X359598Y293607D01*
X360784Y293322D01*
X362000Y293226D01*
X363216Y293322D01*
X364402Y293607D01*
X365529Y294073D01*
X366569Y294711D01*
X367497Y295503D01*
X368289Y296431D01*
X368927Y297471D01*
X369393Y298598D01*
X369678Y299784D01*
X369750Y301000D01*
X369678Y302216D01*
X369393Y303402D01*
X368927Y304529D01*
X368289Y305569D01*
X367497Y306497D01*
X366569Y307289D01*
X365529Y307927D01*
X364402Y308393D01*
X363958Y308500D01*
X364402Y308607D01*
X365529Y309073D01*
X366569Y309711D01*
X367497Y310503D01*
X368289Y311431D01*
X368927Y312471D01*
X369393Y313598D01*
X369678Y314784D01*
X369750Y316000D01*
X369678Y317216D01*
X369393Y318402D01*
X368927Y319529D01*
X368289Y320569D01*
X367497Y321497D01*
X366569Y322289D01*
X365529Y322927D01*
X364749Y323250D01*
X367750D01*
X368064Y323269D01*
X368370Y323342D01*
X368661Y323462D01*
X368929Y323627D01*
X369169Y323831D01*
X369373Y324071D01*
X369538Y324339D01*
X369658Y324630D01*
X369731Y324936D01*
X369750Y325250D01*
Y336750D01*
X369731Y337064D01*
X369658Y337370D01*
X369538Y337661D01*
X369373Y337929D01*
X369169Y338169D01*
X368929Y338373D01*
X368661Y338538D01*
X368370Y338658D01*
X368064Y338731D01*
X367750Y338750D01*
X357622D01*
Y357734D01*
G37*
G36*
X352502Y352310D02*X356416Y356224D01*
X356610Y356390D01*
X357275Y357168D01*
X357622Y357734D01*
Y338750D01*
X356250D01*
X355936Y338731D01*
X355630Y338658D01*
X355339Y338538D01*
X355071Y338373D01*
X354831Y338169D01*
X354627Y337929D01*
X354462Y337661D01*
X354342Y337370D01*
X354269Y337064D01*
X354250Y336750D01*
Y325250D01*
X354269Y324936D01*
X354342Y324630D01*
X354462Y324339D01*
X354627Y324071D01*
X354831Y323831D01*
X355071Y323627D01*
X355339Y323462D01*
X355630Y323342D01*
X355936Y323269D01*
X356250Y323250D01*
X357622D01*
Y322406D01*
X357431Y322289D01*
X356503Y321497D01*
X355711Y320569D01*
X355073Y319529D01*
X354607Y318402D01*
X354322Y317216D01*
X354226Y316000D01*
X354322Y314784D01*
X354607Y313598D01*
X355073Y312471D01*
X355711Y311431D01*
X356503Y310503D01*
X357431Y309711D01*
X357622Y309594D01*
Y307406D01*
X357431Y307289D01*
X356503Y306497D01*
X355711Y305569D01*
X355073Y304529D01*
X354607Y303402D01*
X354322Y302216D01*
X354226Y301000D01*
X354322Y299784D01*
X354607Y298598D01*
X355073Y297471D01*
X355711Y296431D01*
X356503Y295503D01*
X357431Y294711D01*
X357622Y294594D01*
Y208506D01*
X357507Y208515D01*
X357310Y208501D01*
X357118Y208456D01*
X356936Y208381D01*
X356767Y208279D01*
X356616Y208151D01*
X356487Y208002D01*
X356383Y207834D01*
X356307Y207652D01*
X356260Y207461D01*
X356243Y207264D01*
X356258Y207067D01*
X356307Y206876D01*
X356403Y206536D01*
X356465Y206189D01*
X356496Y205837D01*
Y205483D01*
X356465Y205131D01*
X356403Y204784D01*
X356310Y204443D01*
X356262Y204252D01*
X356247Y204056D01*
X356264Y203860D01*
X356310Y203669D01*
X356387Y203488D01*
X356490Y203320D01*
X356619Y203171D01*
X356769Y203044D01*
X356937Y202942D01*
X357119Y202868D01*
X357311Y202823D01*
X357507Y202809D01*
X357622Y202818D01*
Y175660D01*
X352502D01*
Y199160D01*
X352787D01*
X353360Y199211D01*
X353925Y199312D01*
X354480Y199462D01*
X354663Y199535D01*
X354832Y199638D01*
X354983Y199765D01*
X355111Y199915D01*
X355215Y200082D01*
X355292Y200264D01*
X355339Y200456D01*
X355355Y200653D01*
X355341Y200850D01*
X355296Y201042D01*
X355221Y201224D01*
X355119Y201393D01*
X354991Y201544D01*
X354842Y201673D01*
X354674Y201777D01*
X354492Y201853D01*
X354301Y201900D01*
X354104Y201917D01*
X353907Y201902D01*
X353716Y201853D01*
X353376Y201757D01*
X353029Y201695D01*
X352677Y201664D01*
X352502D01*
Y209656D01*
X352677D01*
X353029Y209625D01*
X353376Y209563D01*
X353717Y209470D01*
X353908Y209422D01*
X354104Y209407D01*
X354300Y209424D01*
X354491Y209470D01*
X354672Y209547D01*
X354840Y209650D01*
X354989Y209779D01*
X355116Y209929D01*
X355218Y210097D01*
X355292Y210279D01*
X355337Y210471D01*
X355351Y210667D01*
X355335Y210863D01*
X355288Y211054D01*
X355212Y211236D01*
X355108Y211403D01*
X354980Y211552D01*
X354830Y211679D01*
X354661Y211781D01*
X354478Y211852D01*
X353925Y212008D01*
X353360Y212109D01*
X352787Y212160D01*
X352502D01*
Y352310D01*
G37*
G36*
X338490Y338298D02*X352502Y352310D01*
Y212160D01*
X352213D01*
X351640Y212109D01*
X351075Y212008D01*
X350520Y211858D01*
X350337Y211785D01*
X350168Y211682D01*
X350017Y211555D01*
X349889Y211405D01*
X349785Y211238D01*
X349708Y211056D01*
X349661Y210864D01*
X349645Y210667D01*
X349659Y210470D01*
X349704Y210278D01*
X349779Y210096D01*
X349881Y209927D01*
X350009Y209776D01*
X350158Y209647D01*
X350326Y209543D01*
X350508Y209467D01*
X350699Y209420D01*
X350896Y209403D01*
X351093Y209418D01*
X351284Y209467D01*
X351624Y209563D01*
X351971Y209625D01*
X352323Y209656D01*
X352502D01*
Y201664D01*
X352323D01*
X351971Y201695D01*
X351624Y201757D01*
X351283Y201850D01*
X351092Y201898D01*
X350896Y201913D01*
X350700Y201896D01*
X350509Y201850D01*
X350328Y201773D01*
X350160Y201670D01*
X350011Y201541D01*
X349884Y201391D01*
X349782Y201223D01*
X349708Y201041D01*
X349663Y200849D01*
X349649Y200653D01*
X349665Y200457D01*
X349712Y200266D01*
X349788Y200084D01*
X349892Y199917D01*
X350020Y199768D01*
X350170Y199641D01*
X350339Y199539D01*
X350522Y199468D01*
X351075Y199312D01*
X351640Y199211D01*
X352213Y199160D01*
X352502D01*
Y175660D01*
X338490D01*
Y199161D01*
X338500Y199160D01*
X346500D01*
X346892Y199183D01*
X347275Y199275D01*
X347638Y199426D01*
X347974Y199631D01*
X348273Y199887D01*
X348529Y200186D01*
X348734Y200522D01*
X348885Y200885D01*
X348977Y201268D01*
X349000Y201660D01*
Y209660D01*
X348977Y210052D01*
X348885Y210435D01*
X348734Y210798D01*
X348529Y211134D01*
X348273Y211433D01*
X347974Y211689D01*
X347638Y211894D01*
X347275Y212045D01*
X346892Y212137D01*
X346500Y212160D01*
X338500D01*
X338490Y212159D01*
Y250160D01*
X342500D01*
X342892Y250183D01*
X343275Y250275D01*
X343638Y250426D01*
X343974Y250631D01*
X344273Y250887D01*
X344529Y251186D01*
X344734Y251522D01*
X344885Y251885D01*
X344977Y252268D01*
X345000Y252660D01*
Y260660D01*
X344977Y261052D01*
X344885Y261435D01*
X344734Y261798D01*
X344529Y262134D01*
X344273Y262433D01*
X343974Y262689D01*
X343638Y262894D01*
X343275Y263045D01*
X342892Y263137D01*
X342500Y263160D01*
X338490D01*
Y275141D01*
X338500Y275140D01*
X339520Y275220D01*
X340515Y275459D01*
X341460Y275851D01*
X342332Y276385D01*
X343110Y277050D01*
X343775Y277828D01*
X344309Y278700D01*
X344701Y279645D01*
X344940Y280640D01*
X345000Y281660D01*
X344940Y282680D01*
X344701Y283675D01*
X344309Y284620D01*
X343775Y285492D01*
X343110Y286270D01*
X342332Y286935D01*
X341460Y287469D01*
X340515Y287861D01*
X339520Y288100D01*
X338500Y288180D01*
X338490Y288179D01*
Y338298D01*
G37*
G36*
Y386660D02*X343564D01*
X342928Y385622D01*
X342317Y384146D01*
X341944Y382593D01*
X341819Y381000D01*
X341944Y379407D01*
X342317Y377854D01*
X342928Y376378D01*
X343763Y375016D01*
X344801Y373801D01*
X345500Y373204D01*
Y363692D01*
X338490Y356682D01*
Y386660D01*
G37*
G36*
X331490Y334153D02*X331660Y334140D01*
X332680Y334220D01*
X332680Y334220D01*
X333675Y334459D01*
X334620Y334851D01*
X335492Y335385D01*
X336270Y336050D01*
X336436Y336244D01*
X338490Y338298D01*
Y288179D01*
X337480Y288100D01*
X336485Y287861D01*
X335540Y287469D01*
X334668Y286935D01*
X333890Y286270D01*
X333225Y285492D01*
X332691Y284620D01*
X332299Y283675D01*
X332060Y282680D01*
X331980Y281660D01*
X332060Y280640D01*
X332299Y279645D01*
X332691Y278700D01*
X333225Y277828D01*
X333890Y277050D01*
X334668Y276385D01*
X335540Y275851D01*
X336485Y275459D01*
X337480Y275220D01*
X338490Y275141D01*
Y263160D01*
X334500D01*
X334108Y263137D01*
X333725Y263045D01*
X333362Y262894D01*
X333026Y262689D01*
X332727Y262433D01*
X332471Y262134D01*
X332266Y261798D01*
X332115Y261435D01*
X332023Y261052D01*
X332000Y260660D01*
Y252660D01*
X332023Y252268D01*
X332115Y251885D01*
X332266Y251522D01*
X332471Y251186D01*
X332727Y250887D01*
X333026Y250631D01*
X333362Y250426D01*
X333725Y250275D01*
X334108Y250183D01*
X334500Y250160D01*
X338490D01*
Y212159D01*
X338108Y212137D01*
X337725Y212045D01*
X337362Y211894D01*
X337026Y211689D01*
X336727Y211433D01*
X336471Y211134D01*
X336266Y210798D01*
X336115Y210435D01*
X336023Y210052D01*
X336000Y209660D01*
Y201660D01*
X336023Y201268D01*
X336115Y200885D01*
X336266Y200522D01*
X336471Y200186D01*
X336727Y199887D01*
X337026Y199631D01*
X337362Y199426D01*
X337725Y199275D01*
X338108Y199183D01*
X338490Y199161D01*
Y175660D01*
X331490D01*
Y304141D01*
X331500Y304140D01*
X332520Y304220D01*
X333515Y304459D01*
X334460Y304851D01*
X335332Y305385D01*
X336110Y306050D01*
X336775Y306828D01*
X337309Y307700D01*
X337701Y308645D01*
X337940Y309640D01*
X338000Y310660D01*
X337940Y311680D01*
X337701Y312675D01*
X337309Y313620D01*
X336775Y314492D01*
X336765Y314503D01*
X336974Y314631D01*
X337273Y314887D01*
X337529Y315186D01*
X337734Y315522D01*
X337885Y315885D01*
X337977Y316268D01*
X338000Y316660D01*
Y324660D01*
X337977Y325052D01*
X337885Y325435D01*
X337734Y325798D01*
X337529Y326134D01*
X337273Y326433D01*
X336974Y326689D01*
X336638Y326894D01*
X336275Y327045D01*
X335892Y327137D01*
X335500Y327160D01*
X331490D01*
Y334153D01*
G37*
G36*
X337313Y386660D02*X338490D01*
Y356682D01*
X337313Y355505D01*
Y374802D01*
X337317Y374804D01*
X337420Y374863D01*
X337512Y374937D01*
X337591Y375025D01*
X337653Y375125D01*
X337898Y375612D01*
X338092Y376122D01*
X338239Y376647D01*
X338337Y377184D01*
X338387Y377727D01*
Y378272D01*
X338337Y378816D01*
X338239Y379352D01*
X338092Y379877D01*
X337898Y380387D01*
X337659Y380877D01*
X337595Y380977D01*
X337515Y381065D01*
X337422Y381140D01*
X337319Y381199D01*
X337313Y381202D01*
Y386660D01*
G37*
G36*
X331490D02*X337313D01*
Y381202D01*
X337208Y381241D01*
X337092Y381266D01*
X336973Y381272D01*
X336855Y381259D01*
X336741Y381228D01*
X336632Y381179D01*
X336533Y381115D01*
X336445Y381035D01*
X336370Y380942D01*
X336311Y380839D01*
X336269Y380728D01*
X336244Y380612D01*
X336238Y380494D01*
X336251Y380375D01*
X336282Y380261D01*
X336333Y380153D01*
X336516Y379788D01*
X336661Y379406D01*
X336771Y379013D01*
X336845Y378611D01*
X336882Y378204D01*
Y377795D01*
X336845Y377388D01*
X336771Y376986D01*
X336661Y376593D01*
X336516Y376211D01*
X336337Y375843D01*
X336286Y375737D01*
X336256Y375623D01*
X336243Y375505D01*
X336249Y375388D01*
X336273Y375272D01*
X336315Y375162D01*
X336374Y375059D01*
X336448Y374967D01*
X336536Y374888D01*
X336635Y374824D01*
X336742Y374775D01*
X336856Y374745D01*
X336974Y374732D01*
X337092Y374738D01*
X337207Y374762D01*
X337313Y374802D01*
Y355505D01*
X331490Y349682D01*
Y372064D01*
X331571Y372049D01*
X332114Y372000D01*
X332660D01*
X333203Y372049D01*
X333739Y372148D01*
X334265Y372294D01*
X334775Y372488D01*
X335265Y372728D01*
X335365Y372792D01*
X335453Y372872D01*
X335527Y372964D01*
X335586Y373067D01*
X335629Y373178D01*
X335653Y373294D01*
X335659Y373413D01*
X335646Y373531D01*
X335615Y373646D01*
X335567Y373754D01*
X335502Y373854D01*
X335422Y373942D01*
X335330Y374016D01*
X335227Y374075D01*
X335116Y374118D01*
X335000Y374142D01*
X334881Y374148D01*
X334763Y374135D01*
X334648Y374104D01*
X334541Y374054D01*
X334176Y373870D01*
X333794Y373725D01*
X333400Y373615D01*
X332998Y373541D01*
X332591Y373504D01*
X332183D01*
X331776Y373541D01*
X331490Y373594D01*
Y382405D01*
X331776Y382458D01*
X332183Y382495D01*
X332591D01*
X332998Y382458D01*
X333400Y382384D01*
X333794Y382274D01*
X334176Y382129D01*
X334543Y381949D01*
X334650Y381899D01*
X334764Y381868D01*
X334881Y381856D01*
X334999Y381862D01*
X335114Y381886D01*
X335225Y381928D01*
X335327Y381987D01*
X335419Y382061D01*
X335498Y382148D01*
X335563Y382247D01*
X335611Y382355D01*
X335642Y382469D01*
X335654Y382586D01*
X335649Y382704D01*
X335624Y382820D01*
X335582Y382930D01*
X335523Y383032D01*
X335449Y383124D01*
X335362Y383203D01*
X335262Y383266D01*
X334775Y383511D01*
X334265Y383705D01*
X333739Y383851D01*
X333203Y383950D01*
X332660Y384000D01*
X332114D01*
X331571Y383950D01*
X331490Y383935D01*
Y386660D01*
G37*
G36*
X321495Y334160D02*X331405D01*
X331490Y334153D01*
Y327160D01*
X327500D01*
X327108Y327137D01*
X326725Y327045D01*
X326362Y326894D01*
X326026Y326689D01*
X325727Y326433D01*
X325471Y326134D01*
X325266Y325798D01*
X325115Y325435D01*
X325023Y325052D01*
X325000Y324660D01*
Y316660D01*
X325023Y316268D01*
X325115Y315885D01*
X325266Y315522D01*
X325471Y315186D01*
X325727Y314887D01*
X326026Y314631D01*
X326235Y314503D01*
X326225Y314492D01*
X325691Y313620D01*
X325299Y312675D01*
X325060Y311680D01*
X324980Y310660D01*
X325060Y309640D01*
X325299Y308645D01*
X325691Y307700D01*
X326225Y306828D01*
X326890Y306050D01*
X327668Y305385D01*
X328540Y304851D01*
X329485Y304459D01*
X330480Y304220D01*
X331490Y304141D01*
Y175660D01*
X321495D01*
Y196261D01*
X321501Y196261D01*
X322129Y196310D01*
X322741Y196457D01*
X323323Y196698D01*
X323860Y197027D01*
X324338Y197436D01*
X324747Y197915D01*
X325076Y198452D01*
X325317Y199033D01*
X325464Y199645D01*
X325501Y200273D01*
X325464Y200901D01*
X325317Y201513D01*
X325076Y202095D01*
X324747Y202632D01*
X324338Y203110D01*
X323860Y203519D01*
X323323Y203848D01*
X322741Y204089D01*
X322129Y204236D01*
X321501Y204285D01*
X321495Y204285D01*
Y222645D01*
X321500Y222645D01*
X322285Y222706D01*
X323050Y222890D01*
X323777Y223191D01*
X324448Y223602D01*
X325046Y224114D01*
X325558Y224712D01*
X325969Y225383D01*
X326270Y226110D01*
X326454Y226875D01*
X326500Y227660D01*
X326454Y228445D01*
X326270Y229210D01*
X325969Y229937D01*
X325558Y230608D01*
X325046Y231206D01*
X324448Y231718D01*
X323777Y232129D01*
X323050Y232430D01*
X322285Y232614D01*
X321500Y232675D01*
X321495Y232675D01*
Y334160D01*
G37*
G36*
X314785D02*X321495D01*
Y232675D01*
X320715Y232614D01*
X319950Y232430D01*
X319223Y232129D01*
X318552Y231718D01*
X317954Y231206D01*
X317442Y230608D01*
X317031Y229937D01*
X316730Y229210D01*
X316546Y228445D01*
X316498Y227827D01*
X316483Y228129D01*
X316418Y228594D01*
X316308Y229051D01*
X316157Y229495D01*
X315964Y229924D01*
X315732Y230332D01*
X315685Y230396D01*
X315628Y230452D01*
X315564Y230497D01*
X315492Y230532D01*
X315417Y230556D01*
X315338Y230567D01*
X315259Y230566D01*
X315180Y230553D01*
X315105Y230527D01*
X315035Y230490D01*
X314971Y230443D01*
X314916Y230386D01*
X314870Y230321D01*
X314835Y230250D01*
X314812Y230174D01*
X314800Y230095D01*
X314801Y230016D01*
X314815Y229938D01*
X314840Y229863D01*
X314879Y229793D01*
X315068Y229469D01*
X315221Y229127D01*
X315342Y228772D01*
X315430Y228406D01*
X315482Y228035D01*
X315500Y227660D01*
X315482Y227285D01*
X315430Y226914D01*
X315342Y226548D01*
X315221Y226193D01*
X315068Y225851D01*
X314882Y225525D01*
X314844Y225456D01*
X314819Y225381D01*
X314806Y225304D01*
X314805Y225225D01*
X314816Y225147D01*
X314839Y225072D01*
X314874Y225001D01*
X314919Y224937D01*
X314974Y224881D01*
X315037Y224833D01*
X315107Y224797D01*
X315181Y224772D01*
X315259Y224758D01*
X315338Y224757D01*
X315416Y224768D01*
X315491Y224792D01*
X315561Y224826D01*
X315626Y224872D01*
X315682Y224927D01*
X315728Y224991D01*
X315964Y225396D01*
X316157Y225825D01*
X316308Y226269D01*
X316418Y226726D01*
X316483Y227191D01*
X316498Y227493D01*
X316546Y226875D01*
X316730Y226110D01*
X317031Y225383D01*
X317442Y224712D01*
X317954Y224114D01*
X318552Y223602D01*
X319223Y223191D01*
X319950Y222890D01*
X320715Y222706D01*
X321495Y222645D01*
Y204285D01*
X320873Y204236D01*
X320261Y204089D01*
X319680Y203848D01*
X319143Y203519D01*
X318664Y203110D01*
X318255Y202632D01*
X317926Y202095D01*
X317685Y201513D01*
X317538Y200901D01*
X317489Y200273D01*
X317538Y199645D01*
X317685Y199033D01*
X317926Y198452D01*
X318255Y197915D01*
X318664Y197436D01*
X319143Y197027D01*
X319680Y196698D01*
X320261Y196457D01*
X320873Y196310D01*
X321495Y196261D01*
Y175660D01*
X314785D01*
Y198142D01*
X314788Y198143D01*
X314856Y198182D01*
X314918Y198232D01*
X314970Y198290D01*
X315012Y198357D01*
X315175Y198681D01*
X315305Y199021D01*
X315402Y199371D01*
X315468Y199729D01*
X315501Y200091D01*
Y200455D01*
X315468Y200817D01*
X315402Y201175D01*
X315305Y201525D01*
X315175Y201865D01*
X315016Y202192D01*
X314973Y202258D01*
X314920Y202317D01*
X314858Y202367D01*
X314789Y202406D01*
X314785Y202408D01*
Y300571D01*
X315460Y300851D01*
X316332Y301385D01*
X317110Y302050D01*
X317775Y302828D01*
X318309Y303700D01*
X318701Y304645D01*
X318940Y305640D01*
X319000Y306660D01*
X318940Y307680D01*
X318701Y308675D01*
X318309Y309620D01*
X317775Y310492D01*
X317110Y311270D01*
X316332Y311935D01*
X315460Y312469D01*
X314785Y312749D01*
Y334160D01*
G37*
G36*
Y175660D02*X312490D01*
Y196396D01*
X312753Y196470D01*
X313093Y196599D01*
X313420Y196759D01*
X313486Y196801D01*
X313545Y196855D01*
X313595Y196916D01*
X313634Y196985D01*
X313662Y197059D01*
X313679Y197136D01*
X313683Y197215D01*
X313674Y197294D01*
X313653Y197371D01*
X313621Y197443D01*
X313578Y197509D01*
X313525Y197568D01*
X313463Y197618D01*
X313394Y197657D01*
X313320Y197685D01*
X313243Y197702D01*
X313164Y197706D01*
X313085Y197697D01*
X313009Y197676D01*
X312937Y197643D01*
X312694Y197520D01*
X312490Y197443D01*
Y203103D01*
X312694Y203026D01*
X312939Y202906D01*
X313010Y202873D01*
X313086Y202852D01*
X313164Y202844D01*
X313242Y202848D01*
X313319Y202864D01*
X313393Y202892D01*
X313461Y202931D01*
X313523Y202981D01*
X313575Y203039D01*
X313618Y203105D01*
X313651Y203177D01*
X313671Y203253D01*
X313679Y203331D01*
X313676Y203410D01*
X313659Y203487D01*
X313631Y203560D01*
X313592Y203628D01*
X313543Y203690D01*
X313484Y203742D01*
X313418Y203784D01*
X313093Y203947D01*
X312753Y204077D01*
X312490Y204150D01*
Y222756D01*
X312891Y222852D01*
X313335Y223003D01*
X313764Y223196D01*
X314172Y223428D01*
X314236Y223475D01*
X314292Y223532D01*
X314337Y223596D01*
X314372Y223668D01*
X314396Y223743D01*
X314407Y223822D01*
X314406Y223901D01*
X314393Y223980D01*
X314367Y224055D01*
X314330Y224125D01*
X314283Y224189D01*
X314226Y224244D01*
X314161Y224290D01*
X314090Y224325D01*
X314014Y224348D01*
X313935Y224360D01*
X313856Y224359D01*
X313778Y224345D01*
X313703Y224320D01*
X313633Y224281D01*
X313309Y224092D01*
X312967Y223939D01*
X312612Y223818D01*
X312490Y223788D01*
Y231532D01*
X312612Y231502D01*
X312967Y231381D01*
X313309Y231228D01*
X313635Y231042D01*
X313704Y231004D01*
X313779Y230979D01*
X313856Y230966D01*
X313935Y230965D01*
X314013Y230976D01*
X314088Y230999D01*
X314159Y231034D01*
X314223Y231079D01*
X314279Y231134D01*
X314327Y231197D01*
X314363Y231267D01*
X314388Y231341D01*
X314402Y231419D01*
X314403Y231498D01*
X314392Y231576D01*
X314368Y231651D01*
X314334Y231721D01*
X314288Y231786D01*
X314233Y231842D01*
X314169Y231888D01*
X313764Y232124D01*
X313335Y232317D01*
X312891Y232468D01*
X312490Y232564D01*
Y300141D01*
X312500Y300140D01*
X313520Y300220D01*
X314515Y300459D01*
X314785Y300571D01*
Y202408D01*
X314715Y202434D01*
X314638Y202451D01*
X314559Y202455D01*
X314480Y202446D01*
X314404Y202425D01*
X314331Y202393D01*
X314265Y202350D01*
X314206Y202297D01*
X314157Y202235D01*
X314117Y202166D01*
X314089Y202092D01*
X314073Y202015D01*
X314069Y201936D01*
X314077Y201857D01*
X314098Y201781D01*
X314132Y201709D01*
X314254Y201466D01*
X314351Y201211D01*
X314424Y200949D01*
X314473Y200681D01*
X314498Y200409D01*
Y200137D01*
X314473Y199866D01*
X314424Y199598D01*
X314351Y199335D01*
X314254Y199081D01*
X314134Y198836D01*
X314101Y198765D01*
X314080Y198689D01*
X314072Y198610D01*
X314076Y198532D01*
X314092Y198455D01*
X314120Y198381D01*
X314159Y198313D01*
X314209Y198252D01*
X314267Y198199D01*
X314333Y198156D01*
X314405Y198124D01*
X314481Y198103D01*
X314559Y198095D01*
X314638Y198099D01*
X314715Y198115D01*
X314785Y198142D01*
Y175660D01*
G37*
G36*
X312490Y334160D02*X314785D01*
Y312749D01*
X314515Y312861D01*
X313520Y313100D01*
X312500Y313180D01*
X312490Y313179D01*
Y334160D01*
G37*
G36*
X327461Y386660D02*X331490D01*
Y383935D01*
X331034Y383851D01*
X330509Y383705D01*
X329999Y383511D01*
X329509Y383271D01*
X329409Y383207D01*
X329321Y383127D01*
X329247Y383035D01*
X329187Y382932D01*
X329145Y382821D01*
X329121Y382705D01*
X329115Y382586D01*
X329127Y382468D01*
X329158Y382353D01*
X329207Y382245D01*
X329272Y382145D01*
X329352Y382057D01*
X329444Y381983D01*
X329547Y381924D01*
X329658Y381881D01*
X329774Y381857D01*
X329893Y381851D01*
X330011Y381864D01*
X330126Y381895D01*
X330233Y381945D01*
X330598Y382129D01*
X330980Y382274D01*
X331374Y382384D01*
X331490Y382405D01*
Y373594D01*
X331374Y373615D01*
X330980Y373725D01*
X330598Y373870D01*
X330231Y374050D01*
X330124Y374100D01*
X330010Y374131D01*
X329893Y374143D01*
X329775Y374138D01*
X329659Y374113D01*
X329549Y374071D01*
X329447Y374012D01*
X329355Y373938D01*
X329276Y373851D01*
X329211Y373752D01*
X329163Y373644D01*
X329132Y373530D01*
X329119Y373413D01*
X329125Y373295D01*
X329150Y373179D01*
X329192Y373069D01*
X329250Y372967D01*
X329325Y372875D01*
X329412Y372796D01*
X329512Y372733D01*
X329999Y372488D01*
X330509Y372294D01*
X331034Y372148D01*
X331490Y372064D01*
Y349682D01*
X328968Y347160D01*
X327461D01*
Y364797D01*
X327749Y365267D01*
X328111Y366140D01*
X328331Y367058D01*
X328387Y368000D01*
X328331Y368941D01*
X328111Y369859D01*
X327749Y370732D01*
X327461Y371202D01*
Y374797D01*
X327565Y374758D01*
X327682Y374733D01*
X327800Y374727D01*
X327918Y374740D01*
X328033Y374771D01*
X328142Y374820D01*
X328241Y374885D01*
X328329Y374964D01*
X328404Y375057D01*
X328463Y375160D01*
X328505Y375271D01*
X328530Y375387D01*
X328535Y375506D01*
X328523Y375624D01*
X328492Y375738D01*
X328441Y375846D01*
X328258Y376211D01*
X328112Y376593D01*
X328002Y376986D01*
X327929Y377388D01*
X327892Y377795D01*
Y378204D01*
X327929Y378611D01*
X328002Y379013D01*
X328112Y379406D01*
X328258Y379788D01*
X328437Y380156D01*
X328487Y380262D01*
X328518Y380376D01*
X328531Y380494D01*
X328525Y380612D01*
X328501Y380727D01*
X328459Y380837D01*
X328400Y380940D01*
X328326Y381032D01*
X328238Y381111D01*
X328139Y381175D01*
X328032Y381224D01*
X327918Y381254D01*
X327800Y381267D01*
X327682Y381261D01*
X327567Y381237D01*
X327461Y381197D01*
Y386660D01*
G37*
G36*
Y347160D02*X322378D01*
Y361982D01*
X322387Y361981D01*
X323328Y362055D01*
X324247Y362276D01*
X325119Y362637D01*
X325924Y363130D01*
X326643Y363744D01*
X327256Y364462D01*
X327461Y364797D01*
Y347160D01*
G37*
G36*
X322378Y386660D02*X327461D01*
Y381197D01*
X327456Y381195D01*
X327354Y381136D01*
X327262Y381062D01*
X327183Y380974D01*
X327121Y380874D01*
X326876Y380387D01*
X326682Y379877D01*
X326535Y379352D01*
X326436Y378816D01*
X326387Y378272D01*
Y377727D01*
X326436Y377184D01*
X326535Y376647D01*
X326682Y376122D01*
X326876Y375612D01*
X327115Y375122D01*
X327179Y375022D01*
X327259Y374934D01*
X327351Y374859D01*
X327454Y374800D01*
X327461Y374797D01*
Y371202D01*
X327256Y371537D01*
X326643Y372255D01*
X325924Y372869D01*
X325119Y373362D01*
X324247Y373723D01*
X323328Y373944D01*
X322387Y374018D01*
X322378Y374017D01*
Y386660D01*
G37*
G36*
X312490D02*X322378D01*
Y374017D01*
X321445Y373944D01*
X320527Y373723D01*
X319655Y373362D01*
X318849Y372869D01*
X318131Y372255D01*
X317518Y371537D01*
X317024Y370732D01*
X316663Y369859D01*
X316442Y368941D01*
X316368Y368000D01*
X316442Y367058D01*
X316663Y366140D01*
X317024Y365267D01*
X317518Y364462D01*
X318131Y363744D01*
X318849Y363130D01*
X319655Y362637D01*
X320527Y362276D01*
X321445Y362055D01*
X322378Y361982D01*
Y347160D01*
X312490D01*
Y372000D01*
X316887D01*
X317122Y372013D01*
X317352Y372069D01*
X317570Y372159D01*
X317771Y372282D01*
X317951Y372436D01*
X318104Y372615D01*
X318228Y372816D01*
X318318Y373035D01*
X318373Y373264D01*
X318387Y373500D01*
Y382500D01*
X318373Y382735D01*
X318318Y382964D01*
X318228Y383183D01*
X318104Y383384D01*
X317951Y383563D01*
X317771Y383717D01*
X317570Y383840D01*
X317352Y383931D01*
X317122Y383986D01*
X316887Y384000D01*
X312490D01*
Y386660D01*
G37*
G36*
X308217Y301770D02*X308668Y301385D01*
X309540Y300851D01*
X310485Y300459D01*
X311480Y300220D01*
X312490Y300141D01*
Y232564D01*
X312434Y232578D01*
X311969Y232643D01*
X311500Y232666D01*
X311031Y232643D01*
X310566Y232578D01*
X310109Y232468D01*
X309665Y232317D01*
X309236Y232124D01*
X308828Y231892D01*
X308764Y231845D01*
X308708Y231788D01*
X308663Y231724D01*
X308628Y231652D01*
X308604Y231577D01*
X308593Y231498D01*
X308594Y231419D01*
X308607Y231340D01*
X308633Y231265D01*
X308670Y231195D01*
X308717Y231131D01*
X308774Y231076D01*
X308839Y231030D01*
X308910Y230995D01*
X308986Y230972D01*
X309065Y230960D01*
X309144Y230961D01*
X309222Y230975D01*
X309297Y231000D01*
X309367Y231039D01*
X309691Y231228D01*
X310033Y231381D01*
X310388Y231502D01*
X310754Y231590D01*
X311125Y231642D01*
X311500Y231660D01*
X311875Y231642D01*
X312246Y231590D01*
X312490Y231532D01*
Y223788D01*
X312246Y223730D01*
X311875Y223678D01*
X311500Y223660D01*
X311125Y223678D01*
X310754Y223730D01*
X310388Y223818D01*
X310033Y223939D01*
X309691Y224092D01*
X309364Y224278D01*
X309296Y224316D01*
X309221Y224341D01*
X309144Y224354D01*
X309065Y224355D01*
X308987Y224344D01*
X308912Y224321D01*
X308841Y224286D01*
X308777Y224241D01*
X308721Y224186D01*
X308673Y224123D01*
X308637Y224053D01*
X308612Y223979D01*
X308598Y223901D01*
X308597Y223822D01*
X308608Y223744D01*
X308632Y223669D01*
X308666Y223599D01*
X308712Y223534D01*
X308767Y223478D01*
X308831Y223432D01*
X309236Y223196D01*
X309665Y223003D01*
X310109Y222852D01*
X310566Y222742D01*
X311031Y222677D01*
X311500Y222654D01*
X311969Y222677D01*
X312434Y222742D01*
X312490Y222756D01*
Y204150D01*
X312403Y204174D01*
X312045Y204240D01*
X311683Y204273D01*
X311319D01*
X310957Y204240D01*
X310599Y204174D01*
X310249Y204077D01*
X309909Y203947D01*
X309583Y203788D01*
X309516Y203745D01*
X309457Y203692D01*
X309408Y203630D01*
X309368Y203561D01*
X309340Y203487D01*
X309324Y203410D01*
X309320Y203331D01*
X309328Y203252D01*
X309349Y203176D01*
X309381Y203103D01*
X309424Y203037D01*
X309478Y202978D01*
X309539Y202929D01*
X309608Y202889D01*
X309682Y202861D01*
X309759Y202845D01*
X309838Y202841D01*
X309917Y202849D01*
X309994Y202870D01*
X310065Y202904D01*
X310308Y203026D01*
X310563Y203123D01*
X310826Y203196D01*
X311094Y203245D01*
X311365Y203270D01*
X311637D01*
X311909Y203245D01*
X312177Y203196D01*
X312439Y203123D01*
X312490Y203103D01*
Y197443D01*
X312439Y197424D01*
X312177Y197350D01*
X311909Y197301D01*
X311637Y197276D01*
X311365D01*
X311094Y197301D01*
X310826Y197350D01*
X310563Y197424D01*
X310308Y197520D01*
X310064Y197640D01*
X309993Y197673D01*
X309917Y197694D01*
X309838Y197702D01*
X309760Y197698D01*
X309683Y197682D01*
X309609Y197654D01*
X309541Y197615D01*
X309480Y197566D01*
X309427Y197507D01*
X309384Y197441D01*
X309352Y197370D01*
X309331Y197294D01*
X309323Y197215D01*
X309327Y197137D01*
X309343Y197060D01*
X309371Y196986D01*
X309410Y196918D01*
X309460Y196857D01*
X309518Y196804D01*
X309585Y196762D01*
X309909Y196599D01*
X310249Y196470D01*
X310599Y196372D01*
X310957Y196306D01*
X311319Y196273D01*
X311683D01*
X312045Y196306D01*
X312403Y196372D01*
X312490Y196396D01*
Y175660D01*
X308217D01*
Y198138D01*
X308287Y198112D01*
X308364Y198096D01*
X308443Y198092D01*
X308522Y198100D01*
X308599Y198121D01*
X308671Y198153D01*
X308737Y198196D01*
X308796Y198250D01*
X308846Y198311D01*
X308885Y198380D01*
X308913Y198454D01*
X308930Y198531D01*
X308933Y198610D01*
X308925Y198689D01*
X308904Y198766D01*
X308871Y198837D01*
X308748Y199081D01*
X308652Y199335D01*
X308578Y199598D01*
X308529Y199866D01*
X308504Y200137D01*
Y200409D01*
X308529Y200681D01*
X308578Y200949D01*
X308652Y201211D01*
X308748Y201466D01*
X308868Y201711D01*
X308901Y201782D01*
X308922Y201858D01*
X308930Y201936D01*
X308926Y202014D01*
X308910Y202092D01*
X308882Y202165D01*
X308843Y202233D01*
X308794Y202295D01*
X308735Y202347D01*
X308669Y202390D01*
X308598Y202423D01*
X308522Y202443D01*
X308443Y202451D01*
X308365Y202448D01*
X308288Y202431D01*
X308217Y202405D01*
Y301770D01*
G37*
G36*
Y334160D02*X312490D01*
Y313179D01*
X311480Y313100D01*
X310485Y312861D01*
X309540Y312469D01*
X308668Y311935D01*
X308217Y311550D01*
Y334160D01*
G37*
G36*
X298500Y331320D02*X298973Y331357D01*
X300411Y331702D01*
X301776Y332268D01*
X303036Y333040D01*
X304160Y334000D01*
X304297Y334160D01*
X308217D01*
Y311550D01*
X307890Y311270D01*
X307225Y310492D01*
X306691Y309620D01*
X306299Y308675D01*
X306060Y307680D01*
X305980Y306660D01*
X306060Y305640D01*
X306299Y304645D01*
X306691Y303700D01*
X307225Y302828D01*
X307890Y302050D01*
X308217Y301770D01*
Y202405D01*
X308214Y202403D01*
X308146Y202364D01*
X308085Y202315D01*
X308032Y202256D01*
X307990Y202190D01*
X307827Y201865D01*
X307698Y201525D01*
X307600Y201175D01*
X307534Y200817D01*
X307501Y200455D01*
Y200091D01*
X307534Y199729D01*
X307600Y199371D01*
X307698Y199021D01*
X307827Y198681D01*
X307987Y198355D01*
X308029Y198288D01*
X308082Y198229D01*
X308144Y198180D01*
X308213Y198140D01*
X308217Y198138D01*
Y175660D01*
X298500D01*
Y197628D01*
X298664Y197436D01*
X299143Y197027D01*
X299680Y196698D01*
X300261Y196457D01*
X300873Y196310D01*
X301501Y196261D01*
X302129Y196310D01*
X302741Y196457D01*
X303323Y196698D01*
X303860Y197027D01*
X304338Y197436D01*
X304747Y197915D01*
X305076Y198452D01*
X305317Y199033D01*
X305464Y199645D01*
X305501Y200273D01*
X305464Y200901D01*
X305317Y201513D01*
X305076Y202095D01*
X304747Y202632D01*
X304338Y203110D01*
X303860Y203519D01*
X303323Y203848D01*
X302741Y204089D01*
X302129Y204236D01*
X301501Y204285D01*
X300873Y204236D01*
X300261Y204089D01*
X299680Y203848D01*
X299143Y203519D01*
X298664Y203110D01*
X298500Y202918D01*
Y223647D01*
X298552Y223602D01*
X299223Y223191D01*
X299950Y222890D01*
X300715Y222706D01*
X301500Y222645D01*
X302285Y222706D01*
X303050Y222890D01*
X303777Y223191D01*
X304448Y223602D01*
X305046Y224114D01*
X305558Y224712D01*
X305969Y225383D01*
X306270Y226110D01*
X306454Y226875D01*
X306497Y227608D01*
X306517Y227191D01*
X306582Y226726D01*
X306692Y226269D01*
X306843Y225825D01*
X307036Y225396D01*
X307268Y224988D01*
X307315Y224924D01*
X307372Y224868D01*
X307436Y224823D01*
X307508Y224788D01*
X307583Y224764D01*
X307662Y224753D01*
X307741Y224754D01*
X307820Y224767D01*
X307895Y224793D01*
X307965Y224830D01*
X308029Y224877D01*
X308084Y224934D01*
X308130Y224999D01*
X308165Y225070D01*
X308188Y225146D01*
X308200Y225225D01*
X308199Y225304D01*
X308185Y225382D01*
X308160Y225457D01*
X308121Y225527D01*
X307932Y225851D01*
X307779Y226193D01*
X307658Y226548D01*
X307570Y226914D01*
X307518Y227285D01*
X307500Y227660D01*
X307518Y228035D01*
X307570Y228406D01*
X307658Y228772D01*
X307779Y229127D01*
X307932Y229469D01*
X308118Y229796D01*
X308156Y229864D01*
X308181Y229939D01*
X308194Y230016D01*
X308195Y230095D01*
X308184Y230173D01*
X308161Y230248D01*
X308126Y230319D01*
X308081Y230383D01*
X308026Y230439D01*
X307963Y230487D01*
X307893Y230523D01*
X307819Y230549D01*
X307741Y230562D01*
X307662Y230563D01*
X307584Y230552D01*
X307509Y230528D01*
X307439Y230494D01*
X307374Y230448D01*
X307318Y230393D01*
X307272Y230329D01*
X307036Y229924D01*
X306843Y229495D01*
X306692Y229051D01*
X306582Y228594D01*
X306517Y228129D01*
X306497Y227712D01*
X306454Y228445D01*
X306270Y229210D01*
X305969Y229937D01*
X305558Y230608D01*
X305046Y231206D01*
X304448Y231718D01*
X303777Y232129D01*
X303050Y232430D01*
X302285Y232614D01*
X301500Y232675D01*
X300715Y232614D01*
X299950Y232430D01*
X299223Y232129D01*
X298552Y231718D01*
X298500Y231673D01*
Y275160D01*
X302500D01*
X302892Y275183D01*
X303275Y275275D01*
X303638Y275426D01*
X303974Y275631D01*
X304273Y275887D01*
X304529Y276186D01*
X304734Y276522D01*
X304885Y276885D01*
X304977Y277268D01*
X305000Y277660D01*
Y285660D01*
X304977Y286052D01*
X304885Y286435D01*
X304734Y286798D01*
X304529Y287134D01*
X304273Y287433D01*
X303974Y287689D01*
X303638Y287894D01*
X303275Y288045D01*
X302892Y288137D01*
X302500Y288160D01*
X298500D01*
Y331320D01*
G37*
G36*
Y386660D02*X312490D01*
Y384000D01*
X307887D01*
X307652Y383986D01*
X307422Y383931D01*
X307204Y383840D01*
X307003Y383717D01*
X306823Y383563D01*
X306670Y383384D01*
X306546Y383183D01*
X306456Y382964D01*
X306401Y382735D01*
X306387Y382500D01*
Y373500D01*
X306401Y373264D01*
X306456Y373035D01*
X306546Y372816D01*
X306670Y372615D01*
X306823Y372436D01*
X307003Y372282D01*
X307204Y372159D01*
X307422Y372069D01*
X307652Y372013D01*
X307887Y372000D01*
X312490D01*
Y347160D01*
X304297D01*
X304160Y347320D01*
X303036Y348280D01*
X301776Y349052D01*
X300411Y349618D01*
X298973Y349963D01*
X298500Y350000D01*
Y386660D01*
G37*
G36*
Y175660D02*X291495D01*
Y196261D01*
X291501Y196261D01*
X292129Y196310D01*
X292741Y196457D01*
X293323Y196698D01*
X293860Y197027D01*
X294338Y197436D01*
X294747Y197915D01*
X295076Y198452D01*
X295317Y199033D01*
X295464Y199645D01*
X295501Y200273D01*
X295464Y200901D01*
X295317Y201513D01*
X295076Y202095D01*
X294747Y202632D01*
X294338Y203110D01*
X293860Y203519D01*
X293323Y203848D01*
X292741Y204089D01*
X292129Y204236D01*
X291501Y204285D01*
X291495Y204285D01*
Y222645D01*
X291500Y222645D01*
X292285Y222706D01*
X293050Y222890D01*
X293777Y223191D01*
X294448Y223602D01*
X295046Y224114D01*
X295558Y224712D01*
X295969Y225383D01*
X296270Y226110D01*
X296454Y226875D01*
X296493Y227548D01*
X296546Y226875D01*
X296730Y226110D01*
X297031Y225383D01*
X297442Y224712D01*
X297954Y224114D01*
X298500Y223647D01*
Y202918D01*
X298255Y202632D01*
X297926Y202095D01*
X297685Y201513D01*
X297538Y200901D01*
X297489Y200273D01*
X297538Y199645D01*
X297685Y199033D01*
X297926Y198452D01*
X298255Y197915D01*
X298500Y197628D01*
Y175660D01*
G37*
G36*
X291495D02*X286622D01*
Y226562D01*
X286730Y226110D01*
X287031Y225383D01*
X287442Y224712D01*
X287954Y224114D01*
X288552Y223602D01*
X289223Y223191D01*
X289950Y222890D01*
X290715Y222706D01*
X291495Y222645D01*
Y204285D01*
X290873Y204236D01*
X290261Y204089D01*
X289680Y203848D01*
X289143Y203519D01*
X288664Y203110D01*
X288255Y202632D01*
X287926Y202095D01*
X287685Y201513D01*
X287538Y200901D01*
X287489Y200273D01*
X287538Y199645D01*
X287685Y199033D01*
X287926Y198452D01*
X288255Y197915D01*
X288664Y197436D01*
X289143Y197027D01*
X289680Y196698D01*
X290261Y196457D01*
X290873Y196310D01*
X291495Y196261D01*
Y175660D01*
G37*
G36*
X286622Y386660D02*X298500D01*
Y350000D01*
X297500Y350079D01*
X296027Y349963D01*
X294589Y349618D01*
X293224Y349052D01*
X291964Y348280D01*
X290840Y347320D01*
X289880Y346196D01*
X289108Y344936D01*
X288542Y343571D01*
X288197Y342133D01*
X288081Y340660D01*
X288197Y339187D01*
X288542Y337749D01*
X289108Y336384D01*
X289880Y335124D01*
X290840Y334000D01*
X291964Y333040D01*
X293224Y332268D01*
X294589Y331702D01*
X296027Y331357D01*
X297500Y331241D01*
X298500Y331320D01*
Y288160D01*
X294500D01*
X294108Y288137D01*
X293725Y288045D01*
X293362Y287894D01*
X293026Y287689D01*
X292727Y287433D01*
X292471Y287134D01*
X292266Y286798D01*
X292115Y286435D01*
X292023Y286052D01*
X292000Y285660D01*
Y277660D01*
X292023Y277268D01*
X292115Y276885D01*
X292266Y276522D01*
X292471Y276186D01*
X292727Y275887D01*
X293026Y275631D01*
X293362Y275426D01*
X293725Y275275D01*
X294108Y275183D01*
X294500Y275160D01*
X298500D01*
Y231673D01*
X297954Y231206D01*
X297442Y230608D01*
X297031Y229937D01*
X296730Y229210D01*
X296546Y228445D01*
X296493Y227772D01*
X296454Y228445D01*
X296270Y229210D01*
X295969Y229937D01*
X295558Y230608D01*
X295046Y231206D01*
X294448Y231718D01*
X293777Y232129D01*
X293050Y232430D01*
X292285Y232614D01*
X291500Y232675D01*
X290715Y232614D01*
X289950Y232430D01*
X289223Y232129D01*
X288552Y231718D01*
X287954Y231206D01*
X287442Y230608D01*
X287031Y229937D01*
X286730Y229210D01*
X286622Y228758D01*
Y253818D01*
X286703Y253825D01*
X286894Y253872D01*
X287076Y253948D01*
X287243Y254052D01*
X287392Y254180D01*
X287519Y254330D01*
X287621Y254499D01*
X287692Y254682D01*
X287848Y255235D01*
X287949Y255800D01*
X288000Y256373D01*
Y256947D01*
X287949Y257520D01*
X287848Y258085D01*
X287698Y258640D01*
X287625Y258823D01*
X287522Y258992D01*
X287395Y259143D01*
X287245Y259271D01*
X287078Y259375D01*
X286896Y259452D01*
X286704Y259499D01*
X286622Y259506D01*
Y349898D01*
X287123Y350105D01*
X288633Y351030D01*
X289979Y352181D01*
X291130Y353527D01*
X292055Y355037D01*
X292732Y356673D01*
X293146Y358395D01*
X293250Y360160D01*
X293146Y361925D01*
X292732Y363647D01*
X292055Y365283D01*
X291130Y366793D01*
X289979Y368139D01*
X288633Y369290D01*
X287123Y370215D01*
X286622Y370422D01*
Y386660D01*
G37*
G36*
Y228758D02*X286546Y228445D01*
X286493Y227772D01*
X286454Y228445D01*
X286270Y229210D01*
X285969Y229937D01*
X285558Y230608D01*
X285046Y231206D01*
X284448Y231718D01*
X283777Y232129D01*
X283050Y232430D01*
X282285Y232614D01*
X281502Y232675D01*
Y250160D01*
X281787D01*
X282360Y250211D01*
X282925Y250312D01*
X283480Y250462D01*
X283663Y250535D01*
X283832Y250638D01*
X283983Y250765D01*
X284111Y250915D01*
X284215Y251082D01*
X284292Y251264D01*
X284339Y251456D01*
X284355Y251653D01*
X284341Y251850D01*
X284296Y252042D01*
X284221Y252224D01*
X284119Y252393D01*
X283991Y252544D01*
X283842Y252673D01*
X283674Y252777D01*
X283492Y252853D01*
X283301Y252900D01*
X283104Y252917D01*
X282907Y252902D01*
X282716Y252853D01*
X282376Y252757D01*
X282029Y252695D01*
X281677Y252664D01*
X281502D01*
Y260656D01*
X281677D01*
X282029Y260625D01*
X282376Y260563D01*
X282717Y260470D01*
X282908Y260422D01*
X283104Y260407D01*
X283300Y260424D01*
X283491Y260470D01*
X283672Y260547D01*
X283840Y260650D01*
X283989Y260779D01*
X284116Y260929D01*
X284218Y261097D01*
X284292Y261279D01*
X284337Y261471D01*
X284351Y261667D01*
X284335Y261863D01*
X284288Y262054D01*
X284212Y262236D01*
X284108Y262403D01*
X283980Y262552D01*
X283830Y262679D01*
X283661Y262781D01*
X283478Y262852D01*
X282925Y263008D01*
X282360Y263109D01*
X281787Y263160D01*
X281502D01*
Y348914D01*
X282000Y348875D01*
X283765Y349014D01*
X285487Y349428D01*
X286622Y349898D01*
Y259506D01*
X286507Y259515D01*
X286310Y259501D01*
X286118Y259456D01*
X285936Y259381D01*
X285767Y259279D01*
X285616Y259151D01*
X285487Y259002D01*
X285383Y258834D01*
X285307Y258652D01*
X285260Y258461D01*
X285243Y258264D01*
X285258Y258067D01*
X285307Y257876D01*
X285403Y257536D01*
X285465Y257189D01*
X285496Y256837D01*
Y256483D01*
X285465Y256131D01*
X285403Y255784D01*
X285310Y255443D01*
X285262Y255252D01*
X285247Y255056D01*
X285264Y254860D01*
X285310Y254669D01*
X285387Y254488D01*
X285490Y254320D01*
X285619Y254171D01*
X285769Y254044D01*
X285937Y253942D01*
X286119Y253868D01*
X286311Y253823D01*
X286507Y253809D01*
X286622Y253818D01*
Y228758D01*
G37*
G36*
Y175660D02*X281502D01*
Y196261D01*
X282129Y196310D01*
X282741Y196457D01*
X283323Y196698D01*
X283860Y197027D01*
X284338Y197436D01*
X284747Y197915D01*
X285076Y198452D01*
X285317Y199033D01*
X285464Y199645D01*
X285501Y200273D01*
X285464Y200901D01*
X285317Y201513D01*
X285076Y202095D01*
X284747Y202632D01*
X284338Y203110D01*
X283860Y203519D01*
X283323Y203848D01*
X282741Y204089D01*
X282129Y204236D01*
X281502Y204285D01*
Y222645D01*
X282285Y222706D01*
X283050Y222890D01*
X283777Y223191D01*
X284448Y223602D01*
X285046Y224114D01*
X285558Y224712D01*
X285969Y225383D01*
X286270Y226110D01*
X286454Y226875D01*
X286493Y227548D01*
X286546Y226875D01*
X286622Y226562D01*
Y175660D01*
G37*
G36*
X281502Y386660D02*X286622D01*
Y370422D01*
X285487Y370892D01*
X283765Y371306D01*
X282000Y371445D01*
X281502Y371406D01*
Y386660D01*
G37*
G36*
Y175660D02*X271495D01*
Y196261D01*
X271501Y196261D01*
X272129Y196310D01*
X272741Y196457D01*
X273323Y196698D01*
X273860Y197027D01*
X274338Y197436D01*
X274747Y197915D01*
X275076Y198452D01*
X275317Y199033D01*
X275464Y199645D01*
X275501Y200273D01*
X275464Y200901D01*
X275317Y201513D01*
X275076Y202095D01*
X274747Y202632D01*
X274338Y203110D01*
X273860Y203519D01*
X273323Y203848D01*
X272741Y204089D01*
X272129Y204236D01*
X271501Y204285D01*
X271495Y204285D01*
Y222645D01*
X271500Y222645D01*
X272285Y222706D01*
X273050Y222890D01*
X273777Y223191D01*
X274448Y223602D01*
X275046Y224114D01*
X275558Y224712D01*
X275969Y225383D01*
X276270Y226110D01*
X276454Y226875D01*
X276493Y227548D01*
X276546Y226875D01*
X276730Y226110D01*
X277031Y225383D01*
X277442Y224712D01*
X277954Y224114D01*
X278552Y223602D01*
X279223Y223191D01*
X279950Y222890D01*
X280715Y222706D01*
X281500Y222645D01*
X281502Y222645D01*
Y204285D01*
X281501Y204285D01*
X280873Y204236D01*
X280261Y204089D01*
X279680Y203848D01*
X279143Y203519D01*
X278664Y203110D01*
X278255Y202632D01*
X277926Y202095D01*
X277685Y201513D01*
X277538Y200901D01*
X277489Y200273D01*
X277538Y199645D01*
X277685Y199033D01*
X277926Y198452D01*
X278255Y197915D01*
X278664Y197436D01*
X279143Y197027D01*
X279680Y196698D01*
X280261Y196457D01*
X280873Y196310D01*
X281501Y196261D01*
X281502Y196261D01*
Y175660D01*
G37*
G36*
X271495D02*X263490D01*
Y196801D01*
X263860Y197027D01*
X264338Y197436D01*
X264747Y197915D01*
X265076Y198452D01*
X265317Y199033D01*
X265464Y199645D01*
X265501Y200273D01*
X265464Y200901D01*
X265317Y201513D01*
X265076Y202095D01*
X264747Y202632D01*
X264338Y203110D01*
X263860Y203519D01*
X263490Y203746D01*
Y223072D01*
X263777Y223191D01*
X264448Y223602D01*
X265046Y224114D01*
X265558Y224712D01*
X265969Y225383D01*
X266270Y226110D01*
X266454Y226875D01*
X266493Y227548D01*
X266546Y226875D01*
X266730Y226110D01*
X267031Y225383D01*
X267442Y224712D01*
X267954Y224114D01*
X268552Y223602D01*
X269223Y223191D01*
X269950Y222890D01*
X270715Y222706D01*
X271495Y222645D01*
Y204285D01*
X270873Y204236D01*
X270261Y204089D01*
X269680Y203848D01*
X269143Y203519D01*
X268664Y203110D01*
X268255Y202632D01*
X267926Y202095D01*
X267685Y201513D01*
X267538Y200901D01*
X267489Y200273D01*
X267538Y199645D01*
X267685Y199033D01*
X267926Y198452D01*
X268255Y197915D01*
X268664Y197436D01*
X269143Y197027D01*
X269680Y196698D01*
X270261Y196457D01*
X270873Y196310D01*
X271495Y196261D01*
Y175660D01*
G37*
G36*
X277750Y349744D02*X278513Y349428D01*
X280235Y349014D01*
X281502Y348914D01*
Y263160D01*
X281213D01*
X280640Y263109D01*
X280075Y263008D01*
X279520Y262858D01*
X279337Y262785D01*
X279168Y262682D01*
X279017Y262555D01*
X278889Y262405D01*
X278785Y262238D01*
X278708Y262056D01*
X278661Y261864D01*
X278645Y261667D01*
X278659Y261470D01*
X278704Y261278D01*
X278779Y261096D01*
X278881Y260927D01*
X279009Y260776D01*
X279158Y260647D01*
X279326Y260543D01*
X279508Y260467D01*
X279699Y260420D01*
X279896Y260403D01*
X280093Y260418D01*
X280284Y260467D01*
X280624Y260563D01*
X280971Y260625D01*
X281323Y260656D01*
X281502D01*
Y252664D01*
X281323D01*
X280971Y252695D01*
X280624Y252757D01*
X280283Y252850D01*
X280092Y252898D01*
X279896Y252913D01*
X279700Y252896D01*
X279509Y252850D01*
X279328Y252773D01*
X279160Y252670D01*
X279011Y252541D01*
X278884Y252391D01*
X278782Y252223D01*
X278708Y252041D01*
X278663Y251849D01*
X278649Y251653D01*
X278665Y251457D01*
X278712Y251266D01*
X278788Y251084D01*
X278892Y250917D01*
X279020Y250768D01*
X279170Y250641D01*
X279339Y250539D01*
X279522Y250468D01*
X280075Y250312D01*
X280640Y250211D01*
X281213Y250160D01*
X281502D01*
Y232675D01*
X281500Y232675D01*
X280715Y232614D01*
X279950Y232430D01*
X279223Y232129D01*
X278552Y231718D01*
X277954Y231206D01*
X277750Y230968D01*
Y254976D01*
X277757Y255056D01*
X277750Y255148D01*
Y258226D01*
X277753Y258264D01*
X277750Y258297D01*
Y303906D01*
X277946Y303922D01*
X278137Y303968D01*
X278319Y304043D01*
X278487Y304146D01*
X278637Y304273D01*
X278764Y304423D01*
X278867Y304591D01*
X278942Y304773D01*
X278988Y304964D01*
X279000Y305160D01*
Y308160D01*
X278988Y308356D01*
X278942Y308547D01*
X278867Y308729D01*
X278764Y308897D01*
X278637Y309047D01*
X278487Y309174D01*
X278319Y309277D01*
X278137Y309352D01*
X277946Y309398D01*
X277750Y309414D01*
Y349744D01*
G37*
G36*
Y255148D02*X277742Y255253D01*
X277693Y255444D01*
X277597Y255784D01*
X277535Y256131D01*
X277504Y256483D01*
Y256837D01*
X277535Y257189D01*
X277597Y257536D01*
X277690Y257877D01*
X277738Y258068D01*
X277750Y258226D01*
Y255148D01*
G37*
G36*
Y230968D02*X277442Y230608D01*
X277031Y229937D01*
X276730Y229210D01*
X276546Y228445D01*
X276493Y227772D01*
X276454Y228445D01*
X276378Y228758D01*
Y253814D01*
X276493Y253805D01*
X276690Y253819D01*
X276882Y253864D01*
X277064Y253939D01*
X277233Y254041D01*
X277384Y254169D01*
X277513Y254318D01*
X277617Y254486D01*
X277693Y254668D01*
X277740Y254859D01*
X277750Y254976D01*
Y230968D01*
G37*
G36*
X276378Y350411D02*X276877Y350105D01*
X277750Y349744D01*
Y309414D01*
X277554Y309398D01*
X277363Y309352D01*
X277181Y309277D01*
X277013Y309174D01*
X276863Y309047D01*
X276736Y308897D01*
X276633Y308729D01*
X276558Y308547D01*
X276512Y308356D01*
X276500Y308160D01*
Y305160D01*
X276512Y304964D01*
X276558Y304773D01*
X276633Y304591D01*
X276736Y304423D01*
X276863Y304273D01*
X277013Y304146D01*
X277181Y304043D01*
X277363Y303968D01*
X277554Y303922D01*
X277750Y303906D01*
Y258297D01*
X277736Y258460D01*
X277690Y258651D01*
X277613Y258832D01*
X277510Y259000D01*
X277381Y259149D01*
X277231Y259276D01*
X277063Y259378D01*
X276881Y259452D01*
X276689Y259497D01*
X276493Y259511D01*
X276378Y259502D01*
Y350411D01*
G37*
G36*
Y386660D02*X281502D01*
Y371406D01*
X280235Y371306D01*
X278513Y370892D01*
X276877Y370215D01*
X276378Y369909D01*
Y386660D01*
G37*
G36*
X272500Y354132D02*X272870Y353527D01*
X274021Y352181D01*
X275367Y351030D01*
X276378Y350411D01*
Y259502D01*
X276297Y259495D01*
X276106Y259448D01*
X275924Y259372D01*
X275757Y259268D01*
X275608Y259140D01*
X275481Y258990D01*
X275379Y258821D01*
X275308Y258638D01*
X275152Y258085D01*
X275051Y257520D01*
X275000Y256947D01*
Y256373D01*
X275051Y255800D01*
X275152Y255235D01*
X275302Y254680D01*
X275375Y254497D01*
X275478Y254328D01*
X275605Y254177D01*
X275755Y254049D01*
X275922Y253945D01*
X276104Y253868D01*
X276296Y253821D01*
X276378Y253814D01*
Y228758D01*
X276270Y229210D01*
X275969Y229937D01*
X275558Y230608D01*
X275046Y231206D01*
X274448Y231718D01*
X273777Y232129D01*
X273050Y232430D01*
X272500Y232562D01*
Y300160D01*
X274000D01*
X274196Y300172D01*
X274387Y300218D01*
X274569Y300293D01*
X274737Y300396D01*
X274887Y300523D01*
X275014Y300673D01*
X275117Y300841D01*
X275192Y301023D01*
X275238Y301214D01*
X275254Y301410D01*
X275238Y301606D01*
X275192Y301797D01*
X275117Y301979D01*
X275014Y302147D01*
X274887Y302297D01*
X274737Y302424D01*
X274569Y302527D01*
X274387Y302602D01*
X274196Y302648D01*
X274000Y302660D01*
X272500D01*
Y310660D01*
X274000D01*
X274196Y310672D01*
X274387Y310718D01*
X274569Y310793D01*
X274737Y310896D01*
X274887Y311023D01*
X275014Y311173D01*
X275117Y311341D01*
X275192Y311523D01*
X275238Y311714D01*
X275254Y311910D01*
X275238Y312106D01*
X275192Y312297D01*
X275117Y312479D01*
X275014Y312647D01*
X274887Y312797D01*
X274737Y312924D01*
X274569Y313027D01*
X274387Y313102D01*
X274196Y313148D01*
X274000Y313160D01*
X272500D01*
Y354132D01*
G37*
G36*
Y386660D02*X276378D01*
Y369909D01*
X275367Y369290D01*
X274021Y368139D01*
X272870Y366793D01*
X272500Y366188D01*
Y386660D01*
G37*
G36*
X267250D02*X272500D01*
Y366188D01*
X271945Y365283D01*
X271268Y363647D01*
X270854Y361925D01*
X270715Y360160D01*
X270854Y358395D01*
X271268Y356673D01*
X271945Y355037D01*
X272500Y354132D01*
Y313160D01*
X271000D01*
X270804Y313148D01*
X270613Y313102D01*
X270431Y313027D01*
X270263Y312924D01*
X270113Y312797D01*
X269986Y312647D01*
X269883Y312479D01*
X269808Y312297D01*
X269762Y312106D01*
X269746Y311910D01*
X269762Y311714D01*
X269808Y311523D01*
X269883Y311341D01*
X269986Y311173D01*
X270113Y311023D01*
X270263Y310896D01*
X270431Y310793D01*
X270613Y310718D01*
X270804Y310672D01*
X271000Y310660D01*
X272500D01*
Y302660D01*
X271000D01*
X270804Y302648D01*
X270613Y302602D01*
X270431Y302527D01*
X270263Y302424D01*
X270113Y302297D01*
X269986Y302147D01*
X269883Y301979D01*
X269808Y301797D01*
X269762Y301606D01*
X269746Y301410D01*
X269762Y301214D01*
X269808Y301023D01*
X269883Y300841D01*
X269986Y300673D01*
X270113Y300523D01*
X270263Y300396D01*
X270431Y300293D01*
X270613Y300218D01*
X270804Y300172D01*
X271000Y300160D01*
X272500D01*
Y232562D01*
X272285Y232614D01*
X271500Y232675D01*
X270715Y232614D01*
X269950Y232430D01*
X269223Y232129D01*
X268552Y231718D01*
X267954Y231206D01*
X267442Y230608D01*
X267250Y230294D01*
Y265170D01*
X267415Y265272D01*
X268210Y265950D01*
X268888Y266745D01*
X269435Y267636D01*
X269834Y268602D01*
X270078Y269618D01*
X270140Y270660D01*
X270078Y271702D01*
X270000Y272029D01*
Y291291D01*
X270078Y291618D01*
X270140Y292660D01*
X270078Y293702D01*
X269834Y294718D01*
X269435Y295684D01*
X268888Y296575D01*
X268210Y297370D01*
X267415Y298048D01*
X267250Y298150D01*
Y303906D01*
X267446Y303922D01*
X267637Y303968D01*
X267819Y304043D01*
X267987Y304146D01*
X268137Y304273D01*
X268264Y304423D01*
X268367Y304591D01*
X268442Y304773D01*
X268488Y304964D01*
X268500Y305160D01*
Y308160D01*
X268488Y308356D01*
X268442Y308547D01*
X268367Y308729D01*
X268264Y308897D01*
X268137Y309047D01*
X267987Y309174D01*
X267819Y309277D01*
X267637Y309352D01*
X267446Y309398D01*
X267250Y309414D01*
Y386660D01*
G37*
G36*
Y298150D02*X266524Y298595D01*
X265558Y298994D01*
X264542Y299238D01*
X263500Y299320D01*
X263490Y299320D01*
Y335119D01*
X263627Y335152D01*
X264391Y335468D01*
X265095Y335900D01*
X265724Y336436D01*
X266260Y337065D01*
X266692Y337769D01*
X267008Y338533D01*
X267201Y339336D01*
X267250Y340160D01*
Y309414D01*
X267054Y309398D01*
X266863Y309352D01*
X266681Y309277D01*
X266513Y309174D01*
X266363Y309047D01*
X266236Y308897D01*
X266133Y308729D01*
X266058Y308547D01*
X266012Y308356D01*
X266000Y308160D01*
Y305160D01*
X266012Y304964D01*
X266058Y304773D01*
X266133Y304591D01*
X266236Y304423D01*
X266363Y304273D01*
X266513Y304146D01*
X266681Y304043D01*
X266863Y303968D01*
X267054Y303922D01*
X267250Y303906D01*
Y298150D01*
G37*
G36*
Y230294D02*X267031Y229937D01*
X266730Y229210D01*
X266546Y228445D01*
X266493Y227772D01*
X266454Y228445D01*
X266270Y229210D01*
X265969Y229937D01*
X265558Y230608D01*
X265046Y231206D01*
X264448Y231718D01*
X263777Y232129D01*
X263490Y232248D01*
Y264000D01*
X263500Y264000D01*
X264542Y264082D01*
X265558Y264326D01*
X266524Y264725D01*
X267250Y265170D01*
Y230294D01*
G37*
G36*
X263490Y386660D02*X267250D01*
Y340160D01*
X267201Y340984D01*
X267008Y341787D01*
X266692Y342551D01*
X266260Y343255D01*
X265724Y343884D01*
X265095Y344420D01*
X264391Y344852D01*
X263627Y345168D01*
X263490Y345201D01*
Y386660D01*
G37*
G36*
X251495Y222645D02*X251500Y222645D01*
X252285Y222706D01*
X253050Y222890D01*
X253777Y223191D01*
X254448Y223602D01*
X255046Y224114D01*
X255558Y224712D01*
X255969Y225383D01*
X256270Y226110D01*
X256454Y226875D01*
X256493Y227548D01*
X256546Y226875D01*
X256730Y226110D01*
X257031Y225383D01*
X257442Y224712D01*
X257954Y224114D01*
X258552Y223602D01*
X259223Y223191D01*
X259950Y222890D01*
X260715Y222706D01*
X261500Y222645D01*
X262285Y222706D01*
X263050Y222890D01*
X263490Y223072D01*
Y203746D01*
X263323Y203848D01*
X262741Y204089D01*
X262129Y204236D01*
X261501Y204285D01*
X260873Y204236D01*
X260261Y204089D01*
X259680Y203848D01*
X259143Y203519D01*
X258664Y203110D01*
X258255Y202632D01*
X257926Y202095D01*
X257685Y201513D01*
X257538Y200901D01*
X257489Y200273D01*
X257538Y199645D01*
X257685Y199033D01*
X257926Y198452D01*
X258255Y197915D01*
X258664Y197436D01*
X259143Y197027D01*
X259680Y196698D01*
X260261Y196457D01*
X260873Y196310D01*
X261501Y196261D01*
X262129Y196310D01*
X262741Y196457D01*
X263323Y196698D01*
X263490Y196801D01*
Y175660D01*
X251495D01*
Y196261D01*
X251501Y196261D01*
X252129Y196310D01*
X252741Y196457D01*
X253323Y196698D01*
X253860Y197027D01*
X254338Y197436D01*
X254747Y197915D01*
X255076Y198452D01*
X255317Y199033D01*
X255464Y199645D01*
X255501Y200273D01*
X255464Y200901D01*
X255317Y201513D01*
X255076Y202095D01*
X254747Y202632D01*
X254338Y203110D01*
X253860Y203519D01*
X253323Y203848D01*
X252741Y204089D01*
X252129Y204236D01*
X251501Y204285D01*
X251495Y204285D01*
Y222645D01*
G37*
G36*
X241490Y222660D02*X245500D01*
X245657Y222669D01*
X245810Y222706D01*
X245955Y222766D01*
X246090Y222848D01*
X246209Y222951D01*
X246312Y223070D01*
X246394Y223205D01*
X246454Y223350D01*
X246491Y223503D01*
X246500Y223660D01*
Y227464D01*
X246546Y226875D01*
X246730Y226110D01*
X247031Y225383D01*
X247442Y224712D01*
X247954Y224114D01*
X248552Y223602D01*
X249223Y223191D01*
X249950Y222890D01*
X250715Y222706D01*
X251495Y222645D01*
Y204285D01*
X250873Y204236D01*
X250261Y204089D01*
X249680Y203848D01*
X249143Y203519D01*
X248664Y203110D01*
X248255Y202632D01*
X247926Y202095D01*
X247685Y201513D01*
X247538Y200901D01*
X247489Y200273D01*
X247538Y199645D01*
X247685Y199033D01*
X247926Y198452D01*
X248255Y197915D01*
X248664Y197436D01*
X249143Y197027D01*
X249680Y196698D01*
X250261Y196457D01*
X250873Y196310D01*
X251495Y196261D01*
Y175660D01*
X241490D01*
Y196273D01*
X244501D01*
X244658Y196282D01*
X244811Y196319D01*
X244956Y196379D01*
X245091Y196462D01*
X245210Y196564D01*
X245313Y196684D01*
X245395Y196818D01*
X245455Y196963D01*
X245492Y197116D01*
X245501Y197273D01*
Y203273D01*
X245492Y203430D01*
X245455Y203583D01*
X245395Y203729D01*
X245313Y203863D01*
X245210Y203982D01*
X245091Y204085D01*
X244956Y204167D01*
X244811Y204227D01*
X244658Y204264D01*
X244501Y204273D01*
X241490D01*
Y222660D01*
G37*
G36*
X252002Y386660D02*X263490D01*
Y345201D01*
X262824Y345361D01*
X262000Y345426D01*
X261176Y345361D01*
X260373Y345168D01*
X259609Y344852D01*
X258905Y344420D01*
X258276Y343884D01*
X257740Y343255D01*
X257308Y342551D01*
X256993Y341792D01*
X256976Y341852D01*
X256796Y342310D01*
X256574Y342749D01*
X256519Y342832D01*
X256451Y342904D01*
X256373Y342965D01*
X256286Y343013D01*
X256193Y343047D01*
X256096Y343066D01*
X255997Y343069D01*
X255899Y343057D01*
X255804Y343030D01*
X255714Y342988D01*
X255632Y342932D01*
X255559Y342865D01*
X255498Y342787D01*
X255450Y342700D01*
X255416Y342607D01*
X255398Y342510D01*
X255394Y342411D01*
X255406Y342312D01*
X255434Y342217D01*
X255477Y342128D01*
X255650Y341796D01*
X255787Y341448D01*
X255891Y341088D01*
X255961Y340720D01*
X255996Y340347D01*
Y339973D01*
X255961Y339600D01*
X255891Y339232D01*
X255787Y338872D01*
X255650Y338524D01*
X255481Y338189D01*
X255438Y338101D01*
X255411Y338007D01*
X255398Y337909D01*
X255402Y337811D01*
X255421Y337714D01*
X255454Y337622D01*
X255502Y337536D01*
X255562Y337458D01*
X255634Y337391D01*
X255716Y337336D01*
X255805Y337294D01*
X255900Y337267D01*
X255997Y337255D01*
X256096Y337259D01*
X256192Y337277D01*
X256285Y337311D01*
X256371Y337359D01*
X256448Y337419D01*
X256515Y337491D01*
X256569Y337574D01*
X256796Y338010D01*
X256976Y338468D01*
X256993Y338528D01*
X257308Y337769D01*
X257740Y337065D01*
X258276Y336436D01*
X258905Y335900D01*
X259609Y335468D01*
X260373Y335152D01*
X261176Y334959D01*
X262000Y334894D01*
X262824Y334959D01*
X263490Y335119D01*
Y299320D01*
X262458Y299238D01*
X261442Y298994D01*
X260476Y298595D01*
X259585Y298048D01*
X258790Y297370D01*
X258112Y296575D01*
X257565Y295684D01*
X257166Y294718D01*
X256922Y293702D01*
X256840Y292660D01*
X256922Y291618D01*
X257000Y291291D01*
Y272029D01*
X256922Y271702D01*
X256840Y270660D01*
X256922Y269618D01*
X257166Y268602D01*
X257565Y267636D01*
X258112Y266745D01*
X258790Y265950D01*
X259585Y265272D01*
X260476Y264725D01*
X261442Y264326D01*
X262458Y264082D01*
X263490Y264000D01*
Y232248D01*
X263050Y232430D01*
X262285Y232614D01*
X261500Y232675D01*
X260715Y232614D01*
X259950Y232430D01*
X259223Y232129D01*
X258552Y231718D01*
X257954Y231206D01*
X257442Y230608D01*
X257031Y229937D01*
X256730Y229210D01*
X256546Y228445D01*
X256493Y227772D01*
X256454Y228445D01*
X256270Y229210D01*
X255969Y229937D01*
X255558Y230608D01*
X255046Y231206D01*
X254448Y231718D01*
X253777Y232129D01*
X253050Y232430D01*
X252285Y232614D01*
X252002Y232636D01*
Y334910D01*
X252246D01*
X252736Y334956D01*
X253219Y335048D01*
X253692Y335184D01*
X254150Y335364D01*
X254589Y335586D01*
X254672Y335641D01*
X254744Y335709D01*
X254805Y335787D01*
X254853Y335874D01*
X254887Y335967D01*
X254906Y336064D01*
X254909Y336163D01*
X254897Y336261D01*
X254870Y336356D01*
X254828Y336446D01*
X254772Y336528D01*
X254705Y336601D01*
X254627Y336662D01*
X254540Y336710D01*
X254447Y336744D01*
X254350Y336762D01*
X254251Y336766D01*
X254152Y336754D01*
X254057Y336726D01*
X253968Y336683D01*
X253636Y336510D01*
X253288Y336373D01*
X252928Y336269D01*
X252560Y336199D01*
X252187Y336164D01*
X252002D01*
Y344156D01*
X252187D01*
X252560Y344121D01*
X252928Y344051D01*
X253288Y343947D01*
X253636Y343810D01*
X253971Y343641D01*
X254059Y343598D01*
X254153Y343571D01*
X254251Y343558D01*
X254349Y343562D01*
X254446Y343581D01*
X254538Y343614D01*
X254624Y343662D01*
X254702Y343722D01*
X254769Y343794D01*
X254824Y343876D01*
X254866Y343965D01*
X254893Y344060D01*
X254905Y344157D01*
X254901Y344256D01*
X254883Y344352D01*
X254849Y344445D01*
X254801Y344531D01*
X254741Y344608D01*
X254669Y344675D01*
X254586Y344729D01*
X254150Y344956D01*
X253692Y345136D01*
X253219Y345272D01*
X252736Y345364D01*
X252246Y345410D01*
X252002D01*
Y354951D01*
X252055Y355037D01*
X252732Y356673D01*
X253146Y358395D01*
X253250Y360160D01*
X253146Y361925D01*
X252732Y363647D01*
X252055Y365283D01*
X252002Y365369D01*
Y386660D01*
G37*
G36*
Y232636D02*X251500Y232675D01*
X250715Y232614D01*
X249950Y232430D01*
X249223Y232129D01*
X248552Y231718D01*
X247954Y231206D01*
X247678Y230884D01*
Y251429D01*
X247734Y251522D01*
X247885Y251885D01*
X247977Y252268D01*
X248000Y252660D01*
Y260660D01*
X247977Y261052D01*
X247885Y261435D01*
X247734Y261798D01*
X247678Y261891D01*
Y271590D01*
X247701Y271645D01*
X247940Y272640D01*
X248000Y273660D01*
X247940Y274680D01*
X247701Y275675D01*
X247678Y275730D01*
Y308429D01*
X247734Y308522D01*
X247885Y308885D01*
X247977Y309268D01*
X248000Y309660D01*
Y317660D01*
X247977Y318052D01*
X247885Y318435D01*
X247734Y318798D01*
X247678Y318891D01*
Y337327D01*
X247714Y337307D01*
X247807Y337273D01*
X247904Y337254D01*
X248003Y337251D01*
X248101Y337263D01*
X248196Y337290D01*
X248286Y337332D01*
X248368Y337388D01*
X248441Y337455D01*
X248502Y337533D01*
X248550Y337620D01*
X248584Y337713D01*
X248602Y337810D01*
X248606Y337909D01*
X248594Y338008D01*
X248566Y338103D01*
X248523Y338192D01*
X248350Y338524D01*
X248213Y338872D01*
X248109Y339232D01*
X248039Y339600D01*
X248004Y339973D01*
Y340347D01*
X248039Y340720D01*
X248109Y341088D01*
X248213Y341448D01*
X248350Y341796D01*
X248519Y342131D01*
X248562Y342219D01*
X248589Y342313D01*
X248602Y342411D01*
X248598Y342509D01*
X248579Y342606D01*
X248546Y342698D01*
X248498Y342784D01*
X248438Y342862D01*
X248366Y342929D01*
X248284Y342984D01*
X248195Y343026D01*
X248100Y343053D01*
X248003Y343065D01*
X247904Y343061D01*
X247808Y343043D01*
X247715Y343009D01*
X247678Y342988D01*
Y350445D01*
X248633Y351030D01*
X249979Y352181D01*
X251130Y353527D01*
X252002Y354951D01*
Y345410D01*
X251754D01*
X251264Y345364D01*
X250781Y345272D01*
X250308Y345136D01*
X249850Y344956D01*
X249411Y344734D01*
X249328Y344679D01*
X249256Y344611D01*
X249195Y344533D01*
X249147Y344446D01*
X249113Y344353D01*
X249094Y344256D01*
X249091Y344157D01*
X249103Y344059D01*
X249130Y343964D01*
X249172Y343874D01*
X249228Y343792D01*
X249295Y343719D01*
X249373Y343658D01*
X249460Y343610D01*
X249553Y343576D01*
X249650Y343558D01*
X249749Y343554D01*
X249848Y343566D01*
X249943Y343594D01*
X250032Y343637D01*
X250364Y343810D01*
X250712Y343947D01*
X251072Y344051D01*
X251440Y344121D01*
X251813Y344156D01*
X252002D01*
Y336164D01*
X251813D01*
X251440Y336199D01*
X251072Y336269D01*
X250712Y336373D01*
X250364Y336510D01*
X250029Y336679D01*
X249941Y336722D01*
X249847Y336749D01*
X249749Y336762D01*
X249651Y336758D01*
X249554Y336739D01*
X249462Y336706D01*
X249376Y336658D01*
X249298Y336598D01*
X249231Y336526D01*
X249176Y336444D01*
X249134Y336355D01*
X249107Y336260D01*
X249095Y336163D01*
X249099Y336064D01*
X249117Y335968D01*
X249151Y335875D01*
X249199Y335789D01*
X249259Y335712D01*
X249331Y335645D01*
X249414Y335591D01*
X249850Y335364D01*
X250308Y335184D01*
X250781Y335048D01*
X251264Y334956D01*
X251754Y334910D01*
X252002D01*
Y232636D01*
G37*
G36*
X247678Y318891D02*X247529Y319134D01*
X247273Y319433D01*
X246974Y319689D01*
X246638Y319894D01*
X246275Y320045D01*
X245892Y320137D01*
X245500Y320160D01*
X241490D01*
Y348915D01*
X242000Y348875D01*
X243765Y349014D01*
X245487Y349428D01*
X247123Y350105D01*
X247678Y350445D01*
Y342988D01*
X247629Y342961D01*
X247552Y342901D01*
X247485Y342829D01*
X247431Y342746D01*
X247204Y342310D01*
X247024Y341852D01*
X246888Y341379D01*
X246796Y340896D01*
X246750Y340406D01*
Y339914D01*
X246796Y339424D01*
X246888Y338941D01*
X247024Y338468D01*
X247204Y338010D01*
X247426Y337571D01*
X247481Y337488D01*
X247549Y337416D01*
X247627Y337355D01*
X247678Y337327D01*
Y318891D01*
G37*
G36*
Y275730D02*X247309Y276620D01*
X246775Y277492D01*
X246110Y278270D01*
X245332Y278935D01*
X244460Y279469D01*
X243515Y279861D01*
X242520Y280100D01*
X241500Y280180D01*
X241490Y280179D01*
Y307160D01*
X245500D01*
X245892Y307183D01*
X246275Y307275D01*
X246638Y307426D01*
X246974Y307631D01*
X247273Y307887D01*
X247529Y308186D01*
X247678Y308429D01*
Y275730D01*
G37*
G36*
Y261891D02*X247529Y262134D01*
X247273Y262433D01*
X246974Y262689D01*
X246638Y262894D01*
X246275Y263045D01*
X245892Y263137D01*
X245500Y263160D01*
X241490D01*
Y267141D01*
X241500Y267140D01*
X242520Y267220D01*
X243515Y267459D01*
X244460Y267851D01*
X245332Y268385D01*
X246110Y269050D01*
X246775Y269828D01*
X247309Y270700D01*
X247678Y271590D01*
Y261891D01*
G37*
G36*
Y230884D02*X247442Y230608D01*
X247031Y229937D01*
X246730Y229210D01*
X246546Y228445D01*
X246500Y227856D01*
Y231660D01*
X246491Y231817D01*
X246454Y231970D01*
X246394Y232115D01*
X246312Y232250D01*
X246209Y232369D01*
X246090Y232472D01*
X245955Y232554D01*
X245810Y232614D01*
X245657Y232651D01*
X245500Y232660D01*
X241490D01*
Y250160D01*
X245500D01*
X245892Y250183D01*
X246275Y250275D01*
X246638Y250426D01*
X246974Y250631D01*
X247273Y250887D01*
X247529Y251186D01*
X247678Y251429D01*
Y230884D01*
G37*
G36*
X245500Y386660D02*X252002D01*
Y365369D01*
X251130Y366793D01*
X249979Y368139D01*
X248633Y369290D01*
X247123Y370215D01*
X245487Y370892D01*
X243765Y371306D01*
X242000Y371445D01*
X241490Y371405D01*
Y385155D01*
X244500Y386660D01*
X245500D01*
G37*
G36*
X241490Y371405D02*X240235Y371306D01*
X238513Y370892D01*
X236877Y370215D01*
X235367Y369290D01*
X234021Y368139D01*
X233500Y367530D01*
Y373660D01*
X236500Y380660D01*
X240500Y384660D01*
X241490Y385155D01*
Y371405D01*
G37*
G36*
Y232660D02*X237500D01*
X237343Y232651D01*
X237190Y232614D01*
X237045Y232554D01*
X236910Y232472D01*
X236791Y232369D01*
X236688Y232250D01*
X236606Y232115D01*
X236546Y231970D01*
X236509Y231817D01*
X236500Y231660D01*
Y223660D01*
X236509Y223503D01*
X236546Y223350D01*
X236606Y223205D01*
X236688Y223070D01*
X236791Y222951D01*
X236910Y222848D01*
X237045Y222766D01*
X237190Y222706D01*
X237343Y222669D01*
X237500Y222660D01*
X241490D01*
Y204273D01*
X238501D01*
X238344Y204264D01*
X238191Y204227D01*
X238046Y204167D01*
X237912Y204085D01*
X237792Y203982D01*
X237690Y203863D01*
X237607Y203729D01*
X237547Y203583D01*
X237510Y203430D01*
X237501Y203273D01*
Y197273D01*
X237510Y197116D01*
X237547Y196963D01*
X237607Y196818D01*
X237690Y196684D01*
X237792Y196564D01*
X237912Y196462D01*
X238046Y196379D01*
X238191Y196319D01*
X238344Y196282D01*
X238501Y196273D01*
X241490D01*
Y175660D01*
X233500D01*
Y352790D01*
X234021Y352181D01*
X235367Y351030D01*
X236877Y350105D01*
X238513Y349428D01*
X240235Y349014D01*
X241490Y348915D01*
Y320160D01*
X237500D01*
X237108Y320137D01*
X236725Y320045D01*
X236362Y319894D01*
X236026Y319689D01*
X235727Y319433D01*
X235471Y319134D01*
X235266Y318798D01*
X235115Y318435D01*
X235023Y318052D01*
X235000Y317660D01*
Y309660D01*
X235023Y309268D01*
X235115Y308885D01*
X235266Y308522D01*
X235471Y308186D01*
X235727Y307887D01*
X236026Y307631D01*
X236362Y307426D01*
X236725Y307275D01*
X237108Y307183D01*
X237500Y307160D01*
X241490D01*
Y280179D01*
X240480Y280100D01*
X239485Y279861D01*
X238540Y279469D01*
X237668Y278935D01*
X236890Y278270D01*
X236225Y277492D01*
X235691Y276620D01*
X235299Y275675D01*
X235060Y274680D01*
X234980Y273660D01*
X235060Y272640D01*
X235299Y271645D01*
X235691Y270700D01*
X236225Y269828D01*
X236890Y269050D01*
X237668Y268385D01*
X238540Y267851D01*
X239485Y267459D01*
X240480Y267220D01*
X241490Y267141D01*
Y263160D01*
X237500D01*
X237108Y263137D01*
X236725Y263045D01*
X236362Y262894D01*
X236026Y262689D01*
X235727Y262433D01*
X235471Y262134D01*
X235266Y261798D01*
X235115Y261435D01*
X235023Y261052D01*
X235000Y260660D01*
Y252660D01*
X235023Y252268D01*
X235115Y251885D01*
X235266Y251522D01*
X235471Y251186D01*
X235727Y250887D01*
X236026Y250631D01*
X236362Y250426D01*
X236725Y250275D01*
X237108Y250183D01*
X237500Y250160D01*
X241490D01*
Y232660D01*
G37*
G54D12*X297500Y340660D02*X331660D01*
X263500Y270660D02*Y292660D01*
X331660Y340660D02*X352000Y361000D01*
Y381000D01*
X372000D01*
G54D11*G36*
X327500Y324660D02*Y316660D01*
X335500D01*
Y324660D01*
X327500D01*
G37*
G54D12*X405500Y279160D03*
X338500Y281660D03*
G54D13*X362000Y316000D03*
Y301000D03*
G54D12*X331500Y310660D03*
X312500Y306660D03*
X241500Y273660D03*
G54D11*G36*
X237500Y260660D02*Y252660D01*
X245500D01*
Y260660D01*
X237500D01*
G37*
G36*
X334500D02*Y252660D01*
X342500D01*
Y260660D01*
X334500D01*
G37*
G54D12*X281500Y256660D03*
G54D11*G36*
X294500Y285660D02*Y277660D01*
X302500D01*
Y285660D01*
X294500D01*
G37*
G54D12*X378500Y256660D03*
G54D14*X291501Y200273D03*
X281501D03*
X271501D03*
X261501D03*
X321501D03*
X311501D03*
X301501D03*
G54D11*G36*
X338500Y209660D02*Y201660D01*
X346500D01*
Y209660D01*
X338500D01*
G37*
G54D12*X352500Y205660D03*
G54D14*X251501Y200273D03*
G54D12*X251500Y227660D03*
X261500D03*
G54D11*G36*
X238501Y203273D02*Y197273D01*
X244501D01*
Y203273D01*
X238501D01*
G37*
G36*
X237500Y231660D02*Y223660D01*
X245500D01*
Y231660D01*
X237500D01*
G37*
G54D12*X271500Y227660D03*
X281500D03*
X291500D03*
X301500D03*
X311500D03*
X321500D03*
G54D11*G36*
X237500Y317660D02*Y309660D01*
X245500D01*
Y317660D01*
X237500D01*
G37*
G36*
X268500Y310660D02*Y302660D01*
X276500D01*
Y310660D01*
X268500D01*
G37*
G36*
X401500Y383160D02*Y375160D01*
X409500D01*
Y383160D01*
X401500D01*
G37*
G36*
X307887Y382500D02*Y373500D01*
X316887D01*
Y382500D01*
X307887D01*
G37*
G54D15*X322387Y368000D03*
X332387Y378000D03*
G54D16*X372000Y381000D03*
X352000D03*
G54D17*X242000Y360160D03*
X282000D03*
G54D12*X252000Y340160D03*
X262000D03*
G54D11*G36*
X356250Y336750D02*Y325250D01*
X367750D01*
Y336750D01*
X356250D01*
G37*
G54D18*X263500Y270660D03*
G54D19*X297500Y340660D03*
G54D18*X263500Y292660D03*
G54D20*G54D21*G54D22*G54D21*G54D23*G54D21*G54D23*G54D24*G54D23*G54D24*G54D21*G54D14*G54D22*G54D25*G54D26*G54D22*M02*
