G04 start of page 8 for group 1 layer_idx 9 *
G04 Title: (unknown), top_silk *
G04 Creator: pcb-rnd 1.2.4 *
G04 CreationDate: 2017-09-22 19:00:37 UTC *
G04 For:  *
G04 Format: Gerber/RS-274X *
G04 PCB-Dimensions: 600000 500000 *
G04 PCB-Coordinate-Origin: lower left *
%MOIN*%
%FSLAX25Y25*%
%LNTOPSILK*%
%ADD71C,0.0300*%
%ADD70C,0.0200*%
%ADD69C,0.0150*%
%ADD68C,0.0400*%
%ADD67C,0.0100*%
%ADD66C,0.0070*%
G54D66*X290500Y246660D02*Y242660D01*
Y246660D02*X292000Y244660D01*
X293500Y246660D01*
Y242660D01*
X296200Y244660D02*X296700Y244160D01*
X295200Y244660D02*X296200D01*
X294700Y244160D02*X295200Y244660D01*
X294700Y244160D02*Y243160D01*
X295200Y242660D01*
X296700Y244660D02*Y243160D01*
X297200Y242660D01*
X295200D02*X296200D01*
X296700Y243160D01*
X300400Y246660D02*Y242660D01*
X299900D02*X300400Y243160D01*
X298900Y242660D02*X299900D01*
X298400Y243160D02*X298900Y242660D01*
X298400Y244160D02*Y243160D01*
Y244160D02*X298900Y244660D01*
X299900D01*
X300400Y244160D01*
X302100Y242660D02*X303600D01*
X301600Y243160D02*X302100Y242660D01*
X301600Y244160D02*Y243160D01*
Y244160D02*X302100Y244660D01*
X303100D01*
X303600Y244160D01*
X301600Y243660D02*X303600D01*
Y244160D02*Y243660D01*
X306600Y244660D02*Y243160D01*
X307100Y242660D01*
X307600D01*
X308100Y243160D01*
Y244660D02*Y243160D01*
X308600Y242660D01*
X309100D01*
X309600Y243160D01*
Y244660D02*Y243160D01*
X310800Y245660D02*Y245560D01*
Y244160D02*Y242660D01*
X312300Y246660D02*Y243160D01*
X312800Y242660D01*
X311800Y245160D02*X312800D01*
X313800Y246660D02*Y242660D01*
Y244160D02*X314300Y244660D01*
X315300D01*
X315800Y244160D01*
Y242660D01*
X320300Y244660D02*X320800Y244160D01*
X319300Y244660D02*X320300D01*
X318800Y244160D02*X319300Y244660D01*
X318800Y244160D02*Y243160D01*
X319300Y242660D01*
X320300D01*
X320800Y243160D01*
X318800Y241660D02*X319300Y241160D01*
X320300D01*
X320800Y241660D01*
Y244660D02*Y241660D01*
X322000Y244860D02*X323500D01*
X322000Y242660D02*X324000D01*
X322000Y246660D02*Y242660D01*
Y246660D02*X324000D01*
X325700D02*Y242660D01*
X327000Y246660D02*X327700Y245960D01*
Y243360D01*
X327000Y242660D02*X327700Y243360D01*
X325200Y242660D02*X327000D01*
X325200Y246660D02*X327000D01*
X328900Y245660D02*Y242660D01*
Y245660D02*X329600Y246660D01*
X330700D01*
X331400Y245660D01*
Y242660D01*
X328900Y244660D02*X331400D01*
X335900D02*X336400Y244160D01*
X334900Y244660D02*X335900D01*
X334400Y244160D02*X334900Y244660D01*
X334400Y244160D02*Y243160D01*
X334900Y242660D01*
X336400Y244660D02*Y243160D01*
X336900Y242660D01*
X334900D02*X335900D01*
X336400Y243160D01*
X338600Y244160D02*Y242660D01*
Y244160D02*X339100Y244660D01*
X339600D01*
X340100Y244160D01*
Y242660D01*
X338100Y244660D02*X338600Y244160D01*
X343300Y246660D02*Y242660D01*
X342800D02*X343300Y243160D01*
X341800Y242660D02*X342800D01*
X341300Y243160D02*X341800Y242660D01*
X341300Y244160D02*Y243160D01*
Y244160D02*X341800Y244660D01*
X342800D01*
X343300Y244160D01*
X346800Y246660D02*Y242660D01*
X346300Y246660D02*X348300D01*
X348800Y246160D01*
Y245160D01*
X348300Y244660D02*X348800Y245160D01*
X346800Y244660D02*X348300D01*
X350700Y242660D02*X352000D01*
X350000Y243360D02*X350700Y242660D01*
X350000Y245960D02*Y243360D01*
Y245960D02*X350700Y246660D01*
X352000D01*
X353200Y242660D02*X355200D01*
X355700Y243160D01*
Y244360D02*Y243160D01*
X355200Y244860D02*X355700Y244360D01*
X353700Y244860D02*X355200D01*
X353700Y246660D02*Y242660D01*
X353200Y246660D02*X355200D01*
X355700Y246160D01*
Y245360D01*
X355200Y244860D02*X355700Y245360D01*
X356900Y244660D02*X358900D01*
X360100Y246660D02*X362100D01*
X362600Y246160D01*
Y245160D01*
X362100Y244660D02*X362600Y245160D01*
X360600Y244660D02*X362100D01*
X360600Y246660D02*Y242660D01*
X361400Y244660D02*X362600Y242660D01*
X363800Y246660D02*Y242660D01*
Y246660D02*X366300Y242660D01*
Y246660D02*Y242660D01*
X368000Y246660D02*Y242660D01*
X369300Y246660D02*X370000Y245960D01*
Y243360D01*
X369300Y242660D02*X370000Y243360D01*
X367500Y242660D02*X369300D01*
X367500Y246660D02*X369300D01*
X373000Y243160D02*X373500Y242660D01*
X373000Y246160D02*X373500Y246660D01*
X373000Y246160D02*Y243160D01*
X375200Y244160D02*Y242660D01*
Y244160D02*X375700Y244660D01*
X376700D01*
X374700D02*X375200Y244160D01*
X378400Y242660D02*X379900Y244660D01*
Y246160D02*Y244660D01*
X379400Y246660D02*X379900Y246160D01*
X378400Y246660D02*X379400D01*
X377900Y246160D02*X378400Y246660D01*
X377900Y246160D02*Y245160D01*
X378400Y244660D01*
X379900D01*
X381600Y242660D02*X383600Y246660D01*
X381100D02*X383600D01*
X384800Y243160D02*X385300Y242660D01*
X384800Y246160D02*Y243160D01*
Y246160D02*X385300Y246660D01*
X386300D01*
X386800Y246160D01*
Y243160D01*
X386300Y242660D02*X386800Y243160D01*
X385300Y242660D02*X386300D01*
X384800Y243660D02*X386800Y245660D01*
X388000Y246660D02*X390000D01*
X388000D02*Y244660D01*
X388500Y245160D01*
X389500D01*
X390000Y244660D01*
Y243160D01*
X389500Y242660D02*X390000Y243160D01*
X388500Y242660D02*X389500D01*
X388000Y243160D02*X388500Y242660D01*
X391200Y246660D02*X391700Y246160D01*
Y243160D01*
X391200Y242660D02*X391700Y243160D01*
X290500Y265160D02*X291000Y265660D01*
X292500D01*
X293000Y265160D01*
Y264160D01*
X290500Y261660D02*X293000Y264160D01*
X290500Y261660D02*X293000D01*
X294200Y262160D02*X294700Y261660D01*
X294200Y265160D02*Y262160D01*
Y265160D02*X294700Y265660D01*
X295700D01*
X296200Y265160D01*
Y262160D01*
X295700Y261660D02*X296200Y262160D01*
X294700Y261660D02*X295700D01*
X294200Y262660D02*X296200Y264660D01*
X297400Y264860D02*X298200Y265660D01*
Y261660D01*
X297400D02*X298900D01*
X300600D02*X302600Y265660D01*
X300100D02*X302600D01*
X303800Y261660D02*X304300D01*
X305500Y262160D02*X306000Y261660D01*
X305500Y265160D02*Y262160D01*
Y265160D02*X306000Y265660D01*
X307000D01*
X307500Y265160D01*
Y262160D01*
X307000Y261660D02*X307500Y262160D01*
X306000Y261660D02*X307000D01*
X305500Y262660D02*X307500Y264660D01*
X310200Y265660D02*X310700Y265160D01*
X309200Y265660D02*X310200D01*
X308700Y265160D02*X309200Y265660D01*
X308700Y265160D02*Y262160D01*
X309200Y261660D01*
X310200Y263860D02*X310700Y263360D01*
X308700Y263860D02*X310200D01*
X309200Y261660D02*X310200D01*
X310700Y262160D01*
Y263360D02*Y262160D01*
X311900Y261660D02*X312400D01*
X313600Y265160D02*X314100Y265660D01*
X315600D01*
X316100Y265160D01*
Y264160D01*
X313600Y261660D02*X316100Y264160D01*
X313600Y261660D02*X316100D01*
X317300Y265160D02*X317800Y265660D01*
X319300D01*
X319800Y265160D01*
Y264160D01*
X317300Y261660D02*X319800Y264160D01*
X317300Y261660D02*X319800D01*
X290500Y270860D02*X292000D01*
X290500Y268660D02*X292500D01*
X290500Y272660D02*Y268660D01*
Y272660D02*X292500D01*
X294200D02*Y268660D01*
X293700Y272660D02*X295700D01*
X296200Y272160D01*
Y271160D01*
X295700Y270660D02*X296200Y271160D01*
X294200Y270660D02*X295700D01*
X297400Y272660D02*Y268660D01*
X299400D01*
X302400Y272660D02*X303400Y268660D01*
X304400Y272660D01*
X307100Y270660D02*X307600Y270160D01*
X306100Y270660D02*X307100D01*
X305600Y270160D02*X306100Y270660D01*
X305600Y270160D02*Y269160D01*
X306100Y268660D01*
X307600Y270660D02*Y269160D01*
X308100Y268660D01*
X306100D02*X307100D01*
X307600Y269160D01*
X309300Y272660D02*Y269160D01*
X309800Y268660D01*
X310800Y270660D02*X311800Y268660D01*
X312800Y270660D02*X311800Y268660D01*
X314500D02*X316000D01*
X314000Y269160D02*X314500Y268660D01*
X314000Y270160D02*Y269160D01*
Y270160D02*X314500Y270660D01*
X315500D01*
X316000Y270160D01*
X314000Y269660D02*X316000D01*
Y270160D02*Y269660D01*
X319500Y272660D02*Y268660D01*
X320800Y272660D02*X321500Y271960D01*
Y269360D01*
X320800Y268660D02*X321500Y269360D01*
X319000Y268660D02*X320800D01*
X319000Y272660D02*X320800D01*
X323200Y270160D02*Y268660D01*
Y270160D02*X323700Y270660D01*
X324700D01*
X322700D02*X323200Y270160D01*
X325900Y271660D02*Y271560D01*
Y270160D02*Y268660D01*
X326900Y270660D02*X327900Y268660D01*
X328900Y270660D02*X327900Y268660D01*
X330600D02*X332100D01*
X330100Y269160D02*X330600Y268660D01*
X330100Y270160D02*Y269160D01*
Y270160D02*X330600Y270660D01*
X331600D01*
X332100Y270160D01*
X330100Y269660D02*X332100D01*
Y270160D02*Y269660D01*
X333800Y270160D02*Y268660D01*
Y270160D02*X334300Y270660D01*
X335300D01*
X333300D02*X333800Y270160D01*
X290500Y254660D02*X292500D01*
X293000Y255160D01*
Y256360D02*Y255160D01*
X292500Y256860D02*X293000Y256360D01*
X291000Y256860D02*X292500D01*
X291000Y258660D02*Y254660D01*
X290500Y258660D02*X292500D01*
X293000Y258160D01*
Y257360D01*
X292500Y256860D02*X293000Y257360D01*
X294200Y256660D02*Y255160D01*
X294700Y254660D01*
X296200Y256660D02*Y253660D01*
X295700Y253160D02*X296200Y253660D01*
X294700Y253160D02*X295700D01*
X294200Y253660D02*X294700Y253160D01*
Y254660D02*X295700D01*
X296200Y255160D01*
X299200Y256860D02*X300700D01*
X299200Y254660D02*X301200D01*
X299200Y258660D02*Y254660D01*
Y258660D02*X301200D01*
X302400Y256660D02*X303400Y254660D01*
X304400Y256660D02*X303400Y254660D01*
X307100Y256660D02*X307600Y256160D01*
X306100Y256660D02*X307100D01*
X305600Y256160D02*X306100Y256660D01*
X305600Y256160D02*Y255160D01*
X306100Y254660D01*
X307600Y256660D02*Y255160D01*
X308100Y254660D01*
X306100D02*X307100D01*
X307600Y255160D01*
X309800Y256160D02*Y254660D01*
Y256160D02*X310300Y256660D01*
X310800D01*
X311300Y256160D01*
Y254660D01*
X309300Y256660D02*X309800Y256160D01*
X314300Y258660D02*Y254660D01*
Y258660D02*X316300D01*
X314300Y256860D02*X315800D01*
X317500Y256160D02*Y255160D01*
Y256160D02*X318000Y256660D01*
X319000D01*
X319500Y256160D01*
Y255160D01*
X319000Y254660D02*X319500Y255160D01*
X318000Y254660D02*X319000D01*
X317500Y255160D02*X318000Y254660D01*
X321200D02*X322700D01*
X323200Y255160D01*
X322700Y255660D02*X323200Y255160D01*
X321200Y255660D02*X322700D01*
X320700Y256160D02*X321200Y255660D01*
X320700Y256160D02*X321200Y256660D01*
X322700D01*
X323200Y256160D01*
X320700Y255160D02*X321200Y254660D01*
X324900D02*X326400D01*
X326900Y255160D01*
X326400Y255660D02*X326900Y255160D01*
X324900Y255660D02*X326400D01*
X324400Y256160D02*X324900Y255660D01*
X324400Y256160D02*X324900Y256660D01*
X326400D01*
X326900Y256160D01*
X324400Y255160D02*X324900Y254660D01*
G54D67*X331500Y325660D02*G75*G03X331500Y305660I0J-10000D01*G01*
G75*G03X331500Y325660I0J10000D01*G01*
X405500Y379160D02*Y354160D01*
Y304160D02*Y279160D01*
X397167Y354160D02*X413833D01*
Y304160D01*
X397167Y354160D02*Y304160D01*
X413833D01*
X338500Y256660D02*X351833D01*
X365166D02*X378500D01*
X365166Y263326D02*Y249994D01*
Y263326D02*X351833Y256660D01*
X365166Y249994D02*X351833Y256660D01*
Y263326D02*Y249994D01*
X321501Y177273D02*Y157573D01*
X326501Y189773D02*Y177273D01*
X321501D02*X326501D01*
X315001D02*X318001D01*
G54D68*X311501Y166073D02*Y163873D01*
X301501Y166073D02*Y163873D01*
X291501Y166073D02*Y163873D01*
X281501Y166073D02*Y163873D01*
X321501Y166073D02*Y163873D01*
X311501Y175073D02*Y172873D01*
X301501Y175073D02*Y172873D01*
X321501Y175073D02*Y172873D01*
X301501Y184073D02*Y181873D01*
X291501Y184073D02*Y181873D01*
X321501Y184073D02*Y181873D01*
X311501Y184073D02*Y181873D01*
X281501Y184073D02*Y181873D01*
Y175073D02*Y172873D01*
X291501Y175073D02*Y172873D01*
X321501Y200273D02*Y191773D01*
X311501Y200273D02*Y191773D01*
X301501Y200273D02*Y191773D01*
X291501Y200273D02*Y191773D01*
X281501Y200273D02*Y191773D01*
G54D67*X278001Y157573D02*X321501D01*
G54D68*X311501Y156073D02*Y152873D01*
X321501Y156073D02*Y152873D01*
X301501Y156073D02*Y152873D01*
X291501Y156073D02*Y152873D01*
X281501Y156073D02*Y152873D01*
G54D69*X322751Y176973D02*Y155873D01*
G54D67*X265001Y177273D02*X268001D01*
G54D68*X271501Y166073D02*Y163873D01*
Y184073D02*Y181873D01*
Y175073D02*Y172873D01*
Y200273D02*Y191773D01*
Y156073D02*Y152873D01*
G54D67*X236501Y189773D02*X326501D01*
X241501Y157573D02*X275001D01*
X295001Y177273D02*X298001D01*
X285001D02*X288001D01*
G54D68*X251501Y166073D02*Y163873D01*
Y175073D02*Y172873D01*
Y184073D02*Y181873D01*
Y200273D02*Y191773D01*
Y156073D02*Y152873D01*
X261501Y166073D02*Y163873D01*
Y184073D02*Y181873D01*
Y175073D02*Y172873D01*
Y200273D02*Y191773D01*
Y156073D02*Y152873D01*
G54D67*X255001Y177273D02*X258001D01*
X241501D02*Y157573D01*
X236501Y189773D02*Y177273D01*
X241501D01*
G54D68*Y166073D02*Y163873D01*
Y175073D02*Y172873D01*
Y184073D02*Y181873D01*
Y200273D02*Y191773D01*
Y156073D02*Y152873D01*
G54D69*X240251Y176973D02*Y155573D01*
G54D67*X245001Y177273D02*X248001D01*
X278001D02*Y157573D01*
X275001Y177273D02*Y157573D01*
Y177273D02*X278001D01*
X305001D02*X308001D01*
X359500Y205660D02*X363500D01*
X331500D02*X335500D01*
X333500Y207660D02*Y203660D01*
X337500Y205660D02*G75*G03X357500Y205660I10000J0D01*G01*
G75*G03X337500Y205660I-10000J0D01*G01*
X236500Y214860D02*X326500D01*
X236500Y239860D02*X326500D01*
X241500Y233860D02*Y239860D01*
X321500Y233860D02*Y239860D01*
X236500D02*Y214860D01*
X326500Y239860D02*Y214860D01*
X275000Y233860D02*Y239860D01*
X278000D02*Y233860D01*
X241500D02*X275000D01*
X278000D02*X321500D01*
X241500Y313660D02*Y303660D01*
Y283660D02*Y273660D01*
Y303660D02*X244833Y301994D01*
X238167Y298660D01*
X241500Y296994D01*
X244833Y295327D01*
X238167Y291994D01*
X241500Y290327D01*
X244833Y288660D01*
X238167Y285327D01*
X241500Y283660D01*
Y256660D02*X254833D01*
X268166D02*X281500D01*
X268166Y263326D02*Y249994D01*
Y263326D02*X254833Y256660D01*
X268166Y249994D02*X254833Y256660D01*
Y263326D02*Y249994D01*
X252833D01*
X254833Y263326D02*X256833D01*
X298500Y281660D02*X308500D01*
X328500D02*X338500D01*
X308500D02*X310166Y284993D01*
X313500Y278327D01*
X315166Y281660D01*
X316833Y284993D01*
X320166Y278327D01*
X321833Y281660D01*
X323500Y284993D01*
X326833Y278327D01*
X328500Y281660D01*
X272500Y306660D02*X282500D01*
X302500D02*X312500D01*
X282500D02*X284166Y309993D01*
X287500Y303327D01*
X289166Y306660D01*
X290833Y309993D01*
X294166Y303327D01*
X295833Y306660D01*
X297500Y309993D01*
X300833Y303327D01*
X302500Y306660D01*
G54D70*X302387Y390000D02*X342387D01*
Y372000D01*
X302387D01*
Y390000D01*
X342387D01*
Y384000D01*
X302387D01*
Y390000D01*
G54D67*X315387D02*Y384000D01*
X329387Y390000D02*Y384000D01*
G54D71*X322387Y368000D02*Y372000D01*
G54D67*X291000Y390010D02*X233000D01*
X291000Y330310D02*Y351160D01*
X233000Y330310D02*X291000D01*
X233000Y390010D02*Y369160D01*
X291000Y390010D02*Y369160D01*
X233000Y330310D02*Y351160D01*
X291000Y389176D03*
X349500Y409800D02*Y381000D01*
X374500Y409800D02*Y381000D01*
X349500Y409800D02*X374500D01*
X375500Y381000D02*Y331000D01*
X348500D02*X375500D01*
X348500Y381000D02*Y331000D01*
Y381000D02*X375500D01*
G54D70*X362000Y331000D02*Y301000D01*
G54D67*X372000Y454800D02*Y409800D01*
X352000Y454800D02*X372000D01*
X352000D02*Y409800D01*
G54D66*X343035Y317973D02*Y316673D01*
X343735Y318673D02*X343035Y317973D01*
X343735Y318673D02*X346335D01*
X347035Y317973D01*
Y316673D01*
X346535Y315473D02*X347035Y314973D01*
Y313473D01*
X346535Y312973D01*
X345535D02*X346535D01*
X343035Y315473D02*X345535Y312973D01*
X343035Y315473D02*Y312973D01*
X345700Y217160D02*X347000D01*
X345000Y217860D02*X345700Y217160D01*
X345000Y220460D02*Y217860D01*
Y220460D02*X345700Y221160D01*
X347000D01*
X348200Y220360D02*X349000Y221160D01*
Y217160D01*
X348200D02*X349700D01*
X415500Y334160D02*X419500D01*
X417500Y332660D01*
X419500Y331160D01*
X415500D02*X419500D01*
X416000Y329960D02*X419000D01*
X419500Y329460D01*
Y328460D01*
X419000Y327960D01*
X416000D02*X419000D01*
X415500Y328460D02*X416000Y327960D01*
X415500Y329460D02*Y328460D01*
X416000Y329960D02*X415500Y329460D01*
Y326260D02*X419500D01*
Y324960D02*X418800Y324260D01*
X416200D02*X418800D01*
X415500Y324960D02*X416200Y324260D01*
X415500Y326760D02*Y324960D01*
X419500Y326760D02*Y324960D01*
X418700Y323060D02*X419500Y322260D01*
X415500D02*X419500D01*
X415500Y323060D02*Y321560D01*
X355833Y268160D02*Y264160D01*
X357133Y268160D02*X357833Y267460D01*
Y264860D01*
X357133Y264160D02*X357833Y264860D01*
X355333Y264160D02*X357133D01*
X355333Y268160D02*X357133D01*
X359033Y267360D02*X359833Y268160D01*
Y264160D01*
X359033D02*X360533D01*
X350400Y328300D02*X350900Y327800D01*
X348900Y328300D02*X350400D01*
X348400Y327800D02*X348900Y328300D01*
X348400Y327800D02*Y326800D01*
X348900Y326300D01*
X350400D01*
X350900Y325800D01*
Y324800D01*
X350400Y324300D02*X350900Y324800D01*
X348900Y324300D02*X350400D01*
X348400Y324800D02*X348900Y324300D01*
X352100Y327500D02*X352900Y328300D01*
Y324300D01*
X352100D02*X353600D01*
X238201Y205273D02*X239501D01*
X237501Y205973D02*X238201Y205273D01*
X237501Y208573D02*Y205973D01*
Y208573D02*X238201Y209273D01*
X239501D01*
X240701Y208773D02*Y205773D01*
Y208773D02*X241201Y209273D01*
X242201D01*
X242701Y208773D01*
Y205773D01*
X242201Y205273D02*X242701Y205773D01*
X241201Y205273D02*X242201D01*
X240701Y205773D02*X241201Y205273D01*
X243901Y209273D02*Y205273D01*
Y209273D02*X246401Y205273D01*
Y209273D02*Y205273D01*
X247601Y209273D02*Y205273D01*
Y209273D02*X250101Y205273D01*
Y209273D02*Y205273D01*
X251301Y208773D02*X251801Y209273D01*
X252801D01*
X253301Y208773D01*
X252801Y205273D02*X253301Y205773D01*
X251801Y205273D02*X252801D01*
X251301Y205773D02*X251801Y205273D01*
Y207473D02*X252801D01*
X253301Y208773D02*Y207973D01*
Y206973D02*Y205773D01*
Y206973D02*X252801Y207473D01*
X253301Y207973D02*X252801Y207473D01*
X238200Y241660D02*X239500D01*
X237500Y242360D02*X238200Y241660D01*
X237500Y244960D02*Y242360D01*
Y244960D02*X238200Y245660D01*
X239500D01*
X240700Y245160D02*Y242160D01*
Y245160D02*X241200Y245660D01*
X242200D01*
X242700Y245160D01*
Y242160D01*
X242200Y241660D02*X242700Y242160D01*
X241200Y241660D02*X242200D01*
X240700Y242160D02*X241200Y241660D01*
X243900Y245660D02*Y241660D01*
Y245660D02*X246400Y241660D01*
Y245660D02*Y241660D01*
X247600Y245660D02*Y241660D01*
Y245660D02*X250100Y241660D01*
Y245660D02*Y241660D01*
X251300Y243160D02*X253300Y245660D01*
X251300Y243160D02*X253800D01*
X253300Y245660D02*Y241660D01*
X250000Y296660D02*Y294660D01*
X249500Y294160D01*
X248500D02*X249500D01*
X248000Y294660D02*X248500Y294160D01*
X248000Y296160D02*Y294660D01*
X246000Y296160D02*X250000D01*
X248000Y295360D02*X246000Y294160D01*
X249500Y292960D02*X250000Y292460D01*
Y291460D01*
X249500Y290960D01*
X246000Y291460D02*X246500Y290960D01*
X246000Y292460D02*Y291460D01*
X246500Y292960D02*X246000Y292460D01*
X248200D02*Y291460D01*
X248700Y290960D02*X249500D01*
X246500D02*X247700D01*
X248200Y291460D01*
X248700Y290960D02*X248200Y291460D01*
X234737Y324350D02*X236037D01*
X234037Y325050D02*X234737Y324350D01*
X234037Y327650D02*Y325050D01*
Y327650D02*X234737Y328350D01*
X236037D01*
X237237Y327850D02*Y324850D01*
Y327850D02*X237737Y328350D01*
X238737D01*
X239237Y327850D01*
Y324850D01*
X238737Y324350D02*X239237Y324850D01*
X237737Y324350D02*X238737D01*
X237237Y324850D02*X237737Y324350D01*
X240437Y328350D02*Y324350D01*
Y328350D02*X242937Y324350D01*
Y328350D02*Y324350D01*
X244137Y328350D02*Y324350D01*
Y328350D02*X246637Y324350D01*
Y328350D02*Y324350D01*
X247837Y327550D02*X248637Y328350D01*
Y324350D01*
X247837D02*X249337D01*
X258333Y268160D02*X260833D01*
X258333Y264160D02*X260833Y268160D01*
X258333Y264160D02*X260833D01*
X262033Y267360D02*X262833Y268160D01*
Y264160D01*
X262033D02*X263533D01*
X315500Y290160D02*X317500D01*
X318000Y289660D01*
Y288660D01*
X317500Y288160D02*X318000Y288660D01*
X316000Y288160D02*X317500D01*
X316000Y290160D02*Y286160D01*
X316800Y288160D02*X318000Y286160D01*
X319200Y289360D02*X320000Y290160D01*
Y286160D01*
X319200D02*X320700D01*
X289500Y315160D02*X291500D01*
X292000Y314660D01*
Y313660D01*
X291500Y313160D02*X292000Y313660D01*
X290000Y313160D02*X291500D01*
X290000Y315160D02*Y311160D01*
X290800Y313160D02*X292000Y311160D01*
X293200Y314660D02*X293700Y315160D01*
X295200D01*
X295700Y314660D01*
Y313660D01*
X293200Y311160D02*X295700Y313660D01*
X293200Y311160D02*X295700D01*
X302387Y369500D02*Y366500D01*
Y369500D02*X302887Y370000D01*
X303887D01*
X304387Y369500D01*
Y367000D01*
X303387Y366000D02*X304387Y367000D01*
X302887Y366000D02*X303387D01*
X302387Y366500D02*X302887Y366000D01*
X303387Y367500D02*X304387Y366000D01*
X305587Y369200D02*X306387Y370000D01*
Y366000D01*
X305587D02*X307087D01*
M02*
