G04 start of page 9 for group 10 layer_idx 8 *
G04 Title: (unknown), bottom_silk *
G04 Creator: pcb-rnd 1.2.4 *
G04 CreationDate: 2017-09-22 19:00:37 UTC *
G04 For:  *
G04 Format: Gerber/RS-274X *
G04 PCB-Dimensions: 600000 500000 *
G04 PCB-Coordinate-Origin: lower left *
%MOIN*%
%FSLAX25Y25*%
%LNBOTTOMSILK*%
%ADD72C,0.0070*%
G54D72*X233500Y172660D02*Y175660D01*
Y172660D02*X234200Y171660D01*
X235300D01*
X236000Y172660D01*
Y175660D01*
X233500Y173660D02*X236000D01*
X237200Y171660D02*Y175160D01*
X237700Y175660D01*
X240200Y173660D02*X240700Y174160D01*
X239200Y173660D02*X240200D01*
X238700Y174160D02*X239200Y173660D01*
X238700Y174160D02*Y175160D01*
X239200Y175660D01*
X240700Y173660D02*Y175160D01*
X241200Y175660D01*
X239200D02*X240200D01*
X240700Y175160D01*
X242400Y172660D02*Y172760D01*
Y174160D02*Y175660D01*
X243900Y174160D02*Y175660D01*
Y174160D02*X244400Y173660D01*
X244900D01*
X245400Y174160D01*
Y175660D01*
X243400Y173660D02*X243900Y174160D01*
X246600Y176660D02*X247600Y175660D01*
X252100Y173660D02*X252600Y174160D01*
X251100Y173660D02*X252100D01*
X250600Y174160D02*X251100Y173660D01*
X250600Y174160D02*Y175160D01*
X251100Y175660D01*
X252600Y173660D02*Y175160D01*
X253100Y175660D01*
X251100D02*X252100D01*
X252600Y175160D01*
X254800Y174160D02*Y175660D01*
Y174160D02*X255300Y173660D01*
X255800D01*
X256300Y174160D01*
Y175660D01*
X254300Y173660D02*X254800Y174160D01*
X259500Y171660D02*Y175660D01*
X259000D02*X259500Y175160D01*
X258000Y175660D02*X259000D01*
X257500Y175160D02*X258000Y175660D01*
X257500Y174160D02*Y175160D01*
Y174160D02*X258000Y173660D01*
X259000D01*
X259500Y174160D01*
X263000Y171660D02*Y175160D01*
X263500Y175660D01*
X262500Y173160D02*X263500D01*
X264500Y171660D02*Y175660D01*
Y174160D02*X265000Y173660D01*
X266000D01*
X266500Y174160D01*
Y175660D01*
X268200D02*X269700D01*
X267700Y175160D02*X268200Y175660D01*
X267700Y174160D02*Y175160D01*
Y174160D02*X268200Y173660D01*
X269200D01*
X269700Y174160D01*
X267700Y174660D02*X269700D01*
Y174160D02*Y174660D01*
X272700Y174160D02*Y175160D01*
Y174160D02*X273200Y173660D01*
X274200D01*
X274700Y174160D01*
Y175160D01*
X274200Y175660D02*X274700Y175160D01*
X273200Y175660D02*X274200D01*
X272700Y175160D02*X273200Y175660D01*
X276400Y171660D02*Y175160D01*
X276900Y175660D01*
X275900Y173160D02*X276900D01*
X277900Y171660D02*Y175660D01*
Y174160D02*X278400Y173660D01*
X279400D01*
X279900Y174160D01*
Y175660D01*
X281600D02*X283100D01*
X281100Y175160D02*X281600Y175660D01*
X281100Y174160D02*Y175160D01*
Y174160D02*X281600Y173660D01*
X282600D01*
X283100Y174160D01*
X281100Y174660D02*X283100D01*
Y174160D02*Y174660D01*
X284800Y174160D02*Y175660D01*
Y174160D02*X285300Y173660D01*
X286300D01*
X284300D02*X284800Y174160D01*
X289800Y172160D02*Y175660D01*
Y172160D02*X290300Y171660D01*
X290800D01*
X289300Y173660D02*X290300D01*
X292300Y175660D02*X293800D01*
X291800Y175160D02*X292300Y175660D01*
X291800Y174160D02*Y175160D01*
Y174160D02*X292300Y173660D01*
X293300D01*
X293800Y174160D01*
X291800Y174660D02*X293800D01*
Y174160D02*Y174660D01*
X295000Y171660D02*Y175160D01*
X295500Y175660D01*
X296500Y171660D02*Y175160D01*
X297000Y175660D01*
X298000Y174160D02*Y175160D01*
Y174160D02*X298500Y173660D01*
X299500D01*
X300000Y174160D01*
Y175160D01*
X299500Y175660D02*X300000Y175160D01*
X298500Y175660D02*X299500D01*
X298000Y175160D02*X298500Y175660D01*
X301200Y173660D02*Y175160D01*
X301700Y175660D01*
X302200D01*
X302700Y175160D01*
Y173660D02*Y175160D01*
X303200Y175660D01*
X303700D01*
X304200Y175160D01*
Y173660D02*Y175160D01*
X307700Y173660D02*X309200D01*
X307200Y174160D02*X307700Y173660D01*
X307200Y174160D02*Y175160D01*
X307700Y175660D01*
X309200D01*
X310400Y174160D02*Y175160D01*
Y174160D02*X310900Y173660D01*
X311900D01*
X312400Y174160D01*
Y175160D01*
X311900Y175660D02*X312400Y175160D01*
X310900Y175660D02*X311900D01*
X310400Y175160D02*X310900Y175660D01*
X314100Y174160D02*Y175660D01*
Y174160D02*X314600Y173660D01*
X315100D01*
X315600Y174160D01*
Y175660D01*
X313600Y173660D02*X314100Y174160D01*
X317300Y171660D02*Y175160D01*
X317800Y175660D01*
X316800Y173160D02*X317800D01*
X319300Y174160D02*Y175660D01*
Y174160D02*X319800Y173660D01*
X320800D01*
X318800D02*X319300Y174160D01*
X322000Y172660D02*Y172760D01*
Y174160D02*Y175660D01*
X323000Y171660D02*Y175660D01*
Y175160D02*X323500Y175660D01*
X324500D01*
X325000Y175160D01*
Y174160D02*Y175160D01*
X324500Y173660D02*X325000Y174160D01*
X323500Y173660D02*X324500D01*
X323000Y174160D02*X323500Y173660D01*
X326200D02*Y175160D01*
X326700Y175660D01*
X327700D01*
X328200Y175160D01*
Y173660D02*Y175160D01*
X329900Y171660D02*Y175160D01*
X330400Y175660D01*
X329400Y173160D02*X330400D01*
X331400Y174160D02*Y175160D01*
Y174160D02*X331900Y173660D01*
X332900D01*
X333400Y174160D01*
Y175160D01*
X332900Y175660D02*X333400Y175160D01*
X331900Y175660D02*X332900D01*
X331400Y175160D02*X331900Y175660D01*
X335100Y174160D02*Y175660D01*
Y174160D02*X335600Y173660D01*
X336600D01*
X334600D02*X335100Y174160D01*
X338300Y175660D02*X339800D01*
X340300Y175160D01*
X339800Y174660D02*X340300Y175160D01*
X338300Y174660D02*X339800D01*
X337800Y174160D02*X338300Y174660D01*
X337800Y174160D02*X338300Y173660D01*
X339800D01*
X340300Y174160D01*
X337800Y175160D02*X338300Y175660D01*
X343800Y171660D02*Y175160D01*
X344300Y175660D01*
X343300Y173160D02*X344300D01*
X345300Y174160D02*Y175160D01*
Y174160D02*X345800Y173660D01*
X346800D01*
X347300Y174160D01*
Y175160D01*
X346800Y175660D02*X347300Y175160D01*
X345800Y175660D02*X346800D01*
X345300Y175160D02*X345800Y175660D01*
X350800Y171660D02*Y175660D01*
X350300Y171660D02*X352300D01*
X352800Y172160D01*
Y173160D01*
X352300Y173660D02*X352800Y173160D01*
X350800Y173660D02*X352300D01*
X354700Y175660D02*X356000D01*
X354000Y174960D02*X354700Y175660D01*
X354000Y172360D02*Y174960D01*
Y172360D02*X354700Y171660D01*
X356000D01*
X357200Y175660D02*X359200D01*
X359700Y175160D01*
Y173960D02*Y175160D01*
X359200Y173460D02*X359700Y173960D01*
X357700Y173460D02*X359200D01*
X357700Y171660D02*Y175660D01*
X357200Y171660D02*X359200D01*
X359700Y172160D01*
Y172960D01*
X359200Y173460D02*X359700Y172960D01*
X360900Y173660D02*X362900D01*
X364100Y171660D02*X366100D01*
X366600Y172160D01*
Y173160D01*
X366100Y173660D02*X366600Y173160D01*
X364600Y173660D02*X366100D01*
X364600Y171660D02*Y175660D01*
X365400Y173660D02*X366600Y175660D01*
X367800Y171660D02*Y175660D01*
Y171660D02*X370300Y175660D01*
Y171660D02*Y175660D01*
X372000Y171660D02*Y175660D01*
X373300Y171660D02*X374000Y172360D01*
Y174960D01*
X373300Y175660D02*X374000Y174960D01*
X371500Y175660D02*X373300D01*
X371500Y171660D02*X373300D01*
X233500Y163660D02*X235500D01*
X234500D02*Y167660D01*
X236700Y163660D02*Y167660D01*
Y166160D02*X237200Y165660D01*
X238200D01*
X238700Y166160D01*
Y167660D01*
X241400Y165660D02*X241900Y166160D01*
X240400Y165660D02*X241400D01*
X239900Y166160D02*X240400Y165660D01*
X239900Y166160D02*Y167160D01*
X240400Y167660D01*
X241900Y165660D02*Y167160D01*
X242400Y167660D01*
X240400D02*X241400D01*
X241900Y167160D01*
X244100Y166160D02*Y167660D01*
Y166160D02*X244600Y165660D01*
X245100D01*
X245600Y166160D01*
Y167660D01*
X243600Y165660D02*X244100Y166160D01*
X246800Y163660D02*Y167660D01*
Y166160D02*X248300Y167660D01*
X246800Y166160D02*X247800Y165160D01*
X250000Y167660D02*X251500D01*
X252000Y167160D01*
X251500Y166660D02*X252000Y167160D01*
X250000Y166660D02*X251500D01*
X249500Y166160D02*X250000Y166660D01*
X249500Y166160D02*X250000Y165660D01*
X251500D01*
X252000Y166160D01*
X249500Y167160D02*X250000Y167660D01*
X255500Y163660D02*Y167160D01*
X256000Y167660D01*
X255000Y165160D02*X256000D01*
X257000Y166160D02*Y167160D01*
Y166160D02*X257500Y165660D01*
X258500D01*
X259000Y166160D01*
Y167160D01*
X258500Y167660D02*X259000Y167160D01*
X257500Y167660D02*X258500D01*
X257000Y167160D02*X257500Y167660D01*
X262000Y163660D02*X263000D01*
X262500D02*Y167660D01*
X262000D02*X263000D01*
X265700Y165660D02*X266200Y166160D01*
X264700Y165660D02*X265700D01*
X264200Y166160D02*X264700Y165660D01*
X264200Y166160D02*Y167160D01*
X264700Y167660D01*
X265700D01*
X266200Y167160D01*
X264200Y168660D02*X264700Y169160D01*
X265700D01*
X266200Y168660D01*
Y165660D02*Y168660D01*
X267400Y166160D02*Y167160D01*
Y166160D02*X267900Y165660D01*
X268900D01*
X269400Y166160D01*
Y167160D01*
X268900Y167660D02*X269400Y167160D01*
X267900Y167660D02*X268900D01*
X267400Y167160D02*X267900Y167660D01*
X271100Y166160D02*Y167660D01*
Y166160D02*X271600Y165660D01*
X272600D01*
X270600D02*X271100Y166160D01*
X273800Y164160D02*X274300Y163660D01*
X275800D01*
X276300Y164160D01*
Y165160D01*
X273800Y167660D02*X276300Y165160D01*
X273800Y167660D02*X276300D01*
X277500Y168660D02*X278500Y167660D01*
X281500Y165460D02*X283000D01*
X281500Y167660D02*X283500D01*
X281500Y163660D02*Y167660D01*
Y163660D02*X283500D01*
X285200Y166160D02*Y167660D01*
Y166160D02*X285700Y165660D01*
X286700D01*
X284700D02*X285200Y166160D01*
X287900Y164660D02*Y164760D01*
Y166160D02*Y167660D01*
X289400Y165660D02*X290900D01*
X288900Y166160D02*X289400Y165660D01*
X288900Y166160D02*Y167160D01*
X289400Y167660D01*
X290900D01*
X292100Y163660D02*Y167660D01*
Y166160D02*X292600Y165660D01*
X293600D01*
X294100Y166160D01*
Y167660D01*
X295300Y163660D02*X296300Y167660D01*
X297300Y163660D01*
X298500D02*Y167660D01*
Y165660D02*X300500Y163660D01*
X298500Y165660D02*X300500Y167660D01*
X301700Y168660D02*X302700Y167660D01*
X305700Y164660D02*Y167660D01*
Y164660D02*X306400Y163660D01*
X307500D01*
X308200Y164660D01*
Y167660D01*
X305700Y165660D02*X308200D01*
X311400Y163660D02*Y167660D01*
X310900D02*X311400Y167160D01*
X309900Y167660D02*X310900D01*
X309400Y167160D02*X309900Y167660D01*
X309400Y166160D02*Y167160D01*
Y166160D02*X309900Y165660D01*
X310900D01*
X311400Y166160D01*
X313100Y167660D02*X314600D01*
X312600Y167160D02*X313100Y167660D01*
X312600Y166160D02*Y167160D01*
Y166160D02*X313100Y165660D01*
X314100D01*
X314600Y166160D01*
X312600Y166660D02*X314600D01*
Y166160D02*Y166660D01*
X315800Y168660D02*X316800Y167660D01*
X319800Y163660D02*Y167660D01*
Y165660D02*X321800Y163660D01*
X319800Y165660D02*X321800Y167660D01*
X323500D02*X325000D01*
X323000Y167160D02*X323500Y167660D01*
X323000Y166160D02*Y167160D01*
Y166160D02*X323500Y165660D01*
X324500D01*
X325000Y166160D01*
X323000Y166660D02*X325000D01*
Y166160D02*Y166660D01*
X326200Y164660D02*Y164760D01*
Y166160D02*Y167660D01*
X327700Y163660D02*Y167160D01*
X328200Y167660D01*
X327200Y165160D02*X328200D01*
X329200Y163660D02*Y167660D01*
Y166160D02*X329700Y165660D01*
X330700D01*
X331200Y166160D01*
Y167660D01*
X332900Y163660D02*Y167660D01*
X332400Y163660D02*X334400D01*
X334900Y164160D01*
Y165160D01*
X334400Y165660D02*X334900Y165160D01*
X332900Y165660D02*X334400D01*
X336100Y168660D02*X337100Y167660D01*
X340100D02*X342100D01*
X342600Y167160D01*
Y165960D02*Y167160D01*
X342100Y165460D02*X342600Y165960D01*
X340600Y165460D02*X342100D01*
X340600Y163660D02*Y167660D01*
X340100Y163660D02*X342100D01*
X342600Y164160D01*
Y164960D01*
X342100Y165460D02*X342600Y164960D01*
X344300Y163660D02*Y167660D01*
X345600Y163660D02*X346300Y164360D01*
Y166960D01*
X345600Y167660D02*X346300Y166960D01*
X343800Y167660D02*X345600D01*
X343800Y163660D02*X345600D01*
X349000Y165660D02*X349500Y166160D01*
X348000Y165660D02*X349000D01*
X347500Y166160D02*X348000Y165660D01*
X347500Y166160D02*Y167160D01*
X348000Y167660D01*
X349500Y165660D02*Y167160D01*
X350000Y167660D01*
X348000D02*X349000D01*
X349500Y167160D01*
X351200Y163660D02*Y167160D01*
X351700Y167660D01*
X353200D02*X354700D01*
X352700Y167160D02*X353200Y167660D01*
X352700Y166160D02*Y167160D01*
Y166160D02*X353200Y165660D01*
X354200D01*
X354700Y166160D01*
X352700Y166660D02*X354700D01*
Y166160D02*Y166660D01*
M02*
