M48
INCH
T51C0.047
T50C0.032
T49C0.079
T48C0.060
T47C0.040
T46C0.042
T45C0.073
T44C0.039
%
T50
X025200Y034016
X026200Y034016
T44
X033150Y032066
X040550Y027916
X033850Y028166
X033150Y031066
X031250Y030666
X024150Y027366
X024150Y025666
X033850Y025666
X028150Y025666
X029850Y028166
X037850Y025666
X034250Y020566
X035250Y020566
X024150Y031366
X027250Y030666
X040550Y037916
T47
X025150Y022766
X026150Y022766
X024150Y022766
X027150Y022766
X028150Y022766
X029150Y022766
X030150Y022766
X031150Y022766
X032150Y022766
T46
X029150Y020027
X028150Y020027
X027150Y020027
X026150Y020027
X032150Y020027
X031150Y020027
X030150Y020027
X025150Y020027
X024150Y020027
T51
X026350Y027066
X029750Y034066
X026350Y029266
T48
X031239Y037800
X032239Y036800
X033239Y037800
T45
X036200Y031600
X036200Y030100
X037200Y038100
X035200Y038100
X036200Y033100
T49
X024200Y036016
X028200Y036016
M30
